<?xml version="1.0" encoding="utf-8"?>
<!-- Generator: Adobe Illustrator 22.1.0, SVG Export Plug-In . SVG Version: 6.00 Build 0)  -->
<svg version="1.1" id="socials" xmlns="http://www.w3.org/2000/svg" xmlns:xlink="http://www.w3.org/1999/xlink" x="0px" y="0px"
	 viewBox="0 0 80 80" style="enable-background:new 0 0 80 80;" xml:space="preserve">
<style type="text/css">
	.st0{fill:#231F20;}
</style>
<title>RXM-social-icons</title>
<g>
	<path class="st0" d="M40,33.4c-3.7,0-6.7,3-6.7,6.7c0,3.7,3,6.7,6.7,6.7c3.7,0,6.7-3,6.7-6.7c0,0,0,0,0,0
		C46.7,36.4,43.7,33.4,40,33.4z"/>
	<path class="st0" d="M59.9,31.8c0-1.7-0.3-3.3-0.9-4.9c-1-2.7-3.2-4.8-5.9-5.8c-1.6-0.6-3.2-0.9-4.9-0.9C46.1,20,45.4,20,40,20
		c-5.4,0-6.1,0-8.2,0.1c-1.7,0-3.3,0.3-4.9,0.9c-2.7,1-4.8,3.2-5.8,5.8c-0.6,1.6-0.9,3.2-0.9,4.9C20,33.9,20,34.6,20,40
		s0,6.1,0.1,8.2c0,1.7,0.3,3.3,0.9,4.9c1,2.7,3.2,4.8,5.8,5.8c1.6,0.6,3.2,0.9,4.9,0.9C33.9,60,34.6,60,40,60c5.4,0,6.1,0,8.2-0.1
		c1.7,0,3.3-0.3,4.9-0.9c2.7-1,4.8-3.2,5.9-5.8c0.6-1.6,0.9-3.2,0.9-4.9C60,46.1,60,45.4,60,40S60,33.9,59.9,31.8z M40,50.3
		c-5.7,0-10.3-4.6-10.3-10.3S34.4,29.8,40,29.8c5.7,0,10.3,4.6,10.3,10.3C50.3,45.7,45.7,50.3,40,50.3z M53,29.3
		c0,1.3-1.1,2.4-2.4,2.4s-2.4-1.1-2.4-2.4c0-1.3,1.1-2.4,2.4-2.4C51.9,26.9,53,28,53,29.3C53,29.3,53,29.3,53,29.3z"/>
</g>
</svg>
