<?xml version="1.0" encoding="utf-8"?>
<!-- Generator: Adobe Illustrator 22.1.0, SVG Export Plug-In . SVG Version: 6.00 Build 0)  -->
<svg version="1.1" id="socials" xmlns="http://www.w3.org/2000/svg" xmlns:xlink="http://www.w3.org/1999/xlink" x="0px" y="0px"
	 viewBox="0 0 80 80" style="enable-background:new 0 0 80 80;" xml:space="preserve">
<title>RXM-social-icons</title>
<g id="linked_in">
	<path d="M22.7,33.5h7.1v24.7h-7.1V33.5z M26.1,30.4L26.1,30.4c-2.3,0.1-4.2-1.7-4.3-4c0-0.1,0-0.2,0-0.3c-0.1-2.3,1.7-4.2,4-4.3
		c0.1,0,0.2,0,0.4,0c2.3-0.1,4.2,1.7,4.3,3.9c0,0.1,0,0.2,0,0.3c0.1,2.3-1.7,4.2-4,4.3C26.3,30.4,26.2,30.4,26.1,30.4z M58.2,58.2
		h-8V45.4c0-3.3-1.3-5.6-4-5.6c-1.8,0.1-3.4,1.3-3.8,3c-0.2,0.7-0.2,1.3-0.2,2v13.4h-8c0,0,0.1-22.6,0-24.7h8v3.9
		c0.5-1.7,3-4.1,7.1-4.1c5,0,9,3.6,9,11.2C58.2,44.4,58.2,58.2,58.2,58.2z"/>
</g>
</svg>
