<?xml version="1.0" encoding="utf-8"?>
<!-- Generator: Adobe Illustrator 22.1.0, SVG Export Plug-In . SVG Version: 6.00 Build 0)  -->
<svg version="1.1" id="socials" xmlns="http://www.w3.org/2000/svg" xmlns:xlink="http://www.w3.org/1999/xlink" x="0px" y="0px"
	 viewBox="0 0 80 80" style="enable-background:new 0 0 80 80;" xml:space="preserve">
<style type="text/css">
	.st0{clip-path:url(#SVGID_2_);}
</style>
<title>RXM-social-icons</title>
<g id="twitter">
	<g>
		<defs>
			<path id="SVGID_1_" d="M55.5,30.6c1.7-1.1,2.9-2.7,3.4-4.6c-1.5,1-3.2,1.6-5,2c-1.4-1.7-3.5-2.6-5.7-2.6
				c-4.4,0.1-7.9,3.8-7.8,8.3c0,0.6,0.1,1.3,0.2,1.9c-6.4-0.4-12.3-3.5-16.1-8.6c-0.7,1.3-1.1,2.7-1.1,4.2c0,2.7,1.3,5.3,3.5,6.9
				c-1.3,0-2.5-0.4-3.6-1v0.1c-0.1,3.8,2.5,7.2,6.3,8.1c-1.2,0.3-2.4,0.4-3.5,0.1c0.9,3.3,3.9,5.6,7.3,5.7c-2.7,2.3-6.2,3.5-9.7,3.5
				c-0.6,0-1.2,0-1.9-0.1c3.5,2.4,7.7,3.7,12,3.7c14.4,0,22.3-12.6,22.3-23.5c0-0.4,0-0.7,0-1.1c1.5-1.2,2.9-2.6,3.9-4.3
				C58.6,30,57.1,30.4,55.5,30.6z"/>
		</defs>
		<clipPath id="SVGID_2_">
			<use xlink:href="#SVGID_1_"  style="overflow:visible;"/>
		</clipPath>
		<g class="st0">
			<rect x="12.7" y="16.4" width="56.4" height="50.9"/>
		</g>
	</g>
</g>
</svg>
