<?xml version="1.0" encoding="utf-8"?>
<!-- Generator: Adobe Illustrator 22.1.0, SVG Export Plug-In . SVG Version: 6.00 Build 0)  -->
<svg version="1.1" id="Layer_1" xmlns="http://www.w3.org/2000/svg" xmlns:xlink="http://www.w3.org/1999/xlink" x="0px" y="0px"
	 viewBox="0 0 16 15.7" style="enable-background:new 0 0 16 15.7;" xml:space="preserve">
<path d="M15.5,6.4c-0.4,0-0.8-0.1-1.2-0.1c-0.1,0-0.1,0-0.1-0.1c-0.1-0.5-0.3-1-0.6-1.4V4.7c0.3-0.3,0.5-0.7,0.8-1
	c0.1-0.2,0.1-0.4,0-0.6L13,1.7c-0.2-0.2-0.5-0.2-0.7,0c0,0,0,0,0,0c-0.3,0.3-0.7,0.5-1,0.8h-0.1c-0.4-0.2-0.9-0.4-1.4-0.6
	c-0.1,0-0.1,0-0.1-0.1c0-0.4-0.1-0.8-0.1-1.2c0-0.3-0.1-0.4-0.4-0.6H8H6.8C6.5,0.2,6.4,0.3,6.4,0.6c0,0.4-0.1,0.8-0.1,1.2
	c0,0.1,0,0.1-0.1,0.1c-0.5,0.2-1,0.4-1.4,0.6H4.7C4.4,2.2,4,2,3.7,1.7c0,0,0,0,0,0C3.5,1.5,3.2,1.5,3,1.7L1.6,3.1
	c-0.1,0.2-0.1,0.4,0,0.6c0.3,0.3,0.5,0.7,0.8,1v0.1C2.1,5.2,1.9,5.7,1.8,6.2c0,0.1,0,0.1-0.1,0.1c-0.4,0-0.8,0.1-1.2,0.1
	C0.3,6.4,0.1,6.5,0,6.7V9c0.1,0.3,0.3,0.4,0.6,0.4c0.3,0,0.7,0.1,1.1,0.1c0.1,0,0.2,0,0.2,0.1c0.2,0.4,0.4,0.9,0.6,1.3V11
	c-0.3,0.3-0.5,0.7-0.8,1c0,0,0,0,0,0c-0.2,0.2-0.2,0.5,0,0.7l1.4,1.4c0,0,0,0,0,0c0.2,0.2,0.5,0.2,0.7,0c0.3-0.3,0.7-0.5,1-0.8h0.1
	c0.4,0.3,0.9,0.5,1.4,0.6c0.1,0,0.1,0,0.1,0.1c0,0.4,0.1,0.8,0.1,1.2c0,0.2,0.1,0.4,0.3,0.5H8h1.2c0.2-0.1,0.3-0.3,0.3-0.5
	c0-0.4,0.1-0.8,0.1-1.2c0-0.1,0-0.1,0.1-0.1c0.5-0.1,1-0.3,1.4-0.6h0.1c0.3,0.3,0.7,0.5,1,0.8c0.2,0.2,0.5,0.2,0.7,0c0,0,0,0,0,0
	l1.4-1.4c0.2-0.2,0.2-0.5,0-0.7c0,0,0,0,0,0c-0.3-0.3-0.5-0.7-0.8-1v-0.1c0.2-0.4,0.4-0.9,0.6-1.3c0-0.1,0.1-0.1,0.2-0.1
	c0.4,0,0.8-0.1,1.1-0.1c0.3,0,0.5-0.1,0.6-0.4V6.7C15.9,6.5,15.7,6.4,15.5,6.4z M8,11.7c-2.2,0-4-1.8-4-4s1.8-4,4-4s4,1.8,4,4
	S10.2,11.7,8,11.7z"/>
</svg>
