<svg xmlns="http://www.w3.org/2000/svg" viewBox="0 0 14 19">
  <g id="Group_17" data-name="Group 17" transform="translate(-43.6)">
    <g id="Group_16" data-name="Group 16">
      <path id="Path_15" data-name="Path 15" d="M48.5,8.1A8.808,8.808,0,0,1,50.6,13a8.562,8.562,0,0,1-4.9-2.1A8.808,8.808,0,0,1,43.6,6,7.85,7.85,0,0,1,48.5,8.1Z"/>
      <path id="Path_16" data-name="Path 16" d="M52.7,8.1A8.808,8.808,0,0,0,50.6,13a8.562,8.562,0,0,0,4.9-2.1A8.562,8.562,0,0,0,57.6,6,7.85,7.85,0,0,0,52.7,8.1Z"/>
      <path id="Path_17" data-name="Path 17" d="M52.6,4a6.266,6.266,0,0,1-2,4,6.266,6.266,0,0,1-2-4,6.266,6.266,0,0,1,2-4A6.266,6.266,0,0,1,52.6,4Z"/>
    </g>
    <path id="Path_18" data-name="Path 18" d="M48.5,14.1A8.808,8.808,0,0,1,50.6,19a8.562,8.562,0,0,1-4.9-2.1A8.808,8.808,0,0,1,43.6,12,7.85,7.85,0,0,1,48.5,14.1Z"/>
    <path id="Path_19" data-name="Path 19" d="M52.7,14.1A8.808,8.808,0,0,0,50.6,19a8.562,8.562,0,0,0,4.9-2.1A8.562,8.562,0,0,0,57.6,12,7.85,7.85,0,0,0,52.7,14.1Z"/>
  </g>
</svg>
