<svg xmlns="http://www.w3.org/2000/svg" viewBox="0 0 12 16.1">
  <g id="Group_22" data-name="Group 22" transform="translate(-212 -4)">
    <path id="Path_25" data-name="Path 25" d="M223.4,5.4h-1.2V4.6a.645.645,0,0,0-.6-.6h-7.5a.645.645,0,0,0-.6.6v.8h-.9a.645.645,0,0,0-.6.6V7h12V5.9A.56.56,0,0,0,223.4,5.4Z"/>
    <path id="Path_26" data-name="Path 26" d="M212,8.4l1,10.1a1.831,1.831,0,0,0,1.8,1.6h6.3a1.831,1.831,0,0,0,1.8-1.6l1-10.1Zm5.4,8.1a.6.6,0,0,1-1.2,0V11.8a.6.6,0,0,1,1.2,0Zm2.4,0a.6.6,0,0,1-1.2,0V11.8a.6.6,0,0,1,1.2,0Z"/>
  </g>
</svg>
