<?xml version="1.0" standalone="no"?>
<!DOCTYPE svg PUBLIC "-//W3C//DTD SVG 1.1//EN" "http://www.w3.org/Graphics/SVG/1.1/DTD/svg11.dtd" >
<svg xmlns="http://www.w3.org/2000/svg" xmlns:xlink="http://www.w3.org/1999/xlink" version="1.1">
<metadata>
Created by FontForge 20170731 at Tue Nov 18 14:27:38 2014
 By Aleksey,,,
Copyright (c)2014 Commercial Type.
</metadata>
<defs>
<font id="DrukText-Bold" horiz-adv-x="356" >
  <font-face 
    font-family="Druk Text Bold"
    font-weight="700"
    font-stretch="normal"
    units-per-em="1000"
    panose-1="0 0 0 0 0 0 0 0 0 0"
    ascent="800"
    descent="-200"
    x-height="545"
    cap-height="744"
    bbox="-36 -209 1447 921.711"
    underline-thickness="91"
    underline-position="-200"
    unicode-range="U+0020-FB04"
  />
<missing-glyph horiz-adv-x="500" 
 />
    <glyph glyph-name="f_f" unicode="ff" horiz-adv-x="638" 
d="M256 0h-150v425h-86v120h86v102q0 110 116 110h107v-113h-37q-21 0 -28.5 -7.5t-7.5 -28.5v-63h123v102q0 110 116 110h124v-113h-54q-21 0 -28.5 -7.5t-7.5 -28.5v-63h90v-120h-90v-425h-150v425h-123v-425z" />
    <glyph glyph-name="f_i" unicode="fi" horiz-adv-x="609" 
d="M560 721v-134h-151v134h151zM560 545v-545h-151v545h151zM339 757v-113h-47q-21 0 -28.5 -7.5t-7.5 -28.5v-63h83v-120h-83v-425h-150v425h-86v120h86v102q0 110 116 110h117z" />
    <glyph glyph-name="f_l" unicode="fl" horiz-adv-x="609" 
d="M339 757v-113h-47q-21 0 -28.5 -7.5t-7.5 -28.5v-63h83v-120h-83v-425h-150v425h-86v120h86v102q0 110 116 110h117zM560 757v-757h-151v757h151z" />
    <glyph glyph-name="emdash.alt" unicode="&#x2014;&#x2014;" horiz-adv-x="1491" 
d="M1447 349v-97h-1403v97h1403z" />
    <glyph glyph-name=".notdef" horiz-adv-x="500" 
 />
    <glyph glyph-name=".null" horiz-adv-x="0" 
 />
    <glyph glyph-name="nonmarkingreturn" horiz-adv-x="333" 
 />
    <glyph glyph-name="space" unicode=" " horiz-adv-x="153" 
 />
    <glyph glyph-name="exclam" unicode="!" horiz-adv-x="254" 
d="M43 744h168l-47 -528h-75zM205 167v-167h-158v167h158z" />
    <glyph glyph-name="quotedbl" unicode="&#x22;" horiz-adv-x="405" 
d="M359 744v-244h-127v244h127zM173 744v-244h-127v244h127z" />
    <glyph glyph-name="numbersign" unicode="#" horiz-adv-x="526" 
d="M295 328l16 125h-81l-16 -125h81zM254 0l29 237h-80l-30 -237h-100l29 237h-84l12 91h84l15 125h-84l12 91h84l24 200h101l-25 -200h81l25 200h101l-25 -200h84l-11 -91h-85l-15 -125h84l-12 -91h-84l-30 -237h-100z" />
    <glyph glyph-name="dollar" unicode="$" horiz-adv-x="510" 
d="M183 577q0 -25 10.5 -42.5t36.5 -38.5v145q-26 -4 -36.5 -18t-10.5 -42v-4zM328 185q0 31 -10.5 51t-38.5 44v-169q49 10 49 67v7zM279 -75h-49v66q-104 2 -149 47.5t-45 129.5v97h145v-86q0 -60 49 -68v206l-82 59q-58 41 -85 84t-27 106v19q0 163 194 167v60h49v-60
q102 -1 144.5 -42.5t42.5 -124.5v-68h-141v53q0 32 -10 49t-36 21v-183l89 -65q61 -45 86.5 -89t25.5 -107v-17q0 -87 -49.5 -136.5t-151.5 -51.5v-66z" />
    <glyph glyph-name="percent" unicode="%" horiz-adv-x="792" 
d="M333 491q0 -64 -35.5 -99t-103.5 -35h-15q-139 0 -139 134v125q0 134 139 134h15q139 0 139 -134v-125zM535 744h95l-372 -744h-96zM186 447q39 0 39 44v126q0 45 -39 45q-38 0 -38 -45v-126q0 -44 38 -44zM752 129q0 -65 -35 -99.5t-103 -34.5h-15q-140 0 -140 134v125
q0 134 140 134h15q138 0 138 -134v-125zM606 85q38 0 38 44v126q0 45 -38 45t-38 -45v-126q0 -44 38 -44z" />
    <glyph glyph-name="ampersand" unicode="&#x26;" horiz-adv-x="629" 
d="M568 -16q-88 3 -140 46q-57 -39 -144 -39h-6q-118 0 -183 55t-65 151v16q0 69 35.5 114t98.5 81q-26 41 -37.5 60.5t-23.5 54t-12 65.5v9q0 155 186 155h17q182 0 182 -154v-6q0 -61 -35.5 -106t-110.5 -90l108 -171q11 83 11 197h141q-3 -167 -65 -291q30 -15 95 -19z
M238 592q0 -45 43 -118q30 33 41 57t11 56v5q0 59 -48 59q-47 0 -47 -55v-4zM303 104q29 0 54 10l-140 212q-36 -46 -36 -97v-6q0 -54 33 -86.5t89 -32.5z" />
    <glyph glyph-name="quotesingle" unicode="'" horiz-adv-x="221" 
d="M176 744v-244h-130v244h130z" />
    <glyph glyph-name="parenleft" unicode="(" horiz-adv-x="288" 
d="M38 342q0 245 136 466h98q-101 -213 -101 -464q0 -236 104 -475h-98q-139 226 -139 473z" />
    <glyph glyph-name="parenright" unicode=")" horiz-adv-x="288" 
d="M249 342q0 -245 -138 -473h-98q104 239 104 475q0 251 -101 464h98q135 -219 135 -466z" />
    <glyph glyph-name="asterisk" unicode="*" horiz-adv-x="431" 
d="M166 757h100l-18 -122l104 73l44 -84l-127 -45l127 -45l-44 -84l-104 74l18 -124h-100l18 124l-104 -74l-44 84l127 45l-127 45l44 84l104 -73z" />
    <glyph glyph-name="plus" unicode="+" horiz-adv-x="479" 
d="M441 255h-145v-156h-113v156h-145v102h145v155h113v-155h145v-102z" />
    <glyph glyph-name="comma" unicode="," horiz-adv-x="243" 
d="M162 -137h-91q33 74 39 137h-67v167h158v-128q0 -88 -39 -176z" />
    <glyph glyph-name="hyphen" unicode="-" horiz-adv-x="330" 
d="M44 366h242v-132h-242v132z" />
    <glyph glyph-name="period" unicode="." horiz-adv-x="243" 
d="M201 167v-167h-158v167h158z" />
    <glyph glyph-name="slash" unicode="/" horiz-adv-x="300" 
d="M276 808l-157 -939h-107l157 939h107z" />
    <glyph glyph-name="zero" unicode="0" horiz-adv-x="528" 
d="M478 546v-351q0 -101 -51 -153t-149 -52h-26q-202 0 -202 205v351q0 207 200 207h27q201 0 201 -207zM318 196v350q0 72 -54 72t-54 -72v-350q0 -70 55 -70q53 0 53 70z" />
    <glyph glyph-name="one" unicode="1" horiz-adv-x="345" 
d="M133 537h-109v123q70 0 98 18.5t39 65.5h130v-744h-158v537z" />
    <glyph glyph-name="two" unicode="2" horiz-adv-x="495" 
d="M458 0h-425v71q0 69 22 121.5t94 141.5q70 87 80 100q35 45 47 70t12 59v10q0 30 -10.5 43.5t-36.5 13.5q-46 0 -46 -57v-84h-145v99q0 164 180 164h22q105 0 151 -44t46 -129v-11q0 -62 -19 -105.5t-65 -94.5q-40 -44 -92 -98q-100 -102 -100 -143h142v120h143v-247z
" />
    <glyph glyph-name="three" unicode="3" horiz-adv-x="487" 
d="M190 521h-144v64q0 79 39.5 123t139.5 44h18q106 0 149 -40.5t43 -123.5v-52q0 -50 -21 -79.5t-49 -39.5q80 -23 80 -114v-132q0 -83 -47.5 -132t-146.5 -49h-24q-104 0 -145.5 46t-41.5 130v100h149v-86q0 -56 50 -56q46 0 46 56v103q0 26 -9 36t-33 10h-90v134h82
q25 0 34.5 10.5t9.5 35.5v67q0 27 -10 40t-35 13q-24 0 -34 -13t-10 -40v-55z" />
    <glyph glyph-name="four" unicode="4" horiz-adv-x="491" 
d="M24 279q127 276 206 469h153v-454h86v-132h-86v-162h-150v162h-209v117zM233 294v246q-45 -109 -105 -246h105z" />
    <glyph glyph-name="five" unicode="5" horiz-adv-x="490" 
d="M199 335h-147v409h382v-135h-236v-139q7 12 20 25t42 27t62 14h5q61 0 91.5 -37.5t30.5 -102.5v-225q0 -81 -47.5 -131t-143.5 -50h-25q-189 0 -189 167v106h151v-90q0 -51 47 -51t47 51v185q0 52 -44 52q-46 0 -46 -52v-23z" />
    <glyph glyph-name="six" unicode="6" horiz-adv-x="509" 
d="M338 477h5q62 0 94 -39.5t32 -103.5v-154q0 -86 -50.5 -138t-146.5 -52h-24q-103 0 -151 50.5t-48 139.5v387q0 87 46.5 136t144.5 49h24q101 0 145.5 -45.5t44.5 -130.5v-50h-158v40q0 56 -44 56q-43 0 -43 -56v-154q9 13 22 25.5t43 26t64 13.5zM209 182q0 -60 50 -60
t50 60v113q0 61 -50 61t-50 -59v-115z" />
    <glyph glyph-name="seven" unicode="7" horiz-adv-x="466" 
d="M41 744h388v-120q-3 -12 -10.5 -41t-20.5 -83.5t-28 -118.5q-50 -213 -50 -319v-62h-179v46q0 63 15 129t54 173q56 150 72.5 201.5t16.5 73.5h-119v-107h-139v228z" />
    <glyph glyph-name="eight" unicode="8" horiz-adv-x="504" 
d="M455 583v-50q0 -98 -78 -132q88 -39 88 -135v-94q0 -182 -200 -182h-28q-198 0 -198 182v94q0 97 86 135q-77 34 -77 132v50q0 83 44 126t148 43h23q102 0 147 -43.5t45 -125.5zM304 514v57q0 31 -12.5 44.5t-39.5 13.5q-52 0 -52 -58v-56q0 -60 52 -60t52 59zM306 184
v87q0 63 -54 63q-53 0 -53 -63v-87q0 -62 53 -62q54 0 54 62z" />
    <glyph glyph-name="nine" unicode="9" horiz-adv-x="509" 
d="M300 560q0 60 -51 60q-49 0 -49 -60v-113q0 -61 50 -61t50 59v115zM180 265h-6q-65 0 -99.5 41t-34.5 111v148q0 90 44.5 138.5t152.5 48.5h24q199 0 199 -190v-387q0 -185 -191 -185h-25q-105 0 -147 44t-42 130v52h159v-42q0 -28 9.5 -41t33.5 -13q43 0 43 56v154
q-45 -65 -120 -65z" />
    <glyph glyph-name="colon" unicode=":" horiz-adv-x="253" 
d="M206 464v-167h-158v167h158zM206 167v-167h-158v167h158z" />
    <glyph glyph-name="semicolon" unicode=";" horiz-adv-x="253" 
d="M167 -137h-91q33 74 39 137h-67v167h158v-128q0 -88 -39 -176zM206 464v-167h-158v167h158z" />
    <glyph glyph-name="less" unicode="&#x3c;" horiz-adv-x="431" 
d="M386 107l-344 143v106l344 143v-110l-227 -86l227 -87v-109z" />
    <glyph glyph-name="equal" unicode="=" horiz-adv-x="476" 
d="M43 433h390v-99h-390v99zM43 263h390v-99h-390v99z" />
    <glyph glyph-name="greater" unicode="&#x3e;" horiz-adv-x="431" 
d="M45 107v111l226 86l-226 86v109l344 -143v-106z" />
    <glyph glyph-name="question" unicode="?" horiz-adv-x="456" 
d="M271 216h-120v53q0 47 9 73t38 64l39 52q19 25 24.5 43t5.5 49v28q0 29 -10 41.5t-34 12.5q-43 0 -43 -54v-90h-142v96q0 79 39 124t132 45h27q183 0 183 -165v-39q0 -47 -13.5 -80.5t-44.5 -69.5l-52 -61q-24 -29 -31 -45.5t-7 -48.5v-28zM290 167v-167h-157v167h157z
" />
    <glyph glyph-name="at" unicode="@" horiz-adv-x="793" 
d="M624 18l53 -65q-30 -34 -99 -64t-169 -30h-8q-56 0 -102 8.5t-95.5 35t-83.5 70.5t-55.5 121.5t-21.5 181.5v45q0 202 91 304.5t271 102.5h12q168 0 251.5 -82.5t83.5 -257.5v-44q0 -87 -13.5 -148t-39.5 -95t-58 -48.5t-74 -14.5h-3q-96 0 -123 64q-41 -64 -113 -64h-4
q-56 0 -87 39t-27 108l15 221q9 137 111 137h4q71 0 110 -60l3 55h140l-25 -386q-3 -32 23 -32q68 0 68 222v46q0 77 -17 129t-51 79.5t-75.5 39t-98.5 11.5h-12q-128 0 -196.5 -77.5t-68.5 -250.5v-42q0 -88 17.5 -152.5t42.5 -99t63 -55t68.5 -25.5t69.5 -5h8
q78 0 132.5 24t82.5 54zM430 187l13 201q4 55 -39 55q-36 0 -39 -54l-13 -200q-4 -53 36 -53q39 0 42 51z" />
    <glyph glyph-name="A" unicode="A" horiz-adv-x="489" 
d="M282 249l-45 296l-45 -296h90zM320 0l-19 124h-128l-19 -124h-137l122 744h202l131 -744h-152z" />
    <glyph glyph-name="B" unicode="B" horiz-adv-x="517" 
d="M52 0v744h256q84 0 121 -36t37 -115v-57q0 -101 -73 -128q87 -31 87 -139v-99q0 -81 -42.5 -125.5t-125.5 -44.5h-260zM258 630h-52v-178h53q29 0 42 15.5t13 49.5v51q0 34 -12.5 48t-43.5 14zM261 334h-55v-215h56q32 0 45 15t13 51v82q0 36 -13.5 51.5t-45.5 15.5z" />
    <glyph glyph-name="C" unicode="C" horiz-adv-x="509" 
d="M260 124q54 0 54 71v118h152v-127q0 -87 -46 -141.5t-146 -54.5h-27q-199 0 -199 205v355q0 202 196 202h27q104 0 149.5 -48t45.5 -144v-95h-152v86q0 71 -54 71q-52 0 -52 -71v-355q0 -72 52 -72z" />
    <glyph glyph-name="D" unicode="D" horiz-adv-x="524" 
d="M52 0v744h241q95 0 138 -42.5t43 -140.5v-375q0 -97 -43 -141.5t-137 -44.5h-242zM211 621v-492h43q32 0 45.5 17.5t13.5 56.5v345q0 39 -13 56t-44 17h-45z" />
    <glyph glyph-name="E" unicode="E" horiz-adv-x="438" 
d="M52 744h347v-135h-196v-156h165v-138h-165v-178h202v-137h-353v744z" />
    <glyph glyph-name="F" unicode="F" horiz-adv-x="430" 
d="M52 0v744h346v-135h-195v-155h164v-139h-164v-315h-151z" />
    <glyph glyph-name="G" unicode="G" horiz-adv-x="516" 
d="M212 -10h-7q-75 0 -116 52t-41 133v380q0 197 198 197h24q105 0 148.5 -49t43.5 -137v-57h-149v44q0 69 -54 69q-53 0 -53 -69v-359q0 -75 59 -75t59 75v122h-68v124h213v-440h-99q-9 35 -24 71q-44 -81 -134 -81z" />
    <glyph glyph-name="H" unicode="H" horiz-adv-x="532" 
d="M52 0v744h159v-281h110v281h159v-744h-159v311h-110v-311h-159z" />
    <glyph glyph-name="I" unicode="I" horiz-adv-x="262" 
d="M211 744v-744h-159v744h159z" />
    <glyph glyph-name="J" unicode="J" horiz-adv-x="484" 
d="M38 331h146v-148q0 -31 10.5 -44.5t34.5 -13.5h2q23 0 33 14t10 44v561h160v-572q0 -180 -182 -180h-42q-89 0 -130.5 42t-41.5 128v169z" />
    <glyph glyph-name="K" unicode="K" horiz-adv-x="509" 
d="M208 0h-156v744h156v-317l126 317h156l-139 -341l149 -403h-162l-130 347v-347z" />
    <glyph glyph-name="L" unicode="L" horiz-adv-x="413" 
d="M52 744h158v-601h175v-143h-333v744z" />
    <glyph glyph-name="M" unicode="M" horiz-adv-x="651" 
d="M427 331l-68 -331h-72l-66 327q-28 136 -39 208q2 -124 2 -211v-324h-133v744h198l49 -258q23 -119 29 -170q11 74 29 170l50 258h193v-744h-135v331q0 143 2 200q-15 -82 -39 -200z" />
    <glyph glyph-name="N" unicode="N" horiz-adv-x="529" 
d="M306 431q30 -91 40 -131q-2 35 -2 133v311h133v-744h-135l-118 338q-35 104 -41 132q3 -57 3 -134v-336h-134v744h151z" />
    <glyph glyph-name="O" unicode="O" horiz-adv-x="530" 
d="M482 545v-345q0 -101 -51 -155.5t-153 -54.5h-25q-205 0 -205 210v345q0 208 204 208h25q205 0 205 -208zM322 200v343q0 75 -57 75t-57 -75v-343q0 -74 57 -74t57 74z" />
    <glyph glyph-name="P" unicode="P" horiz-adv-x="498" 
d="M297 288h-86v-288h-159v744h245q85 0 125.5 -37.5t40.5 -126.5v-126q0 -166 -166 -166zM211 626v-214h39q31 0 43.5 15t12.5 54v77q0 39 -12.5 53.5t-43.5 14.5h-39z" />
    <glyph glyph-name="Q" unicode="Q" horiz-adv-x="530" 
d="M207 -155v149q-159 22 -159 206v345q0 208 204 208h25q205 0 205 -208v-345q0 -178 -151 -205l68 -150h-192zM322 200v343q0 75 -57 75t-57 -75v-343q0 -74 57 -74t57 74z" />
    <glyph glyph-name="R" unicode="R" horiz-adv-x="513" 
d="M207 630v-190h49q55 0 55 64v64q0 34 -12 48t-43 14h-49zM207 318v-318h-155v744h265q149 0 149 -145v-69q0 -100 -77 -128q77 -28 77 -124v-196q0 -50 12 -77v-5h-154q-13 20 -13 75v176q0 36 -12.5 51.5t-41.5 15.5h-50z" />
    <glyph glyph-name="S" unicode="S" horiz-adv-x="488" 
d="M229 -9q-98 0 -146.5 42.5t-48.5 119.5v112h152v-91q0 -55 55 -55q53 0 53 63v7q0 34 -12.5 55.5t-43.5 46.5l-98 80q-51 41 -75.5 84.5t-24.5 105.5v21q0 83 49.5 127t147.5 44h23q190 0 190 -152v-87h-150v64q0 56 -50 56q-53 0 -53 -54v-5q0 -28 11.5 -46.5
t42.5 -45.5l98 -81q59 -48 84 -91t25 -110v-22q0 -85 -51 -136.5t-154 -51.5h-24z" />
    <glyph glyph-name="T" unicode="T" horiz-adv-x="449" 
d="M147 0v609h-119v135h393v-135h-119v-609h-155z" />
    <glyph glyph-name="U" unicode="U" horiz-adv-x="522" 
d="M273 -10h-26q-198 0 -198 191v563h158v-551q0 -64 54 -64t54 64v551h157v-563q0 -87 -49 -139t-150 -52z" />
    <glyph glyph-name="V" unicode="V" horiz-adv-x="495" 
d="M148 0l-129 744h161l72 -532l73 532h151l-125 -744h-203z" />
    <glyph glyph-name="W" unicode="W" horiz-adv-x="748" 
d="M400 260q-21 142 -25 196q-1 -13 -26 -196l-36 -260h-168l-126 744h157l44 -335q19 -144 23 -194q5 60 24 194l45 335h133l46 -334q19 -134 24 -195q3 51 23 194l44 335h148l-126 -744h-168z" />
    <glyph glyph-name="X" unicode="X" horiz-adv-x="494" 
d="M167 0h-156l128 394l-117 350h163l66 -236l65 236h154l-114 -354l127 -390h-159l-78 260z" />
    <glyph glyph-name="Y" unicode="Y" horiz-adv-x="459" 
d="M150 0v281l-141 463h159l67 -281l66 281h149l-135 -466v-278h-165z" />
    <glyph glyph-name="Z" unicode="Z" horiz-adv-x="463" 
d="M430 0h-393v121l209 490h-200v133h374v-119l-212 -490h222v-135z" />
    <glyph glyph-name="bracketleft" unicode="[" horiz-adv-x="275" 
d="M47 -131v939h203v-100h-82v-739h82v-100h-203z" />
    <glyph glyph-name="backslash" unicode="\" horiz-adv-x="300" 
d="M288 -131h-107l-158 939h108z" />
    <glyph glyph-name="bracketright" unicode="]" horiz-adv-x="275" 
d="M25 -131v100h81v739h-81v100h202v-939h-202z" />
    <glyph glyph-name="asciicircum" unicode="^" horiz-adv-x="370" 
d="M242 392l-58 233l-56 -233h-107l99 352h131l98 -352h-107z" />
    <glyph glyph-name="underscore" unicode="_" horiz-adv-x="461" 
d="M22 -121v101h417v-101h-417z" />
    <glyph glyph-name="grave" unicode="`" 
d="M256 579l-97 -16l-58 126l99 16z" />
    <glyph glyph-name="a" unicode="a" horiz-adv-x="471" 
d="M272 153v122q-29 -15 -62 -36q-31 -21 -31 -59v-30q0 -50 45 -50q21 0 34.5 15t13.5 38zM35 122v64q0 54 23 83.5t76 51.5q105 40 121 47q17 7 17 29v5q0 26 -10.5 38t-36.5 12h-2q-46 0 -46 -51v-33h-135v45q0 69 39.5 106t132.5 37h18q98 0 141 -35.5t43 -107.5v-263
q0 -15 5.5 -21t21.5 -6h11v-123h-120q-52 0 -59 62q-48 -67 -119 -67h-2q-54 0 -86.5 35.5t-32.5 91.5z" />
    <glyph glyph-name="b" unicode="b" horiz-adv-x="493" 
d="M49 757h151v-274q48 66 122 66h5q58 0 90 -36t32 -99v-269q0 -68 -37 -110t-101 -42h-4q-81 0 -129 77q-11 -36 -13 -70h-116v757zM248 105q49 0 49 62v205q0 66 -49 66q-48 0 -48 -66v-204q0 -63 48 -63z" />
    <glyph glyph-name="c" unicode="c" horiz-adv-x="467" 
d="M251 -11h-24q-184 0 -184 168v226q0 173 184 173h24q94 0 135 -41t41 -119v-57h-141v47q0 31 -10.5 45t-34.5 14q-47 0 -47 -59v-225q0 -59 46 -59t46 59v65h141v-74q0 -73 -43 -118t-133 -45z" />
    <glyph glyph-name="d" unicode="d" horiz-adv-x="494" 
d="M245 105q49 0 49 63v205q0 64 -49 64q-48 0 -48 -64v-205q0 -63 48 -63zM294 757h151v-757h-150v61q-40 -68 -117 -68h-4q-61 0 -95.5 40t-34.5 105v271q0 65 32.5 102.5t91.5 37.5h4q75 0 122 -59v267z" />
    <glyph glyph-name="e" unicode="e" horiz-adv-x="470" 
d="M189 400v-54h98v54q0 56 -49 56t-49 -56zM429 155q0 -80 -46.5 -123t-134.5 -43h-25q-88 0 -134 42.5t-46 125.5v229q0 82 45.5 126t136.5 44h26q178 0 178 -171v-129h-240v-102q0 -55 49 -55q48 0 48 55v50h143v-49z" />
    <glyph glyph-name="f" unicode="f" horiz-adv-x="368" 
d="M346 757v-113h-53q-21 0 -28 -7.5t-7 -28.5v-63h88v-120h-88v-425h-150v425h-86v120h86v102q0 110 116 110h122z" />
    <glyph glyph-name="g" unicode="g" horiz-adv-x="495" 
d="M245 107q50 0 50 64v203q0 64 -51 64q-48 0 -48 -64v-203q0 -64 49 -64zM295 -37v99q-16 -23 -46 -44t-73 -21h-2q-62 0 -96 39t-34 109v252q0 72 31.5 113t94.5 41h2q76 0 125 -66v62h149v-590q0 -152 -185 -152h-33q-99 0 -138 35t-39 104v21h146v-7q0 -23 10 -34
t37 -11h2q49 0 49 50z" />
    <glyph glyph-name="h" unicode="h" horiz-adv-x="498" 
d="M49 0v757h150v-275q44 68 124 68h5q60 0 91.5 -34t31.5 -91v-425h-152v373q0 61 -50 61t-50 -64v-370h-150z" />
    <glyph glyph-name="i" unicode="i" horiz-adv-x="249" 
d="M200 721v-134h-151v134h151zM200 545v-545h-151v545h151z" />
    <glyph glyph-name="j" unicode="j" horiz-adv-x="250" 
d="M201 721v-135h-151v135h151zM-35 -61h53q18 0 25 7.5t7 26.5v572h151v-623q0 -52 -25 -81t-74 -29h-137v127z" />
    <glyph glyph-name="k" unicode="k" horiz-adv-x="483" 
d="M200 0h-151v757h151v-426l111 214h156l-129 -242l142 -303h-161l-119 261v-261z" />
    <glyph glyph-name="l" unicode="l" horiz-adv-x="249" 
d="M200 757v-757h-151v757h151z" />
    <glyph glyph-name="m" unicode="m" horiz-adv-x="740" 
d="M199 0h-150v545h148v-66q8 14 20.5 27.5t41.5 28.5t62 15h6q84 0 110 -67q52 67 131 67h5q58 0 88.5 -33t30.5 -89v-428h-151v374q0 59 -47 59q-48 0 -48 -59v-374h-151v374q0 59 -48 59t-48 -62v-371z" />
    <glyph glyph-name="n" unicode="n" horiz-adv-x="498" 
d="M49 0v545h148v-66q8 13 20 26.5t42 29t64 15.5h5q60 0 91.5 -34t31.5 -91v-425h-152v373q0 61 -50 61t-50 -64v-370h-150z" />
    <glyph glyph-name="o" unicode="o" horiz-adv-x="490" 
d="M231 -11q-188 0 -188 176v215q0 176 188 176h28q94 0 141 -46t47 -130v-214q0 -82 -48 -129.5t-141 -47.5h-27zM245 104q50 0 50 61v216q0 61 -50 61t-50 -61v-216q0 -61 50 -61z" />
    <glyph glyph-name="p" unicode="p" horiz-adv-x="493" 
d="M248 105q49 0 49 63v206q0 63 -49 63q-48 0 -48 -63v-205q0 -64 48 -64zM49 545h151v-63q48 67 123 67h3q60 0 91.5 -37t31.5 -103v-266q0 -68 -35 -108t-91 -40h-5q-74 0 -118 54v-237h-151v733z" />
    <glyph glyph-name="q" unicode="q" horiz-adv-x="494" 
d="M337 545h108v-733h-151v251q-18 -27 -50 -47t-73 -20h-3q-55 0 -89.5 40.5t-34.5 102.5v263q0 65 34 106t99 41h5q83 0 135 -76q16 44 20 72zM245 105q23 0 36 17t13 48v202q0 65 -49 65q-48 0 -48 -65v-202q0 -65 48 -65z" />
    <glyph glyph-name="r" unicode="r" horiz-adv-x="450" 
d="M200 378v-378h-151v545h148v-65q45 70 113 70h5q104 0 104 -119v-150h-140v97q0 55 -39 55q-40 0 -40 -55z" />
    <glyph glyph-name="s" unicode="s" horiz-adv-x="436" 
d="M200 -11q-170 0 -170 141v61h137v-43q0 -52 48 -52q47 0 47 45v1q0 22 -9.5 35t-34.5 27l-84 49q-52 28 -76 64t-24 91v6q0 141 174 141h24q91 0 129.5 -33.5t38.5 -100.5v-44h-134v28q0 28 -11 39t-37 11q-45 0 -45 -39q0 -18 10 -30t32 -25l93 -57q53 -31 75.5 -66.5
t22.5 -91.5v-6q0 -68 -43.5 -109.5t-132.5 -41.5h-30z" />
    <glyph glyph-name="t" unicode="t" horiz-adv-x="376" 
d="M346 0h-144q-95 0 -95 93v332h-85v120h85v176h150v-176h89v-120h-89v-274q0 -17 6.5 -24t23.5 -7h59v-120z" />
    <glyph glyph-name="u" unicode="u" horiz-adv-x="493" 
d="M444 545v-545h-148v66q-14 -24 -48 -47.5t-76 -23.5h-6q-54 0 -86 33.5t-32 87.5v429h152v-380q0 -56 46 -56q48 0 48 59v377h150z" />
    <glyph glyph-name="v" unicode="v" horiz-adv-x="445" 
d="M130 0l-117 545h152l60 -383l59 383h147l-114 -545h-187z" />
    <glyph glyph-name="w" unicode="w" horiz-adv-x="676" 
d="M340 323q-6 -43 -27 -150l-35 -173h-150l-115 545h151l30 -197q20 -128 23 -161q5 38 27 162l35 196h128l35 -196q20 -117 26 -162q5 45 23 161l30 197h142l-110 -545h-152l-35 173q-22 113 -26 150z" />
    <glyph glyph-name="x" unicode="x" horiz-adv-x="444" 
d="M154 0h-146l112 286l-110 259h154l59 -175l60 175h147l-106 -259l112 -286h-150l-66 188z" />
    <glyph glyph-name="y" unicode="y" horiz-adv-x="449" 
d="M46 -188v123h68q15 0 21.5 5.5t8.5 19.5l2 8q2 22 -9 69l-124 508h153l63 -366l59 366h147l-143 -638q-11 -50 -36 -72.5t-71 -22.5h-139z" />
    <glyph glyph-name="z" unicode="z" horiz-adv-x="403" 
d="M370 0h-337v108l164 318h-156v119h323v-106l-165 -317h171v-122z" />
    <glyph glyph-name="braceleft" unicode="{" horiz-adv-x="295" 
d="M271 -131h-75q-138 0 -138 108q0 36 29 136.5t29 129.5q0 45 -48 45h-32v106h29q51 0 51 40q0 30 -29 130.5t-29 135.5q0 108 138 108h75v-98h-46q-44 0 -44 -38q0 -20 25.5 -111.5t25.5 -125.5q0 -38 -17.5 -61t-60.5 -33q78 -20 78 -98q0 -35 -25.5 -127t-25.5 -111
q0 -38 44 -38h46v-98z" />
    <glyph glyph-name="bar" unicode="|" horiz-adv-x="228" 
d="M167 808v-939h-105v939h105z" />
    <glyph glyph-name="braceright" unicode="}" horiz-adv-x="295" 
d="M98 -131h-73v98h46q44 0 44 38q0 19 -25.5 111t-25.5 127q0 79 78 98q-43 10 -60.5 33t-17.5 61q0 34 25.5 125.5t25.5 111.5q0 38 -44 38h-46v98h73q139 0 139 -109q0 -36 -28.5 -135.5t-28.5 -129.5q0 -40 50 -40h29v-106h-32q-47 0 -47 -45q0 -29 28.5 -129t28.5 -136
q0 -109 -139 -109z" />
    <glyph glyph-name="asciitilde" unicode="~" horiz-adv-x="410" 
d="M113 507q31 0 53 -12.5t50 -41.5q29 -31 36.5 -37.5t13.5 -6.5q13 0 13 18v81h102v-124q0 -102 -84 -102q-31 0 -53 13t-50 41l-8 8q-35 34 -43 35q-12 0 -12 -18v-81h-102v124q0 103 84 103z" />
    <glyph glyph-name="exclamdown" unicode="&#xa1;" horiz-adv-x="252" 
d="M210 -200h-166l47 528h74zM50 377v167h156v-167h-156z" />
    <glyph glyph-name="cent" unicode="&#xa2;" horiz-adv-x="475" 
d="M268 -75h-48v64q-177 6 -177 175v218q0 168 177 173v62h48v-62q167 -4 167 -159v-55h-126v37q0 33 -8.5 49t-32.5 20v-347q23 5 31.5 21t8.5 48v56h127v-76q0 -66 -40 -111.5t-127 -48.5v-64zM178 169q0 -32 9.5 -48.5t32.5 -20.5v347q-23 -4 -32.5 -20.5t-9.5 -48.5
v-209z" />
    <glyph glyph-name="sterling" unicode="&#xa3;" horiz-adv-x="558" 
d="M521 242v-242h-491v94h6q38 13 65.5 45.5t27.5 85.5v1q0 32 -7 90h-92v103h77q-10 72 -10 126v31q1 86 46 131t150 45h23q104 0 143 -44t39 -122v-90h-144v69q0 33 -11.5 47.5t-37.5 14.5q-27 0 -38 -15t-11 -48v-40q0 -33 4 -105h163v-103h-156q1 -16 1 -44
q0 -102 -65 -151h174v121h144z" />
    <glyph glyph-name="yen" unicode="&#xa5;" horiz-adv-x="492" 
d="M169 0v206h-127v76h127v51h-127v76h104l-126 335h159l72 -239l72 239h144l-117 -335h107v-76h-128v-51h129v-76h-129v-206h-160z" />
    <glyph glyph-name="brokenbar" unicode="&#xa6;" horiz-adv-x="228" 
d="M167 808v-400h-105v400h105zM167 317v-448h-105v448h105z" />
    <glyph glyph-name="section" unicode="&#xa7;" horiz-adv-x="538" 
d="M230 258l99 -63q33 15 33 49v4q0 23 -12 38t-48 39l-100 60q-31 -13 -31 -46v-4q0 -22 12.5 -38t46.5 -39zM270 -195h-23q-97 0 -139.5 40.5t-42.5 119.5v85h149v-68q0 -57 48 -57q46 0 46 58v4q0 34 -12.5 51.5t-56.5 45.5l-106 65q-59 36 -82.5 71t-23.5 89v12
q0 91 100 120q-49 54 -49 137v14q0 160 190 160h22q102 0 142.5 -38.5t40.5 -117.5v-68h-147v55q0 27 -10.5 39t-36.5 12q-47 0 -47 -48v-4q0 -27 14 -45t49 -40l107 -65q64 -40 86 -72.5t22 -87.5v-12q0 -92 -100 -122q32 -29 44 -61.5t12 -82.5v-14q0 -175 -196 -175z" />
    <glyph glyph-name="dieresis" unicode="&#xa8;" 
d="M306 676v-113h-115v113h115zM167 676v-113h-116v113h116z" />
    <glyph glyph-name="copyright" unicode="&#xa9;" horiz-adv-x="705" 
d="M657 262q0 -138 -75 -206t-215 -68h-29q-140 0 -215 67.5t-75 205.5v224q0 133 75.5 202t215.5 69h27q139 0 215 -69t76 -202v-223zM340 60h25q210 0 210 203v219q0 103 -51 152.5t-159 49.5h-25q-108 0 -159 -49.5t-51 -152.5v-219q0 -203 210 -203zM320 258
q0 -46 35 -46t35 46v77h117v-83q0 -63 -34.5 -101.5t-109.5 -38.5h-18q-150 0 -150 147v227q0 146 149 146h18q145 0 145 -138v-59h-119v52q0 25 -7.5 36t-26.5 11t-26.5 -11t-7.5 -36v-229z" />
    <glyph glyph-name="ordfeminine" unicode="&#xaa;" horiz-adv-x="385" 
d="M219 541q-2 -1 -21.5 -11t-25.5 -14q-26 -17 -26 -46v-12q0 -37 35 -37q18 0 28 11.5t10 29.5v79zM325 641v-192q0 -16 15 -16h11v-88h-93q-36 0 -39 47q-11 -18 -34 -34.5t-53 -16.5h-1q-41 0 -66 26.5t-25 66.5v45q0 38 18 60t56 37q12 5 48 17.5t43 15.5q14 5 14 25v4
q0 34 -37 34h-1q-36 0 -36 -36v-23h-100v29q0 52 29.5 79.5t100.5 27.5h11q75 0 107 -26.5t32 -81.5z" />
    <glyph glyph-name="guillemotleft" unicode="&#xab;" horiz-adv-x="447" 
d="M157 285l70 -173h-120l-62 139v68l60 139h121zM342 285l68 -173h-121l-70 173l70 173h121z" />
    <glyph glyph-name="registered" unicode="&#xae;" horiz-adv-x="465" 
d="M425 489q0 -85 -46.5 -129.5t-136.5 -44.5h-19q-90 0 -137 44.5t-47 129.5v95q0 172 184 172h19q183 0 183 -172v-95zM374 577q0 72 -30.5 103t-102.5 31h-17q-72 0 -102.5 -31t-30.5 -103v-80q0 -70 30.5 -103t102.5 -33h17q72 0 102.5 33t30.5 103v80zM213 508v-106
h-67v270h110q67 0 67 -63v-17q0 -40 -33 -50q32 -10 32 -48v-59q0 -17 6 -29v-4h-66q-6 8 -6 30v51q0 25 -22 25h-21zM213 622v-62h21q22 0 22 27v9q0 15 -5 20.5t-17 5.5h-21z" />
    <glyph glyph-name="macron" unicode="&#xaf;" 
d="M70 573v92h216v-92h-216z" />
    <glyph glyph-name="degree" unicode="&#xb0;" horiz-adv-x="405" 
d="M203 755q74 0 120 -45t46 -114q0 -70 -46 -115.5t-120 -45.5t-120.5 45.5t-46.5 115.5q0 69 46.5 114t120.5 45zM203 529q29 0 46.5 18.5t17.5 48.5q0 29 -17.5 47.5t-46.5 18.5t-46.5 -18.5t-17.5 -47.5q0 -30 17.5 -48.5t46.5 -18.5z" />
    <glyph glyph-name="acute" unicode="&#xb4;" 
d="M94 563l46 142h122l-49 -142h-119z" />
    <glyph glyph-name="paragraph" unicode="&#xb6;" horiz-adv-x="503" 
d="M188 0v345h-12q-78 0 -113 37t-35 118v95q0 79 34.5 114t113.5 35h315v-98h-50v-646h-95v646h-62v-646h-96z" />
    <glyph glyph-name="periodcentered" unicode="&#xb7;" horiz-adv-x="238" 
d="M194 232h-151v161h151v-161z" />
    <glyph glyph-name="cedilla" unicode="&#xb8;" 
d="M267 -114q0 -39 -28 -59.5t-75 -20.5h-75v67h53q24 0 24 16v1q0 16 -24 16h-36v94h67v-37h4q42 0 66 -19t24 -55v-3z" />
    <glyph glyph-name="ordmasculine" unicode="&#xba;" horiz-adv-x="388" 
d="M200 341h-11q-144 0 -144 133v141q0 134 144 134h11q144 0 144 -134v-141q0 -133 -144 -133zM194 660q-39 0 -39 -45v-139q0 -45 39 -45t39 45v139q0 45 -39 45z" />
    <glyph glyph-name="guillemotright" unicode="&#xbb;" horiz-adv-x="448" 
d="M106 285l-69 173h122l69 -173l-68 -173h-123zM291 285l-69 173h119l62 -139v-68l-60 -139h-121z" />
    <glyph glyph-name="onequarter" unicode="&#xbc;" horiz-adv-x="704" 
d="M376 151q118 201 143 248h107v-234h59v-90h-59v-78h-107v78h-143v76zM499 744h95l-434 -744h-94zM98 613h-71v82q43 0 62.5 11.5t27.5 38.5h90v-402h-109v270zM519 165v123l-69 -123h69z" />
    <glyph glyph-name="onehalf" unicode="&#xbd;" horiz-adv-x="742" 
d="M559 325q-18 0 -25 -9.5t-7 -29.5v-29h-102v39q0 50 28.5 78t98.5 28h15q137 0 137 -106v-4q0 -34 -14 -57t-45 -47l-67 -46q-68 -48 -68 -63h100v52h101v-134h-295v43q0 41 13 69t63 72q52 45 61 53q25 20 32 31t7 26v1q0 33 -33 33zM499 744h95l-434 -744h-94zM98 613
h-71v82q43 0 62.5 11.5t27.5 38.5h90v-402h-109v270z" />
    <glyph glyph-name="threequarters" unicode="&#xbe;" horiz-adv-x="784" 
d="M141 621h-101v25q0 47 25.5 74.5t98.5 27.5h14q75 0 106 -25t31 -71v-12q0 -56 -52 -68q58 -13 58 -78v-44q0 -50 -33 -81t-104 -31h-17q-76 0 -104 28.5t-28 79.5v36h105v-24q0 -33 35 -33q34 0 34 33v23q0 16 -6 22t-23 6h-64v86h61q17 0 22.5 6t5.5 21v17q0 31 -33 31
q-31 0 -31 -31v-18zM456 151q118 201 143 248h107v-234h59v-90h-59v-78h-107v78h-143v76zM580 744h95l-434 -744h-94zM599 165v123l-69 -123h69z" />
    <glyph glyph-name="questiondown" unicode="&#xbf;" horiz-adv-x="465" 
d="M190 328h125v-53q0 -47 -9 -73t-40 -64l-41 -52q-19 -24 -25 -42.5t-6 -49.5v-28q0 -29 10.5 -41.5t35.5 -12.5q45 0 45 54v90h148v-96q0 -79 -40 -124t-138 -45h-29q-191 0 -191 165v39q0 47 14 80.5t47 69.5l54 61q26 29 33 45.5t7 48.5v28zM170 377v167h164v-167h-164
z" />
    <glyph glyph-name="AE" unicode="&#xc6;" horiz-adv-x="677" 
d="M307 259v366l-89 -366h89zM307 0v130h-121l-31 -130h-151l195 744h440v-135h-181v-156h149v-138h-149v-178h187v-137h-338z" />
    <glyph glyph-name="Eth" unicode="&#xd0;" horiz-adv-x="538" 
d="M66 0v323h-52v122h52v299h241q95 0 138 -42.5t43 -140.5v-375q0 -97 -43 -141.5t-137 -44.5h-242zM225 621v-176h58v-122h-58v-194h43q32 0 45.5 17.5t13.5 56.5v345q0 39 -13 56t-44 17h-45z" />
    <glyph glyph-name="multiply" unicode="&#xd7;" horiz-adv-x="446" 
d="M340 112l-118 118l-115 -118l-73 69l117 120l-118 118l73 75l117 -119l115 119l74 -70l-118 -120l119 -120z" />
    <glyph glyph-name="Oslash" unicode="&#xd8;" horiz-adv-x="530" 
d="M254 -10q-80 0 -127 39l-16 -29h-86l47 89q-24 45 -24 111v345q0 208 203 208h25q83 0 126 -38l15 29h87l-45 -89q23 -46 23 -110v-345q0 -101 -51 -155.5t-152 -54.5h-25zM206 458q0 -50 -2 -140l117 254q-10 47 -56 47q-59 0 -59 -78v-83zM265 125q58 0 58 76v81
q0 75 3 145l-118 -253q10 -49 57 -49z" />
    <glyph glyph-name="Thorn" unicode="&#xde;" horiz-adv-x="505" 
d="M313 169h-104v-169h-157v744h157v-149h104q80 0 119 -37.5t39 -118.5v-111q0 -159 -158 -159zM209 477v-189h50q29 0 41.5 15t12.5 50v62q0 34 -12.5 48t-41.5 14h-50z" />
    <glyph glyph-name="germandbls" unicode="&#xdf;" horiz-adv-x="498" 
d="M375 445q83 -19 83 -121v-180q0 -73 -34.5 -108.5t-108.5 -35.5h-73v125h22q22 0 30 9.5t8 32.5v142q0 25 -7.5 34.5t-30.5 9.5h-22v123h20q21 0 29.5 10.5t8.5 35.5v69q0 58 -49 58h-3q-48 0 -48 -57v-592h-151v599q0 166 184 166h30q99 0 140 -40.5t41 -114.5v-61
q0 -46 -22 -71.5t-47 -32.5z" />
    <glyph glyph-name="ae" unicode="&#xe6;" horiz-adv-x="698" 
d="M419 399v-52h96v52q0 56 -48 56t-48 -56zM272 150v116q-34 -18 -61 -36q-31 -22 -31 -59v-24q0 -50 44 -50q21 0 34.5 15t13.5 38zM657 154q0 -80 -46.5 -123t-133.5 -43h-23q-118 0 -158 74q-48 -71 -131 -71h-2q-60 0 -93.5 35.5t-33.5 92.5v59q0 53 22.5 82.5
t75.5 51.5q13 5 59 22.5t62 24.5q11 5 14 10.5t3 18.5v14q0 26 -10.5 38t-36.5 12h-2q-46 0 -46 -51v-41h-135v53q0 143 168 143h18q89 0 123 -42q33 41 107 41h25q81 0 127.5 -41.5t46.5 -129.5v-128h-238v-102q0 -56 48 -56q47 0 47 55v52h143v-51z" />
    <glyph glyph-name="eth" unicode="&#xf0;" horiz-adv-x="491" 
d="M233 -11q-190 0 -190 176v230q0 69 32.5 109.5t87.5 40.5h3q72 0 122 -55l-74 116l-117 -42v73l78 29l-59 91h155l30 -46l102 37v-74l-63 -23l47 -71q34 -52 47.5 -95t13.5 -115v-204q0 -77 -47 -127t-145 -50h-23zM245 104q51 0 51 61v217q0 59 -51 59q-50 0 -50 -59
v-217q0 -61 50 -61z" />
    <glyph glyph-name="divide" unicode="&#xf7;" horiz-adv-x="476" 
d="M308 548v-133h-140v133h140zM38 358h400v-104h-400v104zM308 193v-133h-140v133h140z" />
    <glyph glyph-name="oslash" unicode="&#xf8;" horiz-adv-x="490" 
d="M231 -11q-68 0 -116 33l-15 -22h-73l43 64q-27 42 -27 101v215q0 83 46 129.5t141 46.5h28q71 0 114 -34l15 23h76l-44 -65q28 -42 28 -100v-214q0 -82 -48.5 -129.5t-139.5 -47.5h-28zM194 357q0 -48 -2 -118l101 169q-9 34 -48 34q-51 0 -51 -61v-24zM245 104
q51 0 51 61v24q0 22 0.5 61.5t0.5 55.5l-100 -168q9 -34 48 -34z" />
    <glyph glyph-name="thorn" unicode="&#xfe;" horiz-adv-x="493" 
d="M248 105q49 0 49 63v204q0 66 -49 66q-48 0 -48 -66v-203q0 -64 48 -64zM449 143q0 -68 -35 -108t-91 -40h-5q-74 0 -118 54v-237h-151v945h151v-274q49 66 121 66h5q59 0 91 -36t32 -102v-268z" />
    <glyph glyph-name="dcaron" unicode="&#x10f;" horiz-adv-x="494" 
d="M481 592l11 165h108l-16 -165h-103zM245 105q49 0 49 63v205q0 64 -49 64q-48 0 -48 -64v-205q0 -63 48 -63zM294 757h151v-757h-150v61q-40 -68 -117 -68h-4q-61 0 -95.5 40t-34.5 105v271q0 65 32.5 102.5t91.5 37.5h4q75 0 122 -59v267z" />
    <glyph glyph-name="dcroat" unicode="&#x111;" horiz-adv-x="494" 
d="M294 757h151v-71h57v-91h-57v-595h-150v61q-40 -68 -117 -68h-4q-61 0 -95.5 40t-34.5 105v271q0 65 32.5 102.5t91.5 37.5h4q75 0 122 -59v105h-115v91h115v71zM245 105q49 0 49 63v205q0 64 -49 64q-48 0 -48 -64v-205q0 -63 48 -63z" />
    <glyph glyph-name="Hbar" unicode="&#x126;" horiz-adv-x="542" 
d="M326 555h-110v-92h110v92zM57 0v555h-54v95h54v94h159v-94h110v94h159v-94h54v-95h-54v-555h-159v311h-110v-311h-159z" />
    <glyph glyph-name="hbar" unicode="&#x127;" horiz-adv-x="498" 
d="M49 0v595h-58v91h58v71h150v-71h115v-91h-115v-113q44 68 124 68h5q60 0 91.5 -34t31.5 -91v-425h-152v373q0 61 -50 61t-50 -64v-370h-150z" />
    <glyph glyph-name="dotlessi" unicode="&#x131;" horiz-adv-x="249" 
d="M200 545v-545h-151v545h151z" />
    <glyph glyph-name="IJ" unicode="&#x132;" horiz-adv-x="748" 
d="M211 744v-744h-159v744h159zM301 331h146v-148q0 -31 10.5 -44.5t34.5 -13.5h2q23 0 33 14t10 44v561h160v-572q0 -180 -182 -180h-42q-89 0 -130.5 42t-41.5 128v169z" />
    <glyph glyph-name="ij" unicode="&#x133;" horiz-adv-x="500" 
d="M200 721v-134h-151v134h151zM200 545v-545h-151v545h151zM451 721v-135h-151v135h151zM215 -61h53q18 0 25 7.5t7 26.5v572h151v-623q0 -52 -25 -81t-74 -29h-137v127z" />
    <glyph glyph-name="Lcaron" unicode="&#x13d;" horiz-adv-x="413" 
d="M249 579l11 165h108l-16 -165h-103zM52 744h158v-601h175v-143h-333v744z" />
    <glyph glyph-name="lcaron" unicode="&#x13e;" horiz-adv-x="249" 
d="M236 592l11 165h108l-16 -165h-103zM200 757v-757h-151v757h151z" />
    <glyph glyph-name="Ldot" unicode="&#x13f;" horiz-adv-x="454" 
d="M434 306h-151v161h151v-161zM52 744h158v-601h175v-143h-333v744z" />
    <glyph glyph-name="Lslash" unicode="&#x141;" horiz-adv-x="429" 
d="M67 744h158v-296l123 74v-115l-123 -72v-192h175v-143h-333v244l-64 -37v108l64 38v391z" />
    <glyph glyph-name="lslash" unicode="&#x142;" horiz-adv-x="281" 
d="M216 757v-238l58 30v-102l-58 -30v-417h-151v338l-57 -29v101l57 30v317h151z" />
    <glyph glyph-name="eng" unicode="&#x14b;" horiz-adv-x="498" 
d="M451 425v-503q0 -52 -25.5 -81t-75.5 -29h-136v127h54q18 0 24.5 7.5t6.5 26.5v400q0 61 -50 61t-50 -64v-370h-150v545h148v-66q8 13 20 26.5t42 29t64 15.5h5q60 0 91.5 -34t31.5 -91z" />
    <glyph glyph-name="OE" unicode="&#x152;" horiz-adv-x="692" 
d="M322 546q0 73 -56 73t-56 -73v-348q0 -72 56 -72t56 72v348zM329 61q-8 -14 -19.5 -27.5t-41 -28.5t-64.5 -15h-5q-72 0 -111.5 47t-39.5 135v398q0 86 38.5 134t111.5 48h5q83 0 126 -66v58h325v-135h-180v-156h148v-138h-148v-178h186v-137h-331v61z" />
    <glyph glyph-name="oe" unicode="&#x153;" horiz-adv-x="725" 
d="M444 400v-54h97v54q0 56 -48 56q-49 0 -49 -56zM244 104q50 0 50 61v216q0 61 -50 61q-49 0 -49 -61v-216q0 -61 49 -61zM247 -11h-26q-89 0 -133.5 47t-44.5 129v215q0 83 45 129.5t135 46.5h26q80 0 120 -42q42 42 119 42h25q79 0 124.5 -41.5t45.5 -129.5v-129h-239
v-102q0 -55 49 -55q47 0 47 55v50h143v-49q0 -80 -45 -123t-127 -43h-24q-82 0 -119 46q-42 -46 -121 -46z" />
    <glyph glyph-name="tcaron" unicode="&#x165;" horiz-adv-x="376" 
d="M293 592l11 165h108l-16 -165h-103zM346 0h-144q-95 0 -95 93v332h-85v120h85v176h150v-176h89v-120h-89v-274q0 -17 6.5 -24t23.5 -7h59v-120z" />
    <glyph glyph-name="Tbar" unicode="&#x166;" horiz-adv-x="449" 
d="M59 354v103h88v152h-119v135h393v-135h-119v-152h88v-103h-88v-354h-155v354h-88z" />
    <glyph glyph-name="tbar" unicode="&#x167;" horiz-adv-x="384" 
d="M350 120v-120h-144q-95 0 -95 93v151h-84v99h84v82h-84v120h84v176h151v-176h88v-120h-88v-82h88v-99h-88v-93q0 -17 6 -24t23 -7h59z" />
    <glyph glyph-name="uni0192" unicode="&#x192;" horiz-adv-x="397" 
d="M361 360h-103l-36 -548h-148l36 548h-84v119h92l9 151q5 59 33.5 86.5t91.5 27.5h110v-117h-48q-23 0 -31 -8t-10 -31l-7 -109h95v-119z" />
    <glyph glyph-name="uni021A" unicode="&#x21a;" horiz-adv-x="0" 
 />
    <glyph glyph-name="uni021B" unicode="&#x21b;" horiz-adv-x="0" 
 />
    <glyph glyph-name="uni0237" unicode="&#x237;" horiz-adv-x="249" 
d="M-36 -61h53q18 0 25 7.5t7 26.5v572h151v-623q0 -110 -100 -110h-136v127z" />
    <glyph glyph-name="circumflex" unicode="&#x2c6;" 
d="M241 705l68 -142h-106l-26 65l-26 -65h-103l67 142h126z" />
    <glyph glyph-name="caron" unicode="&#x2c7;" 
d="M115 563l-66 142h104l26 -65l26 65h103l-67 -142h-126z" />
    <glyph glyph-name="breve" unicode="&#x2d8;" 
d="M301 676q0 -55 -33 -85t-87 -30h-3q-58 0 -90.5 29.5t-32.5 85.5v8h98v-6q0 -35 26 -35h1q25 0 25 35v6h96v-8z" />
    <glyph glyph-name="dotaccent" unicode="&#x2d9;" 
d="M253 696v-133h-151v133h151z" />
    <glyph glyph-name="ring" unicode="&#x2da;" 
d="M179 565q-36 0 -60 22.5t-24 56.5t24 56t60 22t59.5 -22t23.5 -56t-23.5 -56.5t-59.5 -22.5zM179 604q18 0 29.5 10.5t11.5 28.5q0 17 -11.5 28.5t-29.5 11.5t-30 -11.5t-12 -28.5q0 -18 12 -28.5t30 -10.5z" />
    <glyph glyph-name="ogonek" unicode="&#x2db;" 
d="M102 -123v13q0 48 80 110h71q-45 -51 -45 -80v-4q0 -21 27 -21h18v-83h-67q-37 0 -60.5 17.5t-23.5 47.5z" />
    <glyph glyph-name="tilde" unicode="&#x2dc;" 
d="M216 687h83v-59q0 -29 -14.5 -46t-41.5 -17h-2q-29 0 -65 18q-26 12 -28 12q-7 0 -7 -11v-22h-84v61q0 29 15 45.5t42 16.5h2q26 0 63 -17q28 -13 30 -13q7 0 7 10v22z" />
    <glyph glyph-name="hungarumlaut" unicode="&#x2dd;" 
d="M245 563l-76 14l-3 -14h-100l30 140h101l-11 -51l17 51l85 -15z" />
    <glyph glyph-name="uni2009" unicode="&#x2009;" horiz-adv-x="0" 
 />
    <glyph glyph-name="endash" unicode="&#x2013;" horiz-adv-x="526" 
d="M44 349h438v-97h-438v97z" />
    <glyph glyph-name="emdash" unicode="&#x2014;" horiz-adv-x="789" 
d="M44 349h701v-97h-701v97z" />
    <glyph glyph-name="quoteleft" unicode="&#x2018;" horiz-adv-x="237" 
d="M78 743h90q-28 -68 -37 -139h64v-152h-153v112q0 95 36 179z" />
    <glyph glyph-name="quoteright" unicode="&#x2019;" horiz-adv-x="237" 
d="M159 453h-90q28 68 37 139h-64v152h153v-112q0 -95 -36 -179z" />
    <glyph glyph-name="quotesinglbase" unicode="&#x201a;" horiz-adv-x="237" 
d="M159 -138h-90q28 68 37 139h-64v152h153v-112q0 -95 -36 -179z" />
    <glyph glyph-name="quotedblleft" unicode="&#x201c;" horiz-adv-x="442" 
d="M283 743h90q-28 -68 -37 -139h64v-152h-153v112q0 95 36 179zM78 743h90q-28 -68 -37 -139h64v-152h-153v112q0 95 36 179z" />
    <glyph glyph-name="quotedblright" unicode="&#x201d;" horiz-adv-x="442" 
d="M364 453h-90q28 68 37 139h-64v152h153v-112q0 -95 -36 -179zM159 453h-90q28 68 37 139h-64v152h153v-112q0 -95 -36 -179z" />
    <glyph glyph-name="quotedblbase" unicode="&#x201e;" horiz-adv-x="442" 
d="M363 -138h-90q28 68 37 139h-64v152h153v-112q0 -95 -36 -179zM159 -138h-90q28 68 37 139h-64v152h153v-112q0 -95 -36 -179z" />
    <glyph glyph-name="dagger" unicode="&#x2020;" horiz-adv-x="375" 
d="M115 0v474h-83v127h83v143h145v-143h83v-127h-83v-474h-145z" />
    <glyph glyph-name="daggerdbl" unicode="&#x2021;" horiz-adv-x="385" 
d="M265 0h-145v147h-83v127h83v200h-83v127h83v143h145v-143h83v-127h-83v-200h83v-127h-83v-147z" />
    <glyph glyph-name="bullet" unicode="&#x2022;" horiz-adv-x="338" 
d="M169 195q-58 0 -96 38t-38 96t38 96t96 38t96 -38t38 -96t-38 -96t-96 -38z" />
    <glyph glyph-name="ellipsis" unicode="&#x2026;" horiz-adv-x="708" 
d="M666 166v-166h-157v166h157zM432 166v-166h-156v166h156zM199 166v-166h-156v166h156z" />
    <glyph glyph-name="perthousand" unicode="&#x2030;" horiz-adv-x="1144" 
d="M1104 129q0 -65 -35 -99.5t-103 -34.5h-15q-140 0 -140 134v125q0 134 140 134h15q138 0 138 -134v-125zM958 85q38 0 38 44v126q0 45 -38 45t-38 -45v-126q0 -44 38 -44zM333 491q0 -64 -35.5 -99t-103.5 -35h-15q-139 0 -139 134v125q0 134 139 134h15q139 0 139 -134
v-125zM535 744h95l-372 -744h-96zM186 447q39 0 39 44v126q0 45 -39 45q-38 0 -38 -45v-126q0 -44 38 -44zM752 129q0 -65 -35 -99.5t-103 -34.5h-15q-140 0 -140 134v125q0 134 140 134h15q138 0 138 -134v-125zM606 85q38 0 38 44v126q0 45 -38 45t-38 -45v-126
q0 -44 38 -44z" />
    <glyph glyph-name="uni2032" unicode="&#x2032;" horiz-adv-x="217" 
d="M192 744l-41 -245h-126l39 245h128z" />
    <glyph glyph-name="uni2033" unicode="&#x2033;" horiz-adv-x="398" 
d="M373 744l-44 -244h-125l42 244h127zM190 744l-40 -244h-125l38 244h127z" />
    <glyph glyph-name="guilsinglleft" unicode="&#x2039;" horiz-adv-x="275" 
d="M161 285l77 -173h-125l-68 139v68l68 139h125z" />
    <glyph glyph-name="guilsinglright" unicode="&#x203a;" horiz-adv-x="275" 
d="M115 285l-78 173h126l67 -139v-68l-67 -139h-126z" />
    <glyph glyph-name="fraction" unicode="&#x2044;" horiz-adv-x="546" 
d="M442 744h95l-434 -744h-94z" />
    <glyph glyph-name="Euro" unicode="&#x20ac;" horiz-adv-x="556" 
d="M292 -10q-202 0 -202 205v87h-70v77h70v51h-70v75h70v65q0 99 47 150.5t152 51.5h27q105 0 152 -48t47 -144v-35h-153v27q0 70 -56 70t-56 -70v-67h163v-75h-163v-51h164v-77h-164v-87q0 -71 56 -71t56 70v47h153v-55q0 -89 -46 -142.5t-150 -53.5h-27z" />
    <glyph glyph-name="trademark" unicode="&#x2122;" horiz-adv-x="596" 
d="M230 666h-54v-258h-94v258h-54v78h202v-78zM265 408v336h112l33 -171l32 171h108v-336h-77v209l-44 -209h-44l-44 209v-209h-76z" />
    <glyph glyph-name="onethird" unicode="&#x2153;" horiz-adv-x="747" 
d="M533 275h-101v25q0 47 25.5 74.5t98.5 27.5h14q75 0 106 -25t31 -71v-12q0 -56 -52 -68q58 -13 58 -78v-44q0 -50 -33 -81t-104 -31h-17q-76 0 -104 28.5t-28 79.5v36h105v-24q0 -33 35 -33q34 0 34 33v23q0 16 -6 22t-23 6h-64v86h61q17 0 22.5 6t5.5 21v17q0 31 -33 31
q-31 0 -31 -31v-18zM98 613h-71v82q43 0 62.5 11.5t27.5 38.5h90v-402h-109v270zM499 744h95l-434 -744h-94z" />
    <glyph glyph-name="twothirds" unicode="&#x2154;" horiz-adv-x="847" 
d="M327 343h-295v43q0 41 13 69t63 72q52 45 61 53q25 20 32 31t7 26v1q0 33 -33 33q-18 0 -25 -9.5t-7 -29.5v-29h-102v39q0 50 28.5 78t98.5 28h15q137 0 137 -106v-4q0 -34 -14 -57t-45 -47l-67 -46q-68 -48 -68 -63h100v52h101v-134zM633 275h-101v25q0 47 25.5 74.5
t98.5 27.5h14q75 0 106 -25t31 -71v-12q0 -56 -52 -68q58 -13 58 -78v-44q0 -50 -33 -81t-104 -31h-17q-76 0 -104 28.5t-28 79.5v36h105v-24q0 -33 35 -33q34 0 34 33v23q0 16 -6 22t-23 6h-64v86h61q17 0 22.5 6t5.5 21v17q0 31 -33 31q-31 0 -31 -31v-18zM599 744h95
l-434 -744h-94z" />
    <glyph glyph-name="oneeighth" unicode="&#x215b;" horiz-adv-x="758" 
d="M725 104q0 -112 -139 -112h-20q-74 0 -106 28t-32 84v22q0 62 58 83q-53 19 -53 81v15q0 97 135 97h16q136 0 136 -97v-15q0 -62 -54 -81q59 -22 59 -83v-22zM613 276v15q0 35 -37 35q-36 0 -36 -35v-15q0 -34 37 -34q36 0 36 34zM576 172q-37 0 -37 -36v-25
q0 -36 37 -36q38 0 38 36v25q0 36 -38 36zM98 613h-71v82q43 0 62.5 11.5t27.5 38.5h90v-402h-109v270zM500 744h95l-434 -744h-94z" />
    <glyph glyph-name="threeeighths" unicode="&#x215c;" horiz-adv-x="835" 
d="M802 104q0 -112 -139 -112h-20q-74 0 -106 28t-32 84v22q0 62 58 83q-53 19 -53 81v15q0 97 135 97h16q136 0 136 -97v-15q0 -62 -54 -81q59 -22 59 -83v-22zM690 276v15q0 35 -37 35q-36 0 -36 -35v-15q0 -34 37 -34q36 0 36 34zM653 172q-37 0 -37 -36v-25
q0 -36 37 -36q38 0 38 36v25q0 36 -38 36zM580 744h95l-434 -744h-94zM141 621h-101v25q0 47 25.5 74.5t98.5 27.5h14q75 0 106 -25t31 -71v-12q0 -56 -52 -68q58 -13 58 -78v-44q0 -50 -33 -81t-104 -31h-17q-76 0 -104 28.5t-28 79.5v36h105v-24q0 -33 35 -33q34 0 34 33
v23q0 16 -6 22t-23 6h-64v86h61q17 0 22.5 6t5.5 21v17q0 31 -33 31q-31 0 -31 -31v-18z" />
    <glyph glyph-name="fiveeighths" unicode="&#x215d;" horiz-adv-x="839" 
d="M806 104q0 -112 -139 -112h-20q-74 0 -106 28t-32 84v22q0 62 58 83q-53 19 -53 81v15q0 97 135 97h16q136 0 136 -97v-15q0 -62 -54 -81q59 -22 59 -83v-22zM694 276v15q0 35 -37 35q-36 0 -36 -35v-15q0 -34 37 -34q36 0 36 34zM657 172q-37 0 -37 -36v-25
q0 -36 37 -36q38 0 38 36v25q0 36 -38 36zM584 744h95l-434 -744h-94zM150 516h-104v228h268v-85h-166v-69q34 39 85 39h3q44 0 66.5 -25t22.5 -67v-89q0 -51 -34 -80.5t-103 -29.5h-17q-131 0 -131 101v42h107v-27q0 -31 32 -31q31 0 31 31v64q0 33 -31 33q-29 0 -29 -33
v-2z" />
    <glyph glyph-name="seveneighths" unicode="&#x215e;" horiz-adv-x="783" 
d="M750 104q0 -112 -139 -112h-20q-74 0 -106 28t-32 84v22q0 62 58 83q-53 19 -53 81v15q0 97 135 97h16q136 0 136 -97v-15q0 -62 -54 -81q59 -22 59 -83v-22zM638 276v15q0 35 -37 35q-36 0 -36 -35v-15q0 -34 37 -34q36 0 36 34zM601 172q-37 0 -37 -36v-25
q0 -36 37 -36q38 0 38 36v25q0 36 -38 36zM35 744h268v-77q-2 -6 -9 -26.5t-16 -49t-17 -57.5q-30 -98 -30 -165v-26h-131v22q0 39 10.5 70t39.5 90q64 129 64 138h-82v-53h-97v134zM528 744h95l-434 -744h-94z" />
    <glyph glyph-name="minus" unicode="&#x2212;" horiz-adv-x="466" 
d="M38 358h390v-104h-390v104z" />
    <glyph glyph-name="uni24C5" unicode="&#x24c5;" horiz-adv-x="705" 
d="M657 262q0 -138 -75 -206t-215 -68h-29q-140 0 -215 67.5t-75 205.5v224q0 133 75.5 202t215.5 69h27q139 0 215 -69t76 -202v-223zM340 60h25q210 0 210 203v219q0 103 -51 152.5t-159 49.5h-25q-108 0 -159 -49.5t-51 -152.5v-219q0 -203 210 -203zM399 312h-67v-191
h-116v503h183q116 0 116 -116v-79q0 -117 -116 -117zM332 534v-132h29q21 0 30 9t9 31v53q0 22 -9 30.5t-30 8.5h-29z" />
    <glyph glyph-name="f_b" unicode="&#xe227;" horiz-adv-x="853" 
d="M409 757h151v-274q48 66 122 66h5q58 0 90 -36t32 -99v-269q0 -68 -37 -110t-101 -42h-4q-81 0 -129 77q-11 -36 -13 -70h-116v757zM608 105q49 0 49 62v205q0 66 -49 66q-48 0 -48 -66v-204q0 -63 48 -63zM339 757v-113h-47q-21 0 -28.5 -7.5t-7.5 -28.5v-63h83v-120
h-83v-425h-150v425h-86v120h86v102q0 110 116 110h117z" />
    <glyph glyph-name="f_f_b" unicode="&#xe228;" horiz-adv-x="1127" 
d="M682 757h151v-274q48 66 122 66h5q58 0 90 -36t32 -99v-269q0 -68 -37 -110t-101 -42h-4q-81 0 -129 77q-11 -36 -13 -70h-116v757zM881 105q49 0 49 62v205q0 66 -49 66q-48 0 -48 -66v-204q0 -63 48 -63zM256 0h-150v425h-86v120h86v102q0 110 116 110h107v-113h-37
q-21 0 -28.5 -7.5t-7.5 -28.5v-63h123v102q0 110 116 110h118v-113h-48q-21 0 -28.5 -7.5t-7.5 -28.5v-63h84v-120h-84v-425h-150v425h-123v-425z" />
    <glyph glyph-name="f_f_h" unicode="&#xe229;" horiz-adv-x="1132" 
d="M682 0v757h150v-275q44 68 124 68h5q60 0 91.5 -34t31.5 -91v-425h-152v373q0 61 -50 61t-50 -64v-370h-150zM256 0h-150v425h-86v120h86v102q0 110 116 110h107v-113h-37q-21 0 -28.5 -7.5t-7.5 -28.5v-63h123v102q0 110 116 110h118v-113h-48q-21 0 -28.5 -7.5
t-7.5 -28.5v-63h84v-120h-84v-425h-150v425h-123v-425z" />
    <glyph glyph-name="f_f_j" unicode="&#xe22a;" horiz-adv-x="883" 
d="M834 721v-135h-151v135h151zM598 -61h53q18 0 25 7.5t7 26.5v572h151v-623q0 -52 -25 -81t-74 -29h-137v127zM256 0h-150v425h-86v120h86v102q0 110 116 110h107v-113h-37q-21 0 -28.5 -7.5t-7.5 -28.5v-63h123v102q0 110 116 110h118v-113h-48q-21 0 -28.5 -7.5
t-7.5 -28.5v-63h84v-120h-84v-425h-150v425h-123v-425z" />
    <glyph glyph-name="f_f_k" unicode="&#xe22b;" horiz-adv-x="1117" 
d="M833 0h-151v757h151v-426l111 214h156l-129 -242l142 -303h-161l-119 261v-261zM256 0h-150v425h-86v120h86v102q0 110 116 110h107v-113h-37q-21 0 -28.5 -7.5t-7.5 -28.5v-63h123v102q0 110 116 110h118v-113h-48q-21 0 -28.5 -7.5t-7.5 -28.5v-63h84v-120h-84v-425
h-150v425h-123v-425z" />
    <glyph glyph-name="f_h" unicode="&#xe22c;" horiz-adv-x="859" 
d="M409 0v757h150v-275q44 68 124 68h5q60 0 91.5 -34t31.5 -91v-425h-152v373q0 61 -50 61t-50 -64v-370h-150zM339 757v-113h-47q-21 0 -28.5 -7.5t-7.5 -28.5v-63h83v-120h-83v-425h-150v425h-86v120h86v102q0 110 116 110h117z" />
    <glyph glyph-name="f_j" unicode="&#xe22d;" horiz-adv-x="610" 
d="M561 721v-135h-151v135h151zM325 -61h53q18 0 25 7.5t7 26.5v572h151v-623q0 -52 -25 -81t-74 -29h-137v127zM339 757v-113h-47q-21 0 -28.5 -7.5t-7.5 -28.5v-63h83v-120h-83v-425h-150v425h-86v120h86v102q0 110 116 110h117z" />
    <glyph glyph-name="f_k" unicode="&#xe22e;" horiz-adv-x="844" 
d="M560 0h-151v757h151v-426l111 214h156l-129 -242l142 -303h-161l-119 261v-261zM339 757v-113h-47q-21 0 -28.5 -7.5t-7.5 -28.5v-63h83v-120h-83v-425h-150v425h-86v120h86v102q0 110 116 110h117z" />
    <glyph glyph-name="E.alt" unicode="&#xe484;" horiz-adv-x="431" 
d="M52 744h338v-135h-187v-156h179v-138h-179v-178h191v-137h-342v744z" />
    <glyph glyph-name="F.alt" unicode="&#xe485;" horiz-adv-x="417" 
d="M52 0v744h331v-135h-180v-155h174v-139h-174v-315h-151z" />
    <glyph glyph-name="J.alt" unicode="&#xe489;" horiz-adv-x="343" 
d="M25 0v143h66q23 0 32 9.5t9 32.5v559h160v-607q0 -137 -131 -137h-136z" />
    <glyph glyph-name="a.alt" unicode="&#xe4c0;" horiz-adv-x="464" 
d="M272 275q-29 -15 -62 -36q-31 -21 -31 -59v-30q0 -50 45 -50q21 0 34.5 15t13.5 38v122zM416 413v-268q0 -99 14 -139v-6h-146q-9 24 -10 62q-16 -24 -46.5 -45.5t-71.5 -21.5h-2q-54 0 -86.5 35t-32.5 92v64q0 54 23 83.5t76 51.5q105 40 121 47q17 7 17 29v5
q0 26 -10.5 38t-36.5 12h-2q-46 0 -46 -51v-33h-135v45q0 69 39.5 106t132.5 37h18q98 0 141 -35.5t43 -107.5z" />
    <glyph glyph-name="r.alt" unicode="&#xe4d1;" horiz-adv-x="380" 
d="M199 545v-80q38 84 115 84h4q20 0 36 -4v-162q-28 7 -63 7h-4q-45 0 -65.5 -14.5t-20.5 -49.5v-326h-152v545h150z" />
    <glyph glyph-name="f_f_i" unicode="&#xfb03;" horiz-adv-x="882" 
d="M833 721v-134h-151v134h151zM833 545v-545h-151v545h151zM256 0h-150v425h-86v120h86v102q0 110 116 110h107v-113h-37q-21 0 -28.5 -7.5t-7.5 -28.5v-63h123v102q0 110 116 110h118v-113h-48q-21 0 -28.5 -7.5t-7.5 -28.5v-63h84v-120h-84v-425h-150v425h-123v-425z" />
    <glyph glyph-name="f_f_l" unicode="&#xfb04;" horiz-adv-x="882" 
d="M256 0h-150v425h-86v120h86v102q0 110 116 110h107v-113h-37q-21 0 -28.5 -7.5t-7.5 -28.5v-63h123v102q0 110 116 110h118v-113h-48q-21 0 -28.5 -7.5t-7.5 -28.5v-63h84v-120h-84v-425h-150v425h-123v-425zM833 757v-757h-151v757h151z" />
    <glyph glyph-name="space_uni0326" 
d="M216 -207h-64q14 37 15 70h-50v112h123v-73q0 -51 -24 -109z" />
    <glyph glyph-name="zero.num" horiz-adv-x="379" 
d="M195 338h-12q-143 0 -143 135v141q0 135 143 135h12q143 0 143 -135v-141q0 -135 -143 -135zM188 660q-36 0 -36 -46v-139q0 -46 36 -46q38 0 38 46v139q0 46 -38 46z" />
    <glyph glyph-name="one.num" horiz-adv-x="255" 
d="M98 613h-71v82q43 0 62.5 11.5t27.5 38.5h90v-402h-109v270z" />
    <glyph glyph-name="two.num" horiz-adv-x="360" 
d="M327 343h-295v43q0 41 13 69t63 72q52 45 61 53q25 20 32 31t7 26v1q0 33 -33 33q-18 0 -25 -9.5t-7 -29.5v-29h-102v39q0 50 28.5 78t98.5 28h15q137 0 137 -106v-4q0 -34 -14 -57t-45 -47l-67 -46q-68 -48 -68 -63h100v52h101v-134z" />
    <glyph glyph-name="three.num" horiz-adv-x="357" 
d="M141 621h-101v25q0 47 25.5 74.5t98.5 27.5h14q75 0 106 -25t31 -71v-12q0 -56 -52 -68q58 -13 58 -78v-44q0 -50 -33 -81t-104 -31h-17q-76 0 -104 28.5t-28 79.5v36h105v-24q0 -33 35 -33q34 0 34 33v23q0 16 -6 22t-23 6h-64v86h61q17 0 22.5 6t5.5 21v17q0 31 -33 31
q-31 0 -31 -31v-18z" />
    <glyph glyph-name="four.num" horiz-adv-x="355" 
d="M24 497q118 201 143 248h107v-234h59v-90h-59v-78h-107v78h-143v76zM167 511v123l-69 -123h69z" />
    <glyph glyph-name="five.num" horiz-adv-x="361" 
d="M150 516h-104v228h268v-85h-166v-69q34 39 85 39h3q44 0 66.5 -25t22.5 -67v-89q0 -51 -34 -80.5t-103 -29.5h-17q-131 0 -131 101v42h107v-27q0 -31 32 -31q31 0 31 31v64q0 33 -31 33q-29 0 -29 -33v-2z" />
    <glyph glyph-name="six.num" horiz-adv-x="371" 
d="M242 600h3q45 0 67.5 -25.5t22.5 -67.5v-49q0 -55 -33.5 -87.5t-104.5 -32.5h-17q-140 0 -140 123v161q0 126 134 126h17q75 0 104 -29t29 -85v-11h-110v7q0 37 -32 37q-30 0 -30 -37v-69q27 39 90 39zM152 458q0 -36 36 -36q35 0 35 36v31q0 38 -35 38q-36 0 -36 -38
v-31z" />
    <glyph glyph-name="seven.num" horiz-adv-x="336" 
d="M35 744h268v-77q-2 -6 -9 -26.5t-16 -49t-17 -57.5q-30 -98 -30 -165v-26h-131v22q0 39 10.5 70t39.5 90q64 129 64 138h-82v-53h-97v134z" />
    <glyph glyph-name="eight.num" horiz-adv-x="368" 
d="M333 450q0 -112 -139 -112h-20q-74 0 -106 28t-32 84v22q0 62 58 83q-53 19 -53 81v15q0 97 135 97h16q136 0 136 -97v-15q0 -62 -54 -81q59 -22 59 -83v-22zM221 622v15q0 35 -37 35q-36 0 -36 -35v-15q0 -34 37 -34q36 0 36 34zM184 518q-37 0 -37 -36v-25
q0 -36 37 -36q38 0 38 36v25q0 36 -38 36z" />
    <glyph glyph-name="nine.num" horiz-adv-x="371" 
d="M218 627q0 38 -36 38q-35 0 -35 -38v-30q0 -38 35 -38q36 0 36 38v30zM132 486h-3q-47 0 -70.5 27.5t-23.5 72.5v45q0 117 138 117h16q141 0 141 -123v-160q0 -127 -134 -127h-17q-75 0 -103.5 28.5t-28.5 83.5v13h110v-7q0 -19 6.5 -27.5t24.5 -8.5t24.5 8.5t6.5 27.5
v69q-27 -39 -87 -39z" />
    <glyph glyph-name="zero.den" horiz-adv-x="379" 
d="M195 -8h-12q-143 0 -143 135v141q0 135 143 135h12q143 0 143 -135v-141q0 -135 -143 -135zM188 314q-36 0 -36 -46v-139q0 -46 36 -46q38 0 38 46v139q0 46 -38 46z" />
    <glyph glyph-name="one.den" horiz-adv-x="255" 
d="M98 267h-71v82q43 0 62.5 11.5t27.5 38.5h90v-402h-109v270z" />
    <glyph glyph-name="two.den" horiz-adv-x="360" 
d="M175 325q-18 0 -25 -9.5t-7 -29.5v-29h-102v39q0 50 28.5 78t98.5 28h15q137 0 137 -106v-4q0 -34 -14 -57t-45 -47l-67 -46q-68 -48 -68 -63h100v52h101v-134h-295v43q0 41 13 69t63 72q52 45 61 53q25 20 32 31t7 26v1q0 33 -33 33z" />
    <glyph glyph-name="three.den" horiz-adv-x="357" 
d="M141 275h-101v25q0 47 25.5 74.5t98.5 27.5h14q75 0 106 -25t31 -71v-12q0 -56 -52 -68q58 -13 58 -78v-44q0 -50 -33 -81t-104 -31h-17q-76 0 -104 28.5t-28 79.5v36h105v-24q0 -33 35 -33q34 0 34 33v23q0 16 -6 22t-23 6h-64v86h61q17 0 22.5 6t5.5 21v17q0 31 -33 31
q-31 0 -31 -31v-18z" />
    <glyph glyph-name="four.den" horiz-adv-x="355" 
d="M24 151q118 201 143 248h107v-234h59v-90h-59v-78h-107v78h-143v76zM167 165v123l-69 -123h69z" />
    <glyph glyph-name="five.den" horiz-adv-x="361" 
d="M150 170h-104v228h268v-85h-166v-69q34 39 85 39h3q44 0 66.5 -25t22.5 -67v-89q0 -51 -34 -80.5t-103 -29.5h-17q-131 0 -131 101v42h107v-27q0 -31 32 -31q31 0 31 31v64q0 33 -31 33q-29 0 -29 -33v-2z" />
    <glyph glyph-name="six.den" horiz-adv-x="371" 
d="M242 254h3q45 0 67.5 -25.5t22.5 -67.5v-49q0 -55 -33.5 -87.5t-104.5 -32.5h-17q-140 0 -140 123v161q0 126 134 126h17q75 0 104 -29t29 -85v-11h-110v7q0 37 -32 37q-30 0 -30 -37v-69q27 39 90 39zM152 112q0 -36 36 -36q35 0 35 36v31q0 38 -35 38q-36 0 -36 -38
v-31z" />
    <glyph glyph-name="seven.den" horiz-adv-x="336" 
d="M35 398h268v-77q-2 -6 -9 -26.5t-16 -49t-17 -57.5q-30 -98 -30 -165v-26h-131v22q0 39 10.5 70t39.5 90q64 129 64 138h-82v-53h-97v134z" />
    <glyph glyph-name="eight.den" horiz-adv-x="368" 
d="M333 104q0 -112 -139 -112h-20q-74 0 -106 28t-32 84v22q0 62 58 83q-53 19 -53 81v15q0 97 135 97h16q136 0 136 -97v-15q0 -62 -54 -81q59 -22 59 -83v-22zM221 276v15q0 35 -37 35q-36 0 -36 -35v-15q0 -34 37 -34q36 0 36 34zM184 172q-37 0 -37 -36v-25
q0 -36 37 -36q38 0 38 36v25q0 36 -38 36z" />
    <glyph glyph-name="nine.den" horiz-adv-x="371" 
d="M218 281q0 38 -36 38q-35 0 -35 -38v-30q0 -38 35 -38q36 0 36 38v30zM132 140h-3q-47 0 -70.5 27.5t-23.5 72.5v45q0 117 138 117h16q141 0 141 -123v-160q0 -127 -134 -127h-17q-75 0 -103.5 28.5t-28.5 83.5v13h110v-7q0 -19 6.5 -27.5t24.5 -8.5t24.5 8.5t6.5 27.5
v69q-27 -39 -87 -39z" />
    <glyph glyph-name="zero.sub" horiz-adv-x="417" 
d="M214 -138h-12q-158 0 -158 148v156q0 148 158 148h12q159 0 159 -148v-156q0 -148 -159 -148zM208 216q-40 0 -40 -50v-154q0 -51 40 -51q41 0 41 51v154q0 50 -41 50z" />
    <glyph glyph-name="one.sub" horiz-adv-x="281" 
d="M108 165h-79v90q48 0 69.5 12.5t30.5 42.5h99v-442h-120v297z" />
    <glyph glyph-name="two.sub" horiz-adv-x="397" 
d="M360 -132h-325v46q0 46 14.5 76.5t69.5 79.5l67 58q27 22 35 34t8 29q0 37 -36 37q-20 0 -27.5 -10t-7.5 -32v-33h-113v44q0 116 140 116h16q151 0 151 -116v-6q0 -37 -15 -62t-50 -51q-35 -25 -74 -51q-74 -53 -74 -70h110v58h111v-147z" />
    <glyph glyph-name="three.sub" horiz-adv-x="393" 
d="M155 173h-111v28q0 51 28 81.5t109 30.5h15q83 0 116.5 -27.5t33.5 -78.5v-12q0 -61 -57 -76q65 -13 65 -86v-48q0 -55 -36.5 -89t-115.5 -34h-18q-83 0 -114 31t-31 87v40h115v-26q0 -37 39 -37q37 0 37 37v25q0 18 -6.5 24.5t-25.5 6.5h-71v95h68q18 0 24.5 7t6.5 22
v19q0 35 -36 35q-35 0 -35 -35v-20z" />
    <glyph glyph-name="four.sub" horiz-adv-x="390" 
d="M26 37q154 266 158 273h117v-258h66v-99h-66v-85h-117v85h-158v84zM184 52v135l-76 -135h76z" />
    <glyph glyph-name="five.sub" horiz-adv-x="398" 
d="M165 58h-115v251h295v-94h-182v-75q33 43 93 43h4q48 0 73 -28t25 -73v-99q0 -56 -37.5 -88.5t-112.5 -32.5h-19q-145 0 -145 111v47h118v-30q0 -35 35 -35q34 0 34 35v71q0 35 -34 35q-32 0 -32 -35v-3z" />
    <glyph glyph-name="six.sub" horiz-adv-x="408" 
d="M266 150h4q49 0 74 -28.5t25 -73.5v-54q0 -60 -37 -96t-115 -36h-19q-154 0 -154 136v176q0 139 148 139h18q83 0 114.5 -32t31.5 -94v-12h-121v8q0 41 -34 41t-34 -41v-76q31 43 99 43zM168 -6q0 -40 38 -40q40 0 40 40v33q0 42 -40 42q-38 0 -38 -41v-34z" />
    <glyph glyph-name="seven.sub" horiz-adv-x="370" 
d="M39 309h294v-84q-2 -8 -18 -56.5t-28 -90.5q-33 -107 -33 -182v-28h-144v24q0 43 11.5 77.5t43.5 98.5q70 140 70 152h-90v-59h-106v148z" />
    <glyph glyph-name="eight.sub" horiz-adv-x="406" 
d="M366 -15q0 -61 -35.5 -92t-116.5 -31h-22q-81 0 -117 31t-36 92v24q0 65 64 92q-22 7 -40 28.5t-18 60.5v16q0 107 148 107h19q149 0 149 -107v-16q0 -38 -18.5 -60t-40.5 -29q64 -24 64 -92v-24zM244 175v16q0 38 -42 38q-40 0 -40 -38v-16q0 -38 41 -38t41 38zM202 60
q-41 0 -41 -40v-27q0 -39 41 -39q42 0 42 39v27q0 40 -42 40z" />
    <glyph glyph-name="nine.sub" horiz-adv-x="408" 
d="M241 180q0 41 -40 41q-39 0 -39 -41v-33q0 -42 39 -42q40 0 40 42v33zM145 25h-4q-51 0 -76.5 30t-25.5 79v50q0 129 151 129h18q156 0 156 -135v-177q0 -139 -148 -139h-19q-83 0 -114 31t-31 93v13h121v-8q0 -20 7 -29.5t26 -9.5q20 0 27.5 9.5t7.5 29.5v76
q-34 -42 -96 -42z" />
    <glyph glyph-name="zero.sup" horiz-adv-x="417" 
d="M214 310h-12q-158 0 -158 148v156q0 148 158 148h12q159 0 159 -148v-156q0 -148 -159 -148zM208 664q-40 0 -40 -50v-154q0 -51 40 -51q41 0 41 51v154q0 50 -41 50z" />
    <glyph glyph-name="one.sup" horiz-adv-x="281" 
d="M108 613h-79v90q48 0 69.5 12.5t30.5 42.5h99v-442h-120v297z" />
    <glyph glyph-name="two.sup" horiz-adv-x="397" 
d="M360 316h-325v46q0 46 14.5 76.5t69.5 79.5l67 58q27 22 35 34t8 29q0 37 -36 37q-20 0 -27.5 -10t-7.5 -32v-33h-113v44q0 116 140 116h16q151 0 151 -116v-6q0 -37 -15 -62t-50 -51q-35 -25 -74 -51q-74 -53 -74 -70h110v58h111v-147z" />
    <glyph glyph-name="three.sup" horiz-adv-x="393" 
d="M155 621h-111v28q0 51 28 81.5t109 30.5h15q83 0 116.5 -27.5t33.5 -78.5v-12q0 -61 -57 -76q65 -13 65 -86v-48q0 -55 -36.5 -89t-115.5 -34h-18q-83 0 -114 31t-31 87v40h115v-26q0 -37 39 -37q37 0 37 37v25q0 18 -6.5 24.5t-25.5 6.5h-71v95h68q18 0 24.5 7t6.5 22
v19q0 35 -36 35q-35 0 -35 -35v-20z" />
    <glyph glyph-name="four.sup" horiz-adv-x="390" 
d="M26 485q154 266 158 273h117v-258h66v-99h-66v-85h-117v85h-158v84zM184 500v135l-76 -135h76z" />
    <glyph glyph-name="five.sup" horiz-adv-x="398" 
d="M165 506h-115v251h295v-94h-182v-75q33 43 93 43h4q48 0 73 -28t25 -73v-99q0 -56 -37.5 -88.5t-112.5 -32.5h-19q-145 0 -145 111v47h118v-30q0 -35 35 -35q34 0 34 35v71q0 35 -34 35q-32 0 -32 -35v-3z" />
    <glyph glyph-name="six.sup" horiz-adv-x="408" 
d="M266 598h4q49 0 74 -28.5t25 -73.5v-54q0 -60 -37 -96t-115 -36h-19q-154 0 -154 136v176q0 139 148 139h18q83 0 114.5 -32t31.5 -94v-12h-121v8q0 41 -34 41t-34 -41v-76q31 43 99 43zM168 442q0 -40 38 -40q40 0 40 40v33q0 42 -40 42q-38 0 -38 -41v-34z" />
    <glyph glyph-name="seven.sup" horiz-adv-x="370" 
d="M39 757h294v-84q-2 -8 -18 -56.5t-28 -90.5q-33 -106 -33 -182v-28h-144v24q0 43 11.5 77.5t43.5 98.5q70 140 70 152h-90v-59h-106v148z" />
    <glyph glyph-name="eight.sup" horiz-adv-x="406" 
d="M366 433q0 -61 -35.5 -92t-116.5 -31h-22q-81 0 -117 31t-36 92v24q0 65 64 92q-22 7 -40 28.5t-18 60.5v16q0 107 148 107h19q149 0 149 -107v-16q0 -38 -18.5 -60t-40.5 -29q64 -24 64 -92v-24zM244 623v16q0 38 -42 38q-40 0 -40 -38v-16q0 -38 41 -38t41 38zM202 508
q-41 0 -41 -40v-27q0 -39 41 -39q42 0 42 39v27q0 40 -42 40z" />
    <glyph glyph-name="nine.sup" horiz-adv-x="408" 
d="M241 628q0 41 -40 41q-39 0 -39 -41v-33q0 -42 39 -42q40 0 40 42v33zM145 473h-4q-51 0 -76.5 30t-25.5 79v50q0 129 151 129h18q156 0 156 -135v-177q0 -139 -148 -139h-19q-83 0 -114 31t-31 93v13h121v-8q0 -20 7 -29.5t26 -9.5q20 0 27.5 9.5t7.5 29.5v76
q-34 -42 -96 -42z" />
    <glyph glyph-name="IJ.alt" horiz-adv-x="608" 
d="M211 744v-744h-159v744h159zM288 0v143h66q23 0 32 9.5t9 32.5v559h160v-607q0 -137 -131 -137h-136z" />
    <glyph glyph-name="a.alt2" horiz-adv-x="490" 
d="M243 105q47 0 47 62v208q0 62 -47 62q-46 0 -46 -62v-209q0 -61 46 -61zM290 545h151v-545h-150v61q-14 -26 -44 -47t-72 -21h-3q-57 0 -92.5 40t-35.5 103v276q0 62 33 99.5t89 37.5h4q76 0 120 -60v56z" />
    <glyph glyph-name="space_uni0326.alt" 
d="M139 745h66q-14 -40 -15 -70h50v-112h-123v72q0 57 22 110z" />
    <glyph glyph-name="ordfeminine.alt" horiz-adv-x="373" 
d="M219 541q-2 -1 -21.5 -11t-25.5 -14q-26 -17 -26 -46v-12q0 -37 35 -37q18 0 28 11.5t10 29.5v79zM219 392q-11 -18 -34 -34.5t-53 -16.5h-1q-41 0 -66 26.5t-25 66.5v45q0 38 18 60t56 37q12 5 48 17.5t43 15.5q14 5 14 25v4q0 34 -37 34h-1q-36 0 -36 -36v-23h-100v29
q0 52 29.5 79.5t100.5 27.5h11q75 0 107 -26.5t32 -81.5v-188q0 -75 10 -102v-6h-108q-8 16 -8 47z" />
    <glyph glyph-name="ordfeminine.alt2" horiz-adv-x="386" 
d="M192 426q39 0 39 51v137q0 49 -39 49q-37 0 -37 -48v-141q0 -48 37 -48zM231 744h107v-397h-107v46q-29 -52 -90 -52h-2q-44 0 -69 31.5t-25 82.5v178q0 51 23 82.5t70 31.5h2q58 0 91 -47v44z" />
    <glyph glyph-name="caron.alt" 
d="M119 592l11 165h108l-16 -165h-103z" />
    <glyph glyph-name="plus.uc" horiz-adv-x="479" 
d="M441 295h-145v-156h-113v156h-145v102h145v155h113v-155h145v-102z" />
    <glyph glyph-name="minus.uc" horiz-adv-x="466" 
d="M38 398h390v-104h-390v104z" />
    <glyph glyph-name="multiply.uc" horiz-adv-x="446" 
d="M340 152l-118 118l-115 -118l-73 69l117 120l-118 118l73 75l117 -119l115 119l74 -70l-118 -120l119 -120z" />
    <glyph glyph-name="divide.uc" horiz-adv-x="476" 
d="M308 588v-133h-140v133h140zM38 398h400v-104h-400v104zM308 233v-133h-140v133h140z" />
    <glyph glyph-name="equal.uc" horiz-adv-x="476" 
d="M43 473h390v-99h-390v99zM43 303h390v-99h-390v99z" />
    <glyph glyph-name="less.uc" horiz-adv-x="431" 
d="M386 147l-344 143v106l344 143v-110l-227 -86l227 -87v-109z" />
    <glyph glyph-name="greater.uc" horiz-adv-x="431" 
d="M45 147v111l226 86l-226 86v109l344 -143v-106z" />
    <glyph glyph-name="questiondown.uc" horiz-adv-x="456" 
d="M185 528h120v-53q0 -47 -9 -73t-38 -64l-39 -52q-19 -25 -24.5 -43t-5.5 -49v-28q0 -29 10 -41.5t34 -12.5q43 0 43 54v90h142v-96q0 -79 -39 -124t-132 -45h-27q-183 0 -183 165v39q0 47 13.5 80.5t44.5 69.5l52 61q24 29 31 45.5t7 48.5v28zM166 577v167h157v-167h-157
z" />
    <glyph glyph-name="exclamdown.uc" horiz-adv-x="254" 
d="M211 0h-168l46 528h75zM205 744v-167h-158v167h158z" />
    <glyph glyph-name="hyphen.uc" horiz-adv-x="330" 
d="M44 407h242v-132h-242v132z" />
    <glyph glyph-name="endash.uc" horiz-adv-x="526" 
d="M44 389h438v-97h-438v97z" />
    <glyph glyph-name="emdash.uc" horiz-adv-x="789" 
d="M44 389h701v-97h-701v97z" />
    <glyph glyph-name="guilsinglleft.uc" horiz-adv-x="275" 
d="M161 307l77 -173h-125l-68 139v68l68 139h125z" />
    <glyph glyph-name="guilsinglright.uc" horiz-adv-x="275" 
d="M115 307l-78 173h126l67 -139v-68l-67 -139h-126z" />
    <glyph glyph-name="guillemotleft.uc" horiz-adv-x="447" 
d="M157 307l70 -173h-120l-62 139v68l60 139h121zM342 307l68 -173h-121l-70 173l70 173h121z" />
    <glyph glyph-name="guillemotright.uc" horiz-adv-x="448" 
d="M106 307l-69 173h122l69 -173l-68 -173h-123zM291 307l-69 173h119l62 -139v-68l-60 -139h-121z" />
    <glyph glyph-name="parenleft.uc" horiz-adv-x="280" 
d="M38 371q0 93 23 184.5t47.5 144.5t60.5 116h98q-96 -222 -96 -445q0 -208 96 -452h-98q-37 67 -61 120t-47 145.5t-23 186.5z" />
    <glyph glyph-name="parenright.uc" horiz-adv-x="280" 
d="M242 371q0 -135 -36.5 -242t-94.5 -210h-98q96 238 96 452q0 223 -96 445h98q36 -63 60.5 -116t47.5 -144.5t23 -184.5z" />
    <glyph glyph-name="bracketleft.uc" horiz-adv-x="275" 
d="M47 -73v890h203v-100h-82v-689h82v-101h-203z" />
    <glyph glyph-name="bracketright.uc" horiz-adv-x="275" 
d="M25 -73v101h81v689h-81v100h202v-890h-202z" />
    <glyph glyph-name="braceleft.uc" horiz-adv-x="292" 
d="M268 -73h-75q-138 0 -138 108q0 35 28.5 124.5t28.5 118.5q0 44 -47 44h-32v106h29q50 0 50 41q0 28 -28.5 116.5t-28.5 124.5q0 107 138 107h75v-98h-47q-44 0 -44 -38q0 -19 26 -99t26 -113q0 -74 -78 -94q43 -11 60.5 -35t17.5 -63q0 -33 -26 -114t-26 -100
q0 -38 44 -38h47v-98z" />
    <glyph glyph-name="braceright.uc" horiz-adv-x="293" 
d="M100 -73h-75v98h46q44 0 44 38q0 19 -25.5 100t-25.5 114q0 40 17.5 63.5t60.5 34.5q-78 19 -78 94q0 33 25.5 113t25.5 99q0 38 -44 38h-46v98h75q137 0 137 -107q0 -36 -28.5 -124.5t-28.5 -116.5q0 -41 51 -41h29v-106h-32q-48 0 -48 -44q0 -29 28.5 -118.5
t28.5 -124.5q0 -108 -137 -108z" />
    <glyph glyph-name="slash.uc" horiz-adv-x="300" 
d="M278 816l-150 -897h-107l150 897h107z" />
    <glyph glyph-name="backslash.uc" horiz-adv-x="300" 
d="M279 -81h-107l-150 897h107z" />
    <glyph glyph-name="bar.uc" horiz-adv-x="228" 
d="M167 816v-897h-105v897h105z" />
    <glyph glyph-name="at.uc" horiz-adv-x="796" 
d="M624 69l53 -65q-30 -34 -99 -64t-169 -30h-8q-56 0 -102 8.5t-95.5 35t-83.5 70.5t-55.5 121.5t-21.5 181.5v45q0 202 91 304.5t271 102.5h12q168 0 251.5 -82.5t83.5 -257.5v-44q0 -87 -13.5 -148t-39.5 -95t-58 -48.5t-74 -14.5h-3q-96 0 -123 64q-41 -64 -113 -64h-4
q-56 0 -87 39t-27 108l15 221q9 137 111 137h4q71 0 110 -60l3 55h140l-25 -386q-3 -32 23 -32q68 0 68 222v46q0 77 -17 129t-51 79.5t-75.5 39t-98.5 11.5h-12q-128 0 -196.5 -77.5t-68.5 -250.5v-42q0 -88 17.5 -152.5t42.5 -99t63 -55t68.5 -25.5t69.5 -5h8
q78 0 132.5 24t82.5 54zM430 238l13 201q4 55 -39 55q-36 0 -39 -54l-13 -200q-4 -53 36 -53q39 0 42 51z" />
    <glyph glyph-name="grave.uc" 
d="M260 782l-102 -13l-61 105l104 14z" />
    <glyph glyph-name="dieresis.uc" 
d="M67 769v113h222v-113h-222z" />
    <glyph glyph-name="macron.uc" 
d="M70 776v94h217v-94h-217z" />
    <glyph glyph-name="acute.uc" 
d="M91 769l48 119h126l-51 -119h-123z" />
    <glyph glyph-name="circumflex.uc" 
d="M239 888l73 -119h-107l-29 47l-27 -47h-106l73 119h123z" />
    <glyph glyph-name="caron.uc" 
d="M116 769l-73 119h107l28 -48l28 48h106l-73 -119h-123z" />
    <glyph glyph-name="breve.uc" 
d="M301 873q0 -48 -33.5 -77.5t-87.5 -29.5h-4q-55 0 -88 29.5t-33 77.5v8h98v-6q0 -27 25 -27h1q26 0 26 27v6h96v-8z" />
    <glyph glyph-name="dotaccent.uc" 
d="M253 902v-133h-151v133h151z" />
    <glyph glyph-name="ring.uc" 
d="M258 856q-5 -33 -30 -56.5t-60 -27.5q-34 -5 -53.5 14t-15.5 53q4 31 30 54.5t60 27.5q35 4 54 -14.5t15 -50.5zM174 815q14 1 24 11t12 24t-6 21t-22 6q-13 -1 -22.5 -10.5t-11.5 -23.5t5 -22t21 -6z" />
    <glyph glyph-name="tilde.uc" 
d="M292 876q-1 0 -3 -20q-3 -25 -5 -26q-1 -25 -14 -40.5t-36 -15.5l-4 -1q-28 0 -58 13q-23 9 -37 9q-6 0 -6 -2q0 -9 5 -11h-70q1 0 2.5 12l3 24t2.5 12q3 54 51 54l2 1q28 0 58 -13q28 -10 38 -10l6 2l-2 6q-2 5 -4 6h71z" />
    <glyph glyph-name="hungarumlaut.uc" 
d="M243 769l-75 12l-3 -12h-102l30 118h104l-11 -39l16 39l87 -13z" />
    <glyph glyph-name="emdash.altuc" horiz-adv-x="1491" 
d="M1447 389v-97h-1403v97h1403z" />
    <glyph glyph-name="f.short" horiz-adv-x="359" 
d="M339 757v-113h-47q-21 0 -28.5 -7.5t-7.5 -28.5v-63h83v-120h-83v-425h-150v425h-86v120h86v102q0 110 116 110h117z" />
    <glyph glyph-name="f_f.short" horiz-adv-x="632" 
d="M256 0h-150v425h-86v120h86v102q0 110 116 110h107v-113h-37q-21 0 -28.5 -7.5t-7.5 -28.5v-63h123v102q0 110 116 110h118v-113h-48q-21 0 -28.5 -7.5t-7.5 -28.5v-63h84v-120h-84v-425h-150v425h-123v-425z" />
    <glyph glyph-name="j.short" horiz-adv-x="249" 
d="M200 720v-134h-151v134h151zM-3 -61h20q18 0 25 7.5t7 26.5v572h151v-623q0 -52 -25 -81t-74 -29h-104v127z" />
    <glyph glyph-name="Euro.lintab" horiz-adv-x="500" 
d="M255 -10q-185 0 -185 192v102h-64v76h64v50h-64v75h64v77q0 190 183 190h27q97 0 139.5 -47t42.5 -141v-39h-145v37q0 63 -49 63q-26 0 -37 -15t-11 -48v-77h158v-75h-158v-50h159v-76h-159v-99q0 -64 48 -64q49 0 49 63v58h145v-61q0 -191 -179 -191h-28z" />
    <glyph glyph-name="colon.tab" horiz-adv-x="249" 
d="M207 464v-167h-158v167h158zM207 167v-167h-158v167h158z" />
    <glyph glyph-name="comma.tab" horiz-adv-x="250" 
d="M167 -119h-86q28 78 31 119h-63v161h152v-122q0 -79 -34 -158z" />
    <glyph glyph-name="divide.lintab" horiz-adv-x="500" 
d="M320 548v-133h-140v133h140zM52 358h396v-104h-396v104zM320 193v-133h-140v133h140z" />
    <glyph glyph-name="dollar.lintab" horiz-adv-x="500" 
d="M174 577q0 -26 12 -44.5t40 -41.5v150q-52 -5 -52 -62v-2zM327 184q0 33 -11.5 54.5t-42.5 46.5v-175q54 9 54 69v5zM273 -75h-47v66q-192 4 -192 181v93h139v-82q0 -65 53 -73v209l-77 55q-57 40 -86.5 85.5t-29.5 110.5v13q0 78 50.5 122.5t142.5 46.5v60h47v-60
q98 -1 141.5 -45t43.5 -127v-63h-134v49q0 34 -11.5 52.5t-39.5 22.5v-186l84 -62q61 -45 88.5 -91t27.5 -111v-14q0 -82 -51 -133t-149 -53v-66z" />
    <glyph glyph-name="eight.lintab" horiz-adv-x="500" 
d="M450 582v-46q0 -106 -72 -135q82 -33 82 -139v-90q0 -182 -197 -182h-27q-196 0 -196 182v90q0 103 80 139q-71 30 -71 135v46q0 83 43 126.5t146 43.5h24q100 0 144 -44t44 -126zM306 519v49q0 33 -13.5 48t-42.5 15q-56 0 -56 -63v-48q0 -65 57 -65q55 0 55 64z
M308 187v80q0 67 -58 67t-58 -67v-80q0 -67 59 -67q57 0 57 67z" />
    <glyph glyph-name="equal.lintab" horiz-adv-x="500" 
d="M56 432h389v-98h-389v98zM56 263h389v-98h-389v98z" />
    <glyph glyph-name="five.lintab" horiz-adv-x="500" 
d="M194 335h-144v409h394v-135h-252v-144q51 71 130 71h6q65 0 97.5 -40.5t32.5 -106.5v-209q0 -83 -47 -136.5t-152 -53.5h-25q-191 0 -191 175v98h147v-76q0 -66 55 -66q56 0 56 66v157q0 68 -53 68q-32 0 -43 -17.5t-11 -50.5v-9z" />
    <glyph glyph-name="four.lintab" horiz-adv-x="500" 
d="M22 279q173 373 215 469h150v-454h94v-130h-94v-164h-149v164h-216v115zM238 294v246q-69 -153 -113 -246h113z" />
    <glyph glyph-name="greater.lintab" horiz-adv-x="500" 
d="M80 109v109l226 86l-226 86v107l344 -142v-104z" />
    <glyph glyph-name="less.lintab" horiz-adv-x="500" 
d="M420 109l-344 142v104l344 142v-108l-226 -86l226 -87v-107z" />
    <glyph glyph-name="minus.lintab" horiz-adv-x="500" 
d="M54 358h392v-104h-392v104z" />
    <glyph glyph-name="multiply.lintab" horiz-adv-x="500" 
d="M368 112l-119 119l-116 -119l-72 69l117 120l-118 118l73 75l117 -119l116 119l73 -70l-118 -120l119 -120z" />
    <glyph glyph-name="nine.lintab" horiz-adv-x="500" 
d="M303 558q0 64 -56 64t-56 -64v-109q0 -65 56 -65t56 65v109zM177 265h-6q-62 0 -96.5 42.5t-34.5 109.5v147q0 91 45 139.5t150 48.5h24q195 0 195 -190v-379q0 -192 -190 -192h-24q-108 0 -147 44.5t-39 136.5v44h148v-33q0 -33 11 -48.5t39 -15.5t39.5 15.5t11.5 48.5
v147q-46 -65 -126 -65z" />
    <glyph glyph-name="one.lintab" horiz-adv-x="500" 
d="M482 0h-431v131h138v409h-121v116q76 1 106.5 19.5t43.5 68.5h129v-613h135v-131z" />
    <glyph glyph-name="percent.lintab" horiz-adv-x="500" 
d="M244 552q0 -109 -106 -109h-13q-105 0 -105 109v88q0 109 105 109h13q106 0 106 -109v-88zM396 744h78l-371 -744h-78zM133 519q24 0 24 33v88q0 34 -24 34q-25 0 -25 -34v-88q0 -33 25 -33zM480 104q0 -109 -107 -109h-12q-105 0 -105 109v88q0 109 105 109h12
q107 0 107 -109v-88zM344 104q0 -33 24 -33q25 0 25 33v88q0 34 -25 34q-24 0 -24 -34v-88z" />
    <glyph glyph-name="period.tab" horiz-adv-x="250" 
d="M201 161v-161h-152v161h152z" />
    <glyph glyph-name="perthousand.lintab" horiz-adv-x="500" 
d="M222 566q0 -95 -93 -95h-11q-93 0 -93 95v89q0 94 93 94h11q93 0 93 -94v-89zM104 653v-85q0 -27 20 -27t20 27v85q0 27 -20 27t-20 -27zM379 585v-82l-358 -254v80zM250 90q0 -95 -93 -95h-11q-93 0 -93 95v89q0 94 93 94h11q93 0 93 -94v-89zM475 179v-89
q0 -95 -93 -95h-11q-92 0 -92 95v89q0 94 92 94h11q93 0 93 -94zM357 91q0 -27 20 -27t20 27v86q0 28 -20 28t-20 -28v-86zM132 92q0 -27 20 -27t20 27v85q0 27 -20 27t-20 -27v-85z" />
    <glyph glyph-name="plus.lintab" horiz-adv-x="500" 
d="M449 255h-143v-156h-112v156h-143v102h143v155h112v-155h143v-102z" />
    <glyph glyph-name="semicolon.tab" horiz-adv-x="249" 
d="M168 -137h-91q33 74 39 137h-67v167h158v-128q0 -88 -39 -176zM207 464v-167h-158v167h158z" />
    <glyph glyph-name="seven.lintab" horiz-adv-x="500" 
d="M38 744h427v-121q-1 -4 -29.5 -96t-48.5 -169q-48 -179 -48 -306v-52h-185v39q0 73 19.5 146t66.5 189q57 137 74 182t17 65h-150v-119h-143v242z" />
    <glyph glyph-name="six.lintab" horiz-adv-x="500" 
d="M329 477h5q61 0 93.5 -39.5t32.5 -103.5v-151q0 -89 -47.5 -141t-147.5 -52h-24q-195 0 -195 193v376q0 94 44 143.5t146 49.5h24q106 0 146 -47t40 -137v-42h-148v35q0 32 -11 47t-39 15q-51 0 -51 -62v-149q15 21 49.5 43t82.5 22zM197 185q0 -65 56 -65t56 65v108
q0 65 -56 65t-56 -65v-108z" />
    <glyph glyph-name="space.tab" horiz-adv-x="250" 
 />
    <glyph glyph-name="sterling.lintab" horiz-adv-x="500" 
d="M470 242v-242h-447v94h1q39 12 65.5 45.5t26.5 88.5v1q0 21 -8 87h-85v103h70q-10 70 -10 125v36q0 83 41 127.5t135 44.5h23q95 0 131.5 -43.5t36.5 -121.5v-91h-138v77q0 29 -9 42.5t-32 13.5t-32 -13.5t-9 -42.5v-40q0 -51 5 -114h151v-103h-143q1 -10 2 -27t1 -20
q0 -103 -63 -148h151v121h136z" />
    <glyph glyph-name="three.lintab" horiz-adv-x="500" 
d="M188 521h-142v52q0 86 39.5 132.5t147.5 46.5h17q113 0 156 -44.5t43 -131.5v-34q0 -100 -72 -125q81 -20 81 -131v-105q0 -86 -46.5 -138.5t-154.5 -52.5h-24q-58 0 -97.5 14.5t-59.5 41.5t-28 58t-8 72v90h147v-74q0 -33 11.5 -50.5t46.5 -17.5q32 0 43.5 17.5
t11.5 50.5v80q0 32 -10.5 44.5t-40.5 12.5h-89v134h84q29 0 39.5 11.5t10.5 41.5v46q0 33 -11 48.5t-42 15.5t-42 -15.5t-11 -48.5v-41z" />
    <glyph glyph-name="two.lintab" horiz-adv-x="500" 
d="M465 0h-433v68q0 68 25.5 124t94.5 141q21 27 84 100q28 34 38.5 48.5t19.5 36.5t9 45v4q0 62 -55 62t-55 -62v-78h-142v88q0 85 44 130t143 45h22q200 0 200 -177v-11q0 -62 -21 -104.5t-69 -92.5l-96 -97q-102 -106 -102 -143h153v118h140v-245z" />
    <glyph glyph-name="yen.lintab" horiz-adv-x="500" 
d="M176 0v206h-130v76h130v51h-130v76h108l-128 335h156l75 -257l75 257h142l-118 -335h109v-76h-130v-51h132v-76h-132v-206h-159z" />
    <glyph glyph-name="zero.lintab" horiz-adv-x="500" 
d="M454 552v-358q0 -204 -193 -204h-21q-194 0 -194 204v357q0 202 193 202h22q193 0 193 -201zM303 194v354q0 73 -53 73t-53 -73v-354q0 -70 54 -70q52 0 52 70z" />
  </font>
</defs>
</svg>
