<?xml version="1.0" encoding="utf-8"?>
<!-- Generator: Adobe Illustrator 22.1.0, SVG Export Plug-In . SVG Version: 6.00 Build 0)  -->
<svg version="1.1" id="Layer_1" xmlns="http://www.w3.org/2000/svg" xmlns:xlink="http://www.w3.org/1999/xlink" x="0px" y="0px"
	 viewBox="0 0 30 30" style="enable-background:new 0 0 30 30;" xml:space="preserve">
<style type="text/css">
	.st0{fill:#CC0D1F;}
	.st1{fill:#FFFFFF;}
</style>
<g id="Group_12" transform="translate(-168.5 -1.5)">
	<circle id="Ellipse_6" class="st0" cx="183.5" cy="16.5" r="15"/>
	<path class="st1" d="M191,15.2c-0.4,0-0.8-0.1-1.2-0.1c-0.1,0-0.1,0-0.1-0.1c-0.1-0.5-0.3-1-0.6-1.4v-0.1c0.3-0.3,0.5-0.7,0.8-1
		c0.1-0.2,0.1-0.4,0-0.6l-1.4-1.4c-0.2-0.2-0.5-0.2-0.7,0c0,0,0,0,0,0c-0.3,0.3-0.7,0.5-1,0.8h-0.1c-0.4-0.2-0.9-0.4-1.4-0.6
		c-0.1,0-0.1,0-0.1-0.1c0-0.4-0.1-0.8-0.1-1.2c0-0.3-0.1-0.4-0.4-0.6h-1.2h-1.2c-0.3,0.2-0.4,0.3-0.4,0.6c0,0.4-0.1,0.8-0.1,1.2
		c0,0.1,0,0.1-0.1,0.1c-0.5,0.2-1,0.4-1.4,0.6h-0.1c-0.3-0.3-0.7-0.5-1-0.8c0,0,0,0,0,0c-0.2-0.2-0.5-0.2-0.7,0l-1.4,1.4
		c-0.1,0.2-0.1,0.4,0,0.6c0.3,0.3,0.5,0.7,0.8,1v0.1c-0.3,0.4-0.5,0.9-0.6,1.4c0,0.1,0,0.1-0.1,0.1c-0.4,0-0.8,0.1-1.2,0.1
		c-0.2,0-0.4,0.1-0.5,0.3v2.3c0.1,0.3,0.3,0.4,0.6,0.4c0.3,0,0.7,0.1,1.1,0.1c0.1,0,0.2,0,0.2,0.1c0.2,0.4,0.4,0.9,0.6,1.3v0.1
		c-0.3,0.3-0.5,0.7-0.8,1c0,0,0,0,0,0c-0.2,0.2-0.2,0.5,0,0.7l1.4,1.4c0,0,0,0,0,0c0.2,0.2,0.5,0.2,0.7,0c0.3-0.3,0.7-0.5,1-0.8h0.1
		c0.4,0.3,0.9,0.5,1.4,0.6c0.1,0,0.1,0,0.1,0.1c0,0.4,0.1,0.8,0.1,1.2c0,0.2,0.1,0.4,0.3,0.5h1.2h1.2c0.2-0.1,0.3-0.3,0.3-0.5
		c0-0.4,0.1-0.8,0.1-1.2c0-0.1,0-0.1,0.1-0.1c0.5-0.1,1-0.3,1.4-0.6h0.1c0.3,0.3,0.7,0.5,1,0.8c0.2,0.2,0.5,0.2,0.7,0c0,0,0,0,0,0
		l1.4-1.4c0.2-0.2,0.2-0.5,0-0.7c0,0,0,0,0,0c-0.3-0.3-0.5-0.7-0.8-1v-0.1c0.2-0.4,0.4-0.9,0.6-1.3c0-0.1,0.1-0.1,0.2-0.1
		c0.4,0,0.8-0.1,1.1-0.1c0.3,0,0.5-0.1,0.6-0.4v-2.3C191.4,15.3,191.2,15.2,191,15.2z M183.5,20.5c-2.2,0-4-1.8-4-4s1.8-4,4-4
		s4,1.8,4,4S185.7,20.5,183.5,20.5z"/>
</g>
</svg>
