<svg xmlns="http://www.w3.org/2000/svg" viewBox="0 0 30 30">
  <defs>
    <style>
      .cls-1 {
        fill: #cc0d1f;
      }

      .cls-2 {
        fill: #fff;
      }
    </style>
  </defs>
  <g id="Group_14" data-name="Group 14" transform="translate(-208.5 -1.5)">
    <circle id="Ellipse_7" data-name="Ellipse 7" class="cls-1" cx="15" cy="15" r="15" transform="translate(208.5 1.5)"/>
    <g id="Group_13" data-name="Group 13">
      <path id="Path_12" data-name="Path 12" class="cls-2" d="M228.9,9.9h-1.2V9.1a.645.645,0,0,0-.6-.6h-7.5a.645.645,0,0,0-.6.6v.8h-.9a.645.645,0,0,0-.6.6v1.1h12V10.5A.576.576,0,0,0,228.9,9.9Z"/>
      <path id="Path_13" data-name="Path 13" class="cls-2" d="M217.5,12.9l1,10.1a1.831,1.831,0,0,0,1.8,1.6h6.3a1.831,1.831,0,0,0,1.8-1.6l1-10.1Zm5.4,8.1a.6.6,0,0,1-1.2,0V16.3a.6.6,0,0,1,1.2,0Zm2.4,0a.6.6,0,0,1-1.2,0V16.3a.6.6,0,0,1,1.2,0Z"/>
    </g>
  </g>
</svg>
