<svg xmlns="http://www.w3.org/2000/svg" viewBox="0 0 1364 482">
  <defs>
    <style>
      .cls-1, .cls-3, .cls-4, .cls-5 {
        fill: none;
        stroke: #000;
        stroke-width: 2px;
      }

      .cls-1, .cls-3, .cls-4 {
        stroke-miterlimit: 10;
      }

      .cls-2 {
        font-size: 12px;
        font-family: NHaasGroteskTXPro-55Rg, Neue Haas Grotesk Text Pro;
      }

      .cls-3, .cls-4, .cls-5 {
        stroke-linecap: round;
      }

      .cls-3 {
        stroke-linejoin: round;
      }
    </style>
  </defs>
  <g id="Group_678" data-name="Group 678" transform="translate(-277 -343)">
    <g id="Group_636" data-name="Group 636">
      <g id="Group_614" data-name="Group 614" transform="translate(622.617 344)">
        <g id="browser_2_" transform="translate(0 0)">
          <path id="Path_332" data-name="Path 332" class="cls-1" d="M667.518,481H7.733A6.758,6.758,0,0,1,1,474.255V7.745A6.758,6.758,0,0,1,7.733,1H667.518a6.758,6.758,0,0,1,6.732,6.745V474.255A6.758,6.758,0,0,1,667.518,481Z" transform="translate(-1 -1)"/>
          <g id="Group_611" data-name="Group 611" transform="translate(20.198 24.169)">
            <ellipse id="Ellipse_32" data-name="Ellipse 32" class="cls-1" cx="3.927" cy="3.934" rx="3.927" ry="3.934"/>
            <ellipse id="Ellipse_33" data-name="Ellipse 33" class="cls-1" cx="3.927" cy="3.934" rx="3.927" ry="3.934" transform="translate(15.709)"/>
            <ellipse id="Ellipse_34" data-name="Ellipse 34" class="cls-1" cx="3.927" cy="3.934" rx="3.927" ry="3.934" transform="translate(31.418)"/>
          </g>
          <line id="Line_237" data-name="Line 237" class="cls-1" x2="673.251" transform="translate(0 51.71)"/>
          <path id="Path_333" data-name="Path 333" class="cls-1" d="M607.357,37.931H73.244A2.253,2.253,0,0,1,71,35.682V15.448A2.253,2.253,0,0,1,73.244,13.2H607.357a2.253,2.253,0,0,1,2.244,2.248V35.682A2.184,2.184,0,0,1,607.357,37.931Z" transform="translate(7.546 0.514)"/>
          <g id="Group_612" data-name="Group 612" transform="translate(87.523 22.82)">
            <path id="Path_334" data-name="Path 334" d="M82.366,28.494V25.347c0-.787-.337-1.237-1.122-1.237a1.351,1.351,0,0,0-1.122.787,4.789,4.789,0,0,0-.224,1.237v2.248H79V21.3h.9v2.81a1.634,1.634,0,0,1,1.459-.787,1.653,1.653,0,0,1,1.8,1.8v3.26h-.785Z" transform="translate(-79 -21.3)"/>
            <path id="Path_335" data-name="Path 335" d="M87.242,28.52a1.469,1.469,0,0,1-1.571-1.574v-2.81H84.1v-.674h1.571V22.225L86.456,22v1.574h2.132v.674H86.456v2.7a.827.827,0,0,0,.9.9,2.259,2.259,0,0,0,1.234-.337V28.3A3.657,3.657,0,0,1,87.242,28.52Z" transform="translate(-78.377 -21.213)"/>
            <path id="Path_336" data-name="Path 336" d="M92.742,28.52a1.469,1.469,0,0,1-1.571-1.574v-2.81H89.6v-.674h1.571V22.225L91.956,22v1.574h2.132v.674H91.956v2.7a.827.827,0,0,0,.9.9,2.259,2.259,0,0,0,1.234-.337V28.3A4.178,4.178,0,0,1,92.742,28.52Z" transform="translate(-77.706 -21.213)"/>
            <path id="Path_337" data-name="Path 337" d="M99.1,27.909a1.937,1.937,0,0,1-1.459.562,1.81,1.81,0,0,1-1.459-.674v2.585H95.4v-6.97h.673l.112.674a2.054,2.054,0,0,1,3.03-.225,2.937,2.937,0,0,1,.673,2.023A3.235,3.235,0,0,1,99.1,27.909Zm-.561-3.6a1.273,1.273,0,0,0-.9-.337.873.873,0,0,0-.785.337,1.828,1.828,0,0,0-.561,1.574,1.828,1.828,0,0,0,.561,1.574,1.018,1.018,0,0,0,.785.337,1.1,1.1,0,0,0,.9-.337A2.139,2.139,0,0,0,99.1,26,2.969,2.969,0,0,0,98.542,24.312Z" transform="translate(-76.998 -21.052)"/>
            <path id="Path_338" data-name="Path 338" d="M102,24.761V23.3h1.346v1.461Zm0,3.485V26.785h1.346v1.461Z" transform="translate(-76.192 -21.052)"/>
            <path id="Path_339" data-name="Path 339" d="M106.273,28.594H105.6l4.713-7.194h.673Z" transform="translate(-75.753 -21.288)"/>
            <path id="Path_340" data-name="Path 340" d="M111.785,28.594H111l4.713-7.194h.673Z" transform="translate(-75.093 -21.288)"/>
            <path id="Path_341" data-name="Path 341" d="M120.754,24.986a1.207,1.207,0,0,0-.224-.674.873.873,0,0,0-.785-.337,1.291,1.291,0,0,0-1.122.9,4.789,4.789,0,0,0-.224,1.237v2.248h-.9V23.412h.785l.112.787a1.79,1.79,0,0,1,1.571-.9,2,2,0,0,1,1.459.674,1.9,1.9,0,0,1,.337,1.124h-1.01Z" transform="translate(-74.3 -21.052)"/>
            <path id="Path_342" data-name="Path 342" d="M122.6,28.482v-.674h1.8v-3.6h-1.571v-.674h2.469v4.272h1.8v.674H122.6Zm1.571-5.845V21.4h1.234v1.237Z" transform="translate(-73.677 -21.288)"/>
            <path id="Path_343" data-name="Path 343" d="M130.056,23.2a2.131,2.131,0,0,1,1.459.562A2.222,2.222,0,0,1,132.188,25h-.9a1.68,1.68,0,0,0-.337-.787,1.273,1.273,0,0,0-.9-.337,1.1,1.1,0,0,0-.9.337,1.96,1.96,0,0,0-.561,1.574,2.106,2.106,0,0,0,.561,1.574,1.363,1.363,0,0,0,1.8,0,1.812,1.812,0,0,0,.449-.787h.785a1.714,1.714,0,0,1-.673,1.237,2.131,2.131,0,0,1-1.459.562,2.217,2.217,0,0,1-1.571-.562,3,3,0,0,1,0-4.047A2.217,2.217,0,0,1,130.056,23.2Z" transform="translate(-73.054 -21.064)"/>
            <path id="Path_344" data-name="Path 344" d="M137.252,28.371a.768.768,0,0,1-.785-.787h0a2.025,2.025,0,0,1-1.683.787A1.481,1.481,0,0,1,133.1,26.91a1.6,1.6,0,0,1,1.8-1.574l1.571-.112v-.337c0-.225,0-.562-.224-.674a1.281,1.281,0,0,0-.785-.337c-.449,0-.785.112-.9.337a.859.859,0,0,0-.224.562h-.785A1.426,1.426,0,0,1,134,23.762a2.217,2.217,0,0,1,1.571-.562,1.752,1.752,0,0,1,1.8,1.012,1.67,1.67,0,0,1,.112.787v2.361a.3.3,0,0,0,.337.337h.224v.674Zm-.785-2.473-1.346.112a1.02,1.02,0,0,0-1.122.9c0,.45.337.787,1.01.787a1.217,1.217,0,0,0,1.01-.45,1.445,1.445,0,0,0,.449-1.124V25.9Z" transform="translate(-72.395 -21.064)"/>
            <path id="Path_345" data-name="Path 345" d="M142.066,28.271V25.123a1.092,1.092,0,0,0-1.122-1.237,1.351,1.351,0,0,0-1.122.787,4.788,4.788,0,0,0-.224,1.237v2.248h-.9V23.212h.785L139.6,24a1.933,1.933,0,0,1,1.571-.9,1.653,1.653,0,0,1,1.8,1.8v3.26h-.9Z" transform="translate(-71.712 -21.077)"/>
            <path id="Path_346" data-name="Path 346" d="M148.152,28.371a.768.768,0,0,1-.785-.787h0a2.025,2.025,0,0,1-1.683.787A1.481,1.481,0,0,1,144,26.91a1.6,1.6,0,0,1,1.8-1.574l1.571-.112v-.337c0-.225,0-.562-.224-.674a1.281,1.281,0,0,0-.785-.337c-.449,0-.785.112-.9.337a.859.859,0,0,0-.224.562h-.785a1.426,1.426,0,0,1,.449-1.012,2.217,2.217,0,0,1,1.571-.562,1.752,1.752,0,0,1,1.8,1.012,1.669,1.669,0,0,1,.112.787v2.361a.3.3,0,0,0,.337.337h.224v.674Zm-.785-2.473-1.346.112a1.02,1.02,0,0,0-1.122.9c0,.45.337.787,1.01.787a1.217,1.217,0,0,0,1.01-.45,1.445,1.445,0,0,0,.449-1.124V25.9Z" transform="translate(-71.064 -21.064)"/>
            <path id="Path_347" data-name="Path 347" d="M153.015,28.482l-.112-.674a2.054,2.054,0,0,1-3.03.225,2.937,2.937,0,0,1-.673-2.023,2.407,2.407,0,0,1,.785-2.023,1.937,1.937,0,0,1,1.459-.562,1.81,1.81,0,0,1,1.459.674V21.4h.785v7.082h-.673Zm-.561-4.047a1.018,1.018,0,0,0-.785-.337,1.1,1.1,0,0,0-.9.337,2.139,2.139,0,0,0-.561,1.461,2.106,2.106,0,0,0,.561,1.574,1.273,1.273,0,0,0,.9.337.873.873,0,0,0,.785-.337,1.828,1.828,0,0,0,.561-1.574A2.37,2.37,0,0,0,152.454,24.435Z" transform="translate(-70.43 -21.288)"/>
            <path id="Path_348" data-name="Path 348" d="M158.952,28.371a.768.768,0,0,1-.785-.787h0a2.025,2.025,0,0,1-1.683.787A1.481,1.481,0,0,1,154.8,26.91a1.6,1.6,0,0,1,1.8-1.574l1.571-.112v-.337c0-.225,0-.562-.224-.674a1.282,1.282,0,0,0-.785-.337c-.449,0-.785.112-.9.337a.859.859,0,0,0-.224.562h-.785a1.426,1.426,0,0,1,.449-1.012,2.217,2.217,0,0,1,1.571-.562,1.752,1.752,0,0,1,1.8,1.012,1.669,1.669,0,0,1,.112.787v2.361a.3.3,0,0,0,.337.337h.224v.674Zm-.785-2.473-1.346.112a1.02,1.02,0,0,0-1.122.9c0,.45.337.787,1.01.787a1.217,1.217,0,0,0,1.01-.45,1.445,1.445,0,0,0,.449-1.124V25.9Z" transform="translate(-69.746 -21.064)"/>
            <path id="Path_349" data-name="Path 349" d="M161.6,27.861V26.4h1.459v1.461Z" transform="translate(-68.916 -20.667)"/>
            <path id="Path_350" data-name="Path 350" d="M169.527,27.809a2.476,2.476,0,0,1-3.142,0,3,3,0,0,1,0-4.047,2.476,2.476,0,0,1,3.142,0,3,3,0,0,1,0,4.047Zm-.673-3.6a1.363,1.363,0,0,0-1.8,0,1.96,1.96,0,0,0-.561,1.574,2.106,2.106,0,0,0,.561,1.574,1.363,1.363,0,0,0,1.8,0,1.96,1.96,0,0,0,.561-1.574A2.106,2.106,0,0,0,168.854,24.212Z" transform="translate(-68.427 -21.064)"/>
            <path id="Path_351" data-name="Path 351" d="M174.954,24.986a1.207,1.207,0,0,0-.224-.674.873.873,0,0,0-.785-.337,1.291,1.291,0,0,0-1.122.9,4.788,4.788,0,0,0-.224,1.237v2.248h-.9V23.412h.785l.112.787a1.79,1.79,0,0,1,1.571-.9,2,2,0,0,1,1.459.674,1.9,1.9,0,0,1,.337,1.124h-1.01Z" transform="translate(-67.683 -21.052)"/>
            <path id="Path_352" data-name="Path 352" d="M180.964,30.094a3.059,3.059,0,0,1-2.02.562,2.754,2.754,0,0,1-1.908-.562,1.108,1.108,0,0,1-.337-.9,1.32,1.32,0,0,1,.673-1.124.845.845,0,0,1-.561-.787,1.292,1.292,0,0,1,.673-1.012,1.433,1.433,0,0,1-.561-1.237,2.048,2.048,0,0,1,.449-1.237,1.936,1.936,0,0,1,1.459-.562,1.673,1.673,0,0,1,1.122.337.981.981,0,0,1,1.01-.674h.224v.674h-.224a.758.758,0,0,0-.673.45,1.376,1.376,0,0,1,.337,1.012,2.36,2.36,0,0,1-.449,1.237,2.131,2.131,0,0,1-1.459.562,2.466,2.466,0,0,1-.9-.112c-.224.112-.449.225-.449.45,0,.45.449.45.785.45h1.122a1.952,1.952,0,0,1,1.571.562,1.376,1.376,0,0,1,.337,1.012A.875.875,0,0,1,180.964,30.094Zm-2.02-1.8h-.9a.964.964,0,0,0-.673.787.86.86,0,0,0,.224.562,2.857,2.857,0,0,0,2.693,0,.859.859,0,0,0,.224-.562C180.515,28.183,179.617,28.3,178.944,28.3Zm-.112-4.384a1.124,1.124,0,1,0,1.122,1.124A1.061,1.061,0,0,0,178.832,23.912Z" transform="translate(-67.072 -21.101)"/>
            <path id="Path_353" data-name="Path 353" d="M182.273,28.594H181.6l4.713-7.194h.673Z" transform="translate(-66.474 -21.288)"/>
            <path id="Path_354" data-name="Path 354" d="M191.252,27v1.461h-.9V27H187.1v-.9l2.693-4.5h.9l-2.805,4.609h2.356V24.185h.9v2.023h.9V27h-.785Z" transform="translate(-65.803 -21.263)"/>
            <path id="Path_355" data-name="Path 355" d="M196.6,28.02a2.174,2.174,0,0,1-2.917,0A3.955,3.955,0,0,1,192.9,25.1a4.251,4.251,0,0,1,.785-3.035,2.174,2.174,0,0,1,2.917,0c.673.674.785,1.686.785,3.035S197.276,27.345,196.6,28.02Zm-.673-5.4a1.363,1.363,0,0,0-1.8,0,3.552,3.552,0,0,0-.561,2.473v1.124l2.581-3.148A.584.584,0,0,0,195.93,22.624Zm.561,1.349-2.581,3.148c.112.112.224.337.337.45a1.363,1.363,0,0,0,1.8,0A3.553,3.553,0,0,0,196.6,25.1,3.831,3.831,0,0,1,196.491,23.973Z" transform="translate(-65.095 -21.275)"/>
            <path id="Path_356" data-name="Path 356" d="M202.152,27v1.461h-.9V27H198v-.9l2.693-4.5h.9l-2.805,4.609h2.356V24.185h.9v2.023h.9V27h-.785Z" transform="translate(-64.472 -21.263)"/>
            <path id="Path_357" data-name="Path 357" d="M204.2,25.487V24.7h3.478v.787Z" transform="translate(-63.715 -20.878)"/>
            <path id="Path_358" data-name="Path 358" d="M210.01,26.135a1.693,1.693,0,0,0,.449,1.237,1.273,1.273,0,0,0,.9.337,1.1,1.1,0,0,0,.9-.337,1.122,1.122,0,0,0,.449-.562h.785a2.068,2.068,0,0,1-2.132,1.574,1.881,1.881,0,0,1-1.571-.674A2.635,2.635,0,0,1,209,25.8a2.712,2.712,0,0,1,.785-2.023,2.272,2.272,0,0,1,1.571-.674,2.217,2.217,0,0,1,1.571.562,2.937,2.937,0,0,1,.673,2.023v.337H210.01Zm2.356-1.8a1.421,1.421,0,0,0-1.01-.45,1.562,1.562,0,0,0-1.459,1.461H212.7A1.134,1.134,0,0,0,212.366,24.337Z" transform="translate(-63.129 -21.077)"/>
            <path id="Path_359" data-name="Path 359" d="M218.454,24.986a1.207,1.207,0,0,0-.224-.674.873.873,0,0,0-.785-.337,1.291,1.291,0,0,0-1.122.9,4.788,4.788,0,0,0-.224,1.237v2.248h-.9V23.412h.785l.112.787a1.79,1.79,0,0,1,1.571-.9,2,2,0,0,1,1.459.674,1.9,1.9,0,0,1,.337,1.124h-1.01Z" transform="translate(-62.372 -21.052)"/>
            <path id="Path_360" data-name="Path 360" d="M223.854,24.986a1.207,1.207,0,0,0-.224-.674.873.873,0,0,0-.785-.337,1.291,1.291,0,0,0-1.122.9,4.788,4.788,0,0,0-.224,1.237v2.248h-.9V23.412h.785l.112.787a1.79,1.79,0,0,1,1.571-.9,2,2,0,0,1,1.459.674,1.9,1.9,0,0,1,.337,1.124h-1.01Z" transform="translate(-61.713 -21.052)"/>
            <path id="Path_361" data-name="Path 361" d="M229.227,27.809a2.476,2.476,0,0,1-3.142,0,3,3,0,0,1,0-4.047,2.476,2.476,0,0,1,3.142,0,3,3,0,0,1,0,4.047Zm-.673-3.6a1.363,1.363,0,0,0-1.8,0,1.96,1.96,0,0,0-.561,1.574,2.106,2.106,0,0,0,.561,1.574,1.363,1.363,0,0,0,1.8,0,1.96,1.96,0,0,0,.561-1.574A2.106,2.106,0,0,0,228.554,24.212Z" transform="translate(-61.139 -21.064)"/>
            <path id="Path_362" data-name="Path 362" d="M234.654,24.986a1.207,1.207,0,0,0-.224-.674.873.873,0,0,0-.785-.337,1.291,1.291,0,0,0-1.122.9,4.788,4.788,0,0,0-.224,1.237v2.248h-.9V23.412h.785l.112.787a1.79,1.79,0,0,1,1.571-.9,2,2,0,0,1,1.459.674,1.9,1.9,0,0,1,.337,1.124h-1.01Z" transform="translate(-60.394 -21.052)"/>
          </g>
        </g>
        <g id="Group_631" data-name="Group 631" transform="translate(210.765 181.002)">
          <g id="Group_630" data-name="Group 630" transform="translate(0 113.25)">
            <g id="Group" transform="translate(0 0)">
              <text id="The_page_you_are_looking_for_doesn_t_exist" data-name="The page you are looking for doesn’t exist" class="cls-2" transform="translate(0 12)"><tspan x="0" y="0">The page you are looking for doesn’t exist</tspan></text>
              <text id="or_an_other_error_has_occurred." data-name="or an other error has occurred." class="cls-2" transform="translate(36.468 28.187)"><tspan x="0" y="0">or an other error has occurred.</tspan></text>
            </g>
          </g>
          <g id="Group_613" data-name="Group 613" transform="translate(6.75 0)">
            <g id="Group_629" data-name="Group 629">
              <path id="Path_363" data-name="Path 363" d="M249.18,211.742v20.009H237.622V211.742H193.3V199.377L230.217,138H242.56l-37.926,63.4h32.989V173.522H249.18V201.4h12.68v10.342H249.18Z" transform="translate(-193.3 -135.977)"/>
              <path id="Path_364" data-name="Path 364" d="M323.091,225.68c-4.6,4.609-10.884,7.981-20.2,7.981s-15.6-3.372-20.2-7.981c-9.426-9.555-11-22.707-11-40.693s1.571-31.251,11-40.918c4.6-4.609,10.884-7.869,20.2-7.869s15.6,3.26,20.2,7.869c9.426,9.555,11,22.82,11,40.918S332.517,216.125,323.091,225.68Zm-8.64-74.754a16.321,16.321,0,0,0-11.557-4.272,16.83,16.83,0,0,0-11.557,4.272c-7.967,7.532-7.855,21.358-7.855,33.948a150.813,150.813,0,0,0,.449,15.963l35.121-43.166A20.019,20.019,0,0,0,314.451,150.926Zm7.406,19-34.785,43.054a22.63,22.63,0,0,0,4.152,5.958,16.321,16.321,0,0,0,11.557,4.272,16.83,16.83,0,0,0,11.557-4.272c7.967-7.532,7.855-21.358,7.855-33.948A134.413,134.413,0,0,0,321.857,169.924Z" transform="translate(-183.729 -136.2)"/>
              <path id="Path_365" data-name="Path 365" d="M400.38,211.742v20.009H388.822V211.742H344.5V199.377L381.417,138H393.76l-37.926,63.4h32.989V173.522H400.38V201.4h12.68v10.342H400.38Z" transform="translate(-174.841 -135.977)"/>
            </g>
          </g>
        </g>
      </g>
    </g>
    <g id="Group_677" data-name="Group 677">
      <g id="Group_676" data-name="Group 676">
        <g id="Group_675" data-name="Group 675">
          <g id="Group_674" data-name="Group 674">
            <g id="Group_616" data-name="Group 616" transform="translate(1310.851 497.439)">
              <path id="Path_64" data-name="Path 64" class="cls-3" d="M695,499.916,786.43,390l73.144,91.6,36.572-36.639,128,146.554h-91.43" transform="translate(-695 -390)"/>
              <path id="Path_65" data-name="Path 65" class="cls-3" d="M713.286,420l128,146.554H695" transform="translate(-695 -365.042)"/>
              <line id="Line_41" data-name="Line 41" class="cls-3" x1="38.401" transform="translate(181.032 201.512)"/>
              <line id="Line_42" data-name="Line 42" class="cls-3" x1="7.314" transform="translate(162.746 201.512)"/>
              <path id="Path_66" data-name="Path 66" class="cls-3" d="M881.865,508.344,869.613,494.6,825.36,444.593l-10.606,10.625L797.2,435.8" transform="translate(-610.316 -351.898)"/>
              <line id="Line_43" data-name="Line 43" class="cls-3" x1="8.594" y1="9.709" transform="translate(289.469 176.781)"/>
              <line id="Line_44" data-name="Line 44" class="cls-3" x1="3.657" y2="4.397" transform="translate(58.698 57.156)"/>
              <line id="Line_45" data-name="Line 45" class="cls-3" x2="12.435" y2="15.388" transform="translate(128.734 72.178)"/>
              <path id="Path_67" data-name="Path 67" class="cls-3" d="M734.8,423.918,751.989,403.4l17.006,20.884" transform="translate(-662.021 -378.852)"/>
              <g id="Group_121" data-name="Group 121" transform="translate(21.212 146.655)">
                <path id="Path_68" data-name="Path 68" class="cls-3" d="M734.943,477.606,720.863,463.5,706.6,477.606" transform="translate(-706.6 -463.5)"/>
                <line id="Line_46" data-name="Line 46" class="cls-3" y2="16.487" transform="translate(13.715 36.904)"/>
                <path id="Path_69" data-name="Path 69" class="cls-3" d="M734.943,487.606,720.863,473.5,706.6,487.606" transform="translate(-706.6 -461.185)"/>
                <path id="Path_70" data-name="Path 70" class="cls-3" d="M734.943,497.606,720.863,483.5,706.6,497.606" transform="translate(-706.6 -458.87)"/>
              </g>
              <g id="Group_122" data-name="Group 122" transform="translate(59.978 158.97)">
                <line id="Line_47" data-name="Line 47" class="cls-3" y2="16.487" transform="translate(13.715 24.589)"/>
                <path id="Path_71" data-name="Path 71" class="cls-3" d="M756.144,487.606,742.063,473.5,727.8,487.606" transform="translate(-727.8 -473.5)"/>
                <path id="Path_72" data-name="Path 72" class="cls-3" d="M756.144,497.606,742.063,483.5,727.8,497.606" transform="translate(-727.8 -471.185)"/>
              </g>
            </g>
            <path id="Path_366" data-name="Path 366" class="cls-3" d="M350.8,269.079a61.368,61.368,0,1,1,122.736,0" transform="translate(1113.42 268.933)"/>
            <path id="Path_367" data-name="Path 367" class="cls-3" d="M388.4,213.2a52.364,52.364,0,0,1,45.21,26.161" transform="translate(1137.188 272.49)"/>
            <path id="Path_368" data-name="Path 368" class="cls-3" d="M451,234.175c5.377-1.8,7.706-1.077,8.782,0s.717,2.514,1.7,2.873c1.7.718,3.584-3.232,6.81-3.591,1.434-.18,3.405.449,6,3.232" transform="translate(929.773 217.145)"/>
            <path id="Path_369" data-name="Path 369" class="cls-3" d="M333.6,201.891c7.514-2.509,10.734-1.613,12.165,0,1.431,1.434,1.073,3.405,2.326,3.943,2.326.9,5.009-4.481,9.3-5.018,1.968-.179,4.83.538,8.229,4.481" transform="translate(999.168 216.493)"/>
            <path id="Path_284" data-name="Path 284" class="cls-4" d="M535.3,232.024a9.864,9.864,0,0,0-19.7-.772,7.586,7.586,0,0,0-12,5.513,7.715,7.715,0,0,0,2.2,15.106" transform="translate(1061.698 323.942)"/>
            <path id="Path_285" data-name="Path 285" class="cls-1" d="M516.8,237.6" transform="translate(1063.58 325.533)"/>
            <path id="Path_286" data-name="Path 286" class="cls-4" d="M536.894,234.959a3.852,3.852,0,1,1,7.7,0v.441a7.849,7.849,0,0,1,6.934,7.718,7.664,7.664,0,0,1-7.7,7.718H512.9" transform="translate(1063.188 324.866)"/>
            <line id="Line_239" data-name="Line 239" class="cls-5" x2="178.801" transform="translate(1401.25 711.758)"/>
            <path id="Path_234" data-name="Path 234" d="M7.543,0,5.934,5.9,0,7.494l5.934,1.6,1.609,5.9,1.61-5.9,5.934-1.6L9.153,5.9Z" transform="translate(1438.621 395.207) rotate(13)"/>
            <path id="Path_234-2" data-name="Path 234" d="M5.814,0,4.574,4.544,0,5.776,4.574,7.009l1.24,4.544L7.054,7.008l4.574-1.232L7.054,4.544Z" transform="translate(1351.436 361.535) rotate(13)"/>
          </g>
        </g>
      </g>
    </g>
    <g id="Group_673" data-name="Group 673">
      <path id="Path_64-2" data-name="Path 64" class="cls-3" d="M1024.149,499.916,932.719,390l-73.144,91.6L823,444.958,695,591.512h91.43" transform="translate(-417 107.439)"/>
      <path id="Path_65-2" data-name="Path 65" class="cls-3" d="M823,420,695,566.554H841.289" transform="translate(-234.139 132.397)"/>
      <line id="Line_41-2" data-name="Line 41" class="cls-3" x2="38.401" transform="translate(387.716 698.951)"/>
      <line id="Line_42-2" data-name="Line 42" class="cls-3" x2="7.314" transform="translate(437.089 698.951)"/>
      <path id="Path_66-2" data-name="Path 66" class="cls-3" d="M797.2,508.344,809.452,494.6,853.7,444.593l10.606,10.625L881.864,435.8" transform="translate(-461.599 145.542)"/>
      <line id="Line_43-2" data-name="Line 43" class="cls-3" y1="9.709" x2="8.594" transform="translate(309.086 674.22)"/>
      <line id="Line_44-2" data-name="Line 44" class="cls-3" x2="3.657" y2="4.397" transform="translate(544.794 554.595)"/>
      <line id="Line_45-2" data-name="Line 45" class="cls-3" x1="12.435" y2="15.388" transform="translate(465.981 569.617)"/>
      <path id="Path_67-2" data-name="Path 67" class="cls-3" d="M768.995,423.918,751.806,403.4,734.8,424.284" transform="translate(-234.624 118.587)"/>
      <path id="Path_68-2" data-name="Path 68" class="cls-3" d="M706.6,477.606,720.68,463.5l14.263,14.106" transform="translate(-149.006 180.594)"/>
      <line id="Line_46-2" data-name="Line 46" class="cls-3" y2="16.487" transform="translate(572.223 680.998)"/>
      <path id="Path_69-2" data-name="Path 69" class="cls-3" d="M706.6,487.606,720.68,473.5l14.263,14.106" transform="translate(-149.006 182.909)"/>
      <path id="Path_70-2" data-name="Path 70" class="cls-3" d="M706.6,497.606,720.68,483.5l14.263,14.106" transform="translate(-149.006 185.225)"/>
      <line id="Line_47-2" data-name="Line 47" class="cls-3" y2="16.487" transform="translate(533.456 680.998)"/>
      <path id="Path_71-2" data-name="Path 71" class="cls-3" d="M727.8,487.606,741.88,473.5l14.263,14.106" transform="translate(-208.973 182.909)"/>
      <path id="Path_72-2" data-name="Path 72" class="cls-3" d="M727.8,497.606,741.88,483.5l14.263,14.106" transform="translate(-208.973 185.225)"/>
      <path id="Path_284-2" data-name="Path 284" class="cls-4" d="M549.137,235.714a13.532,13.532,0,0,0-27.028-1.059,10.407,10.407,0,0,0-16.459,7.564,10.584,10.584,0,0,0,3.02,20.724" transform="translate(-220.1 278.911)"/>
      <path id="Path_285-2" data-name="Path 285" class="cls-1" d="M516.8,237.6" transform="translate(-210.563 286.858)"/>
      <path id="Path_286-2" data-name="Path 286" class="cls-4" d="M545.817,236.394a5.285,5.285,0,1,1,10.57,0V237a10.768,10.768,0,0,1,9.513,10.589,10.514,10.514,0,0,1-10.57,10.589H512.9" transform="translate(-212.552 283.525)"/>
      <line id="Line_238" data-name="Line 238" class="cls-5" x2="178.801" transform="translate(338.433 711.758)"/>
      <path id="Path_370" data-name="Path 370" class="cls-3" d="M451,234.175c5.383-1.794,7.715-1.076,8.791,0s.718,2.512,1.7,2.871c1.7.718,3.588-3.23,6.818-3.588,1.435-.179,3.409.449,6.01,3.23" transform="translate(-20 267.071)"/>
      <g id="Group_672" data-name="Group 672" transform="matrix(-0.966, 0.259, -0.259, -0.966, 608.141, 409.517)">
        <g id="Group_632" data-name="Group 632" transform="matrix(1, -0.017, 0.017, 1, 87.102, -16.79)">
          <path id="Path_234-3" data-name="Path 234" d="M7.544,0l-1.612,5.9L0,7.493l5.934,1.6,1.607,5.894,1.612-5.9,5.936-1.6L9.151,5.89Z"/>
        </g>
        <g id="Group_633" data-name="Group 633" transform="matrix(1, -0.017, 0.017, 1, 6.246, 24.103)">
          <path id="Path_234-4" data-name="Path 234" d="M5.815,0,4.572,4.541,0,5.776l4.574,1.23L5.81,11.548,7.052,7,11.627,5.77,7.053,4.54Z"/>
        </g>
      </g>
    </g>
  </g>
</svg>
