<?xml version="1.0" encoding="utf-8"?>
<!-- Generator: Adobe Illustrator 19.0.0, SVG Export Plug-In . SVG Version: 6.00 Build 0)  -->
<svg version="1.1" id="north" xmlns="http://www.w3.org/2000/svg" xmlns:xlink="http://www.w3.org/1999/xlink" x="0px" y="0px"
	 viewBox="194 139 1000 515" style="enable-background:new 194 139 1000 515;" xml:space="preserve">
<style type="text/css">
	.st0{fill:none;stroke:#000000;stroke-width:2;stroke-linecap:round;stroke-linejoin:round;stroke-miterlimit:10;}
	.st1{fill:none;stroke:#000000;stroke-width:2;stroke-linecap:round;stroke-miterlimit:10;}
</style>
<g id="design_1_">
	<g>
		<path class="st0" d="M519,443.7v42.4c0,3.6,1.9,6.9,5,8.7L689,590c3.1,1.8,6.9,1.8,10,0l165-95.2c3.1-1.8,5-5.1,5-8.7v-42.4"/>
		<g>
			<line class="st1" x1="536.8" y1="352.9" x2="536.8" y2="371.5"/>
		</g>
		<g>
			<line class="st1" x1="536.8" y1="387.5" x2="536.8" y2="463.6"/>
		</g>
		<line class="st1" x1="694" y1="570.4" x2="841.3" y2="485.4"/>
		<g>
			<line class="st1" x1="849.9" y1="437.8" x2="849.9" y2="419.1"/>
		</g>
		<g>
			<line class="st1" x1="736.8" y1="263.9" x2="718.6" y2="253.7"/>
			<polyline class="st1" points="849.9,403.1 849.9,327 803.8,301.3 771.7,283.3 			"/>
		</g>
		<line class="st1" x1="594.6" y1="513" x2="546.7" y2="485.4"/>
		<line class="st1" x1="629" y1="532.9" x2="612.8" y2="523.5"/>
		<path class="st0" d="M869,363.5v-42.4c0-3.6-1.9-6.9-5-8.7l-165-95.2c-3.1-1.8-6.9-1.8-10,0l-165,95.2c-3.1,1.8-5,5.1-5,8.7v42.4"
			/>
		<g>
			<polyline class="st1" points="536.8,327 582.9,301.3 615,283.3 			"/>
		</g>
	</g>
	<g>
		<polyline class="st0" points="639,365.7 639,414.1 639,461.1 		"/>
		<line class="st0" x1="639" y1="349.4" x2="639" y2="357.6"/>
		<polyline class="st0" points="639,470.4 639,481.1 648,481.1 		"/>
		<polyline class="st0" points="745.2,344.9 734.5,344.9 734.5,353.9 		"/>
		<line class="st0" x1="734.5" y1="363.5" x2="734.5" y2="424.5"/>
		<line class="st0" x1="734.5" y1="437.3" x2="734.5" y2="443.7"/>
		<polyline class="st0" points="704.3,443.7 727.7,481.1 734.5,481.1 		"/>
		<line class="st0" x1="749.8" y1="445.5" x2="749.8" y2="481.1"/>
	</g>
	<g>
		<circle class="st0" cx="519" cy="404.1" r="7"/>
		<circle class="st0" cx="869" cy="404.1" r="7"/>
	</g>
	<g>
		<g>
			<g>
				<g>
					<polyline class="st0" points="586.2,391.7 595.7,382.2 605.2,391.7 					"/>
					<line class="st0" x1="596" y1="414.9" x2="596" y2="426"/>
					<polyline class="st0" points="586.2,404 595.7,394.5 605.2,404 					"/>
					<polyline class="st0" points="586.2,416.2 595.7,406.7 605.2,416.2 					"/>
				</g>
				<g>
					<line class="st0" x1="570.1" y1="414.9" x2="570.1" y2="426"/>
					<polyline class="st0" points="560.3,404 569.8,394.5 579.2,404 					"/>
					<polyline class="st0" points="560.3,416.2 569.8,406.7 579.2,416.2 					"/>
				</g>
			</g>
		</g>
		<g>
			<g>
				<g>
					<polyline class="st0" points="801.8,391.7 792.3,382.2 782.8,391.7 					"/>
					<line class="st0" x1="792" y1="414.9" x2="792" y2="426"/>
					<polyline class="st0" points="801.8,404 792.3,394.5 782.8,404 					"/>
					<polyline class="st0" points="801.8,416.2 792.3,406.7 782.8,416.2 					"/>
				</g>
				<g>
					<line class="st0" x1="817.9" y1="414.9" x2="817.9" y2="426"/>
					<polyline class="st0" points="827.7,404 818.2,394.5 808.8,404 					"/>
					<polyline class="st0" points="827.7,416.2 818.2,406.7 808.8,416.2 					"/>
				</g>
			</g>
		</g>
	</g>
	<line class="st0" x1="556.8" y1="437.8" x2="612.8" y2="437.8"/>
	<line class="st0" x1="773.9" y1="437.8" x2="829.9" y2="437.8"/>
	<g>
		<g>
			<polygon class="st0" points="694,268 664,320.9 694,303.4 724,321 			"/>
			<path class="st0" d="M629,337.1h36l40.6,66.9c2.3,4,4.7,8.3,7.1,12.9c2.4,4.6,4.7,9,6.7,13.1l7.2,14.5h0.4
				c-0.4-5.2-0.8-10.6-1-15.9c-0.3-4.6-0.5-9.5-0.6-14.7s-0.2-10.1-0.2-14.5v-62.3H759v154h-36.2l-40.2-66c-2.3-3.9-4.8-8.2-7.2-13
				c-2.5-4.8-4.8-9.3-6.8-13.5c-2.5-4.8-4.9-9.7-7.2-14.7H661c0.3,5.4,0.5,10.8,0.8,16.1c0.3,4.6,0.5,9.5,0.7,14.7
				s0.3,10.1,0.3,14.5v61.9H629V337.1z"/>
		</g>
		<line class="st0" x1="685.8" y1="295.4" x2="694.2" y2="280.9"/>
	</g>
	<line class="st0" x1="556.8" y1="447.8" x2="612.8" y2="447.8"/>
	<line class="st0" x1="773.9" y1="447.8" x2="829.9" y2="447.8"/>
</g>
<polygon class="st0" points="539.8,247.8 550,250.6 539.8,253.4 537,263.6 534.2,253.4 524,250.6 534.2,247.8 537,237.6 "/>
<polygon points="908.6,332 914.5,333.6 908.6,335.2 907,341.1 905.4,335.2 899.5,333.6 905.4,332 907,326.1 "/>
<polygon class="st0" points="906.8,463.4 898.9,470.5 909.3,468.3 916.4,476.2 914.2,465.8 922.1,458.7 911.7,460.9 904.6,453 "/>
<polygon points="568.9,576 563,577.6 568.9,579.2 570.5,585.1 572.1,579.2 578,577.6 572.1,576 570.5,570.1 "/>
<polygon class="st0" points="484.4,503.2 472.8,503.1 482.7,509 482.6,520.6 488.5,510.6 500.1,510.7 490.2,504.8 490.3,493.2 "/>
<polygon points="618.9,214 613,215.6 618.9,217.2 620.5,223.1 622.1,217.2 628,215.6 622.1,214 620.5,208.1 "/>
<polygon points="827.9,559 822,560.6 827.9,562.2 829.5,568.1 831.1,562.2 837,560.6 831.1,559 829.5,553.1 "/>
<polygon class="st0" points="813.7,211.7 802.1,211.6 812.1,217.5 812,229.1 817.9,219.1 829.5,219.2 819.5,213.3 819.6,201.7 "/>
<g>
	<g>
		<g>
			<line class="st0" x1="499" y1="414.6" x2="449" y2="414.6"/>
		</g>
		<g>
			<line class="st0" x1="489" y1="403.6" x2="436" y2="403.6"/>
			<line class="st0" x1="499" y1="392.6" x2="449" y2="392.6"/>
		</g>
	</g>
	<g>
		<g>
			<path class="st0" d="M408.3,407.4c3.1-3.1,7.8-3.3,7.8-3.3s-0.3,4.7-3.3,7.7c-3.1,3.1-7.8,3.3-7.8,3.3S405.2,410.5,408.3,407.4z"
				/>
			<path class="st0" d="M408.3,400.8c3.1,3.1,7.8,3.3,7.8,3.3s-0.3-4.7-3.3-7.7c-3.1-3.1-7.8-3.3-7.8-3.3S405.2,397.7,408.3,400.8z"
				/>
			<path class="st0" d="M401.9,401c3.5,0,6.3,3.1,6.3,3.1s-2.8,3.1-6.3,3.1s-6.3-3.1-6.3-3.1S398.4,401,401.9,401z"/>
		</g>
		<path class="st0" d="M417.8,407.4c3.1-3.1,7.8-3.3,7.8-3.3s-0.3,4.7-3.3,7.7s-7.8,3.3-7.8,3.3S414.7,410.5,417.8,407.4z"/>
		<path class="st0" d="M417.8,400.8c3.1,3.1,7.8,3.3,7.8,3.3s-0.3-4.7-3.3-7.7s-7.8-3.3-7.8-3.3S414.7,397.7,417.8,400.8z"/>
		<g>
			<path class="st0" d="M427.8,407.4c3.1-3.1,7.8-3.3,7.8-3.3s-0.3,4.7-3.3,7.7s-7.8,3.3-7.8,3.3S424.7,410.5,427.8,407.4z"/>
			<path class="st0" d="M427.8,400.8c3.1,3.1,7.8,3.3,7.8,3.3s-0.3-4.7-3.3-7.7s-7.8-3.3-7.8-3.3S424.7,397.7,427.8,400.8z"/>
		</g>
	</g>
</g>
<g>
	<g>
		<g>
			<line class="st0" x1="889" y1="392.6" x2="939" y2="392.6"/>
		</g>
		<g>
			<line class="st0" x1="899" y1="403.6" x2="952" y2="403.6"/>
			<line class="st0" x1="889" y1="414.6" x2="939" y2="414.6"/>
		</g>
	</g>
	<g>
		<g>
			<path class="st0" d="M979.7,399.8c-3.1,3.1-7.8,3.3-7.8,3.3s0.3-4.7,3.3-7.7s7.8-3.3,7.8-3.3S982.8,396.7,979.7,399.8z"/>
			<path class="st0" d="M979.7,406.4c-3.1-3.1-7.8-3.3-7.8-3.3s0.3,4.7,3.3,7.7s7.8,3.3,7.8,3.3S982.8,409.5,979.7,406.4z"/>
			<path class="st0" d="M986.1,406.2c-3.5,0-6.3-3.1-6.3-3.1s2.8-3.1,6.3-3.1s6.3,3.1,6.3,3.1S989.6,406.2,986.1,406.2z"/>
		</g>
		<path class="st0" d="M970.2,399.8c-3.1,3.1-7.8,3.3-7.8,3.3s0.3-4.7,3.3-7.7s7.8-3.3,7.8-3.3S973.3,396.7,970.2,399.8z"/>
		<path class="st0" d="M970.2,406.4c-3.1-3.1-7.8-3.3-7.8-3.3s0.3,4.7,3.3,7.7s7.8,3.3,7.8,3.3S973.3,409.5,970.2,406.4z"/>
		<g>
			<path class="st0" d="M960.2,399.8c-3.1,3.1-7.8,3.3-7.8,3.3s0.3-4.7,3.3-7.7s7.8-3.3,7.8-3.3S963.3,396.7,960.2,399.8z"/>
			<path class="st0" d="M960.2,406.4c-3.1-3.1-7.8-3.3-7.8-3.3s0.3,4.7,3.3,7.7s7.8,3.3,7.8,3.3S963.3,409.5,960.2,406.4z"/>
		</g>
	</g>
</g>
<polygon points="487.6,356 493.5,357.6 487.6,359.2 486,365.1 484.4,359.2 478.5,357.6 484.4,356 486,350.1 "/>
</svg>
