<?xml version="1.0" encoding="utf-8"?>
<!-- Generator: Adobe Illustrator 22.1.0, SVG Export Plug-In . SVG Version: 6.00 Build 0)  -->
<svg version="1.1" id="north" xmlns="http://www.w3.org/2000/svg" xmlns:xlink="http://www.w3.org/1999/xlink" x="0px" y="0px"
	 viewBox="0 0 1000 1000" style="enable-background:new 0 0 1000 1000;" xml:space="preserve">
<style type="text/css">
	.st0{fill:none;stroke:#000000;stroke-width:2;stroke-linecap:round;stroke-linejoin:round;stroke-miterlimit:10;}
	.st1{fill:none;stroke:#000000;stroke-width:2;stroke-linecap:round;stroke-miterlimit:10;}
</style>
<g id="design_1_">
	<g>
		<path class="st0" d="M325,540.1v42.4c0,3.6,1.9,6.9,5,8.7l165,95.2c3.1,1.8,6.9,1.8,10,0l165-95.2c3.1-1.8,5-5.1,5-8.7v-42.4"/>
		<g>
			<line class="st1" x1="342.8" y1="449.3" x2="342.8" y2="467.9"/>
		</g>
		<g>
			<line class="st1" x1="342.8" y1="483.9" x2="342.8" y2="560"/>
		</g>
		<line class="st1" x1="500" y1="666.8" x2="647.3" y2="581.8"/>
		<g>
			<line class="st1" x1="655.9" y1="534.2" x2="655.9" y2="515.5"/>
		</g>
		<g>
			<line class="st1" x1="542.8" y1="360.3" x2="524.6" y2="350.1"/>
			<polyline class="st1" points="655.9,499.5 655.9,423.4 609.8,397.7 577.7,379.7 			"/>
		</g>
		<line class="st1" x1="400.6" y1="609.4" x2="352.7" y2="581.8"/>
		<line class="st1" x1="435" y1="629.3" x2="418.8" y2="619.9"/>
		<path class="st0" d="M675,459.9v-42.4c0-3.6-1.9-6.9-5-8.7l-165-95.2c-3.1-1.8-6.9-1.8-10,0l-165,95.2c-3.1,1.8-5,5.1-5,8.7v42.4"
			/>
		<g>
			<polyline class="st1" points="342.8,423.4 388.9,397.7 421,379.7 			"/>
		</g>
	</g>
	<g>
		<polyline class="st0" points="445,462.1 445,510.5 445,557.5 		"/>
		<line class="st0" x1="445" y1="445.8" x2="445" y2="454"/>
		<polyline class="st0" points="445,566.8 445,577.5 454,577.5 		"/>
		<polyline class="st0" points="551.2,441.3 540.5,441.3 540.5,450.3 		"/>
		<line class="st0" x1="540.5" y1="459.9" x2="540.5" y2="520.9"/>
		<line class="st0" x1="540.5" y1="533.7" x2="540.5" y2="540.1"/>
		<polyline class="st0" points="510.3,540.1 533.7,577.5 540.5,577.5 		"/>
		<line class="st0" x1="555.8" y1="541.9" x2="555.8" y2="577.5"/>
	</g>
	<g>
		<circle class="st0" cx="325" cy="500.5" r="7"/>
		<circle class="st0" cx="675" cy="500.5" r="7"/>
	</g>
	<g>
		<g>
			<g>
				<g>
					<polyline class="st0" points="392.2,488.1 401.7,478.6 411.2,488.1 					"/>
					<line class="st0" x1="402" y1="511.3" x2="402" y2="522.4"/>
					<polyline class="st0" points="392.2,500.4 401.7,490.9 411.2,500.4 					"/>
					<polyline class="st0" points="392.2,512.6 401.7,503.1 411.2,512.6 					"/>
				</g>
				<g>
					<line class="st0" x1="376.1" y1="511.3" x2="376.1" y2="522.4"/>
					<polyline class="st0" points="366.3,500.4 375.8,490.9 385.2,500.4 					"/>
					<polyline class="st0" points="366.3,512.6 375.8,503.1 385.2,512.6 					"/>
				</g>
			</g>
		</g>
		<g>
			<g>
				<g>
					<polyline class="st0" points="607.8,488.1 598.3,478.6 588.8,488.1 					"/>
					<line class="st0" x1="598" y1="511.3" x2="598" y2="522.4"/>
					<polyline class="st0" points="607.8,500.4 598.3,490.9 588.8,500.4 					"/>
					<polyline class="st0" points="607.8,512.6 598.3,503.1 588.8,512.6 					"/>
				</g>
				<g>
					<line class="st0" x1="623.9" y1="511.3" x2="623.9" y2="522.4"/>
					<polyline class="st0" points="633.7,500.4 624.2,490.9 614.8,500.4 					"/>
					<polyline class="st0" points="633.7,512.6 624.2,503.1 614.8,512.6 					"/>
				</g>
			</g>
		</g>
	</g>
	<line class="st0" x1="362.8" y1="534.2" x2="418.8" y2="534.2"/>
	<line class="st0" x1="579.9" y1="534.2" x2="635.9" y2="534.2"/>
	<g>
		<g>
			<polygon class="st0" points="500,364.4 470,417.3 500,399.8 530,417.4 			"/>
			<path class="st0" d="M435,433.5h36l40.6,66.9c2.3,4,4.7,8.3,7.1,12.9c2.4,4.6,4.7,9,6.7,13.1l7.2,14.5h0.4
				c-0.4-5.2-0.8-10.6-1-15.9c-0.3-4.6-0.5-9.5-0.6-14.7c-0.1-5.2-0.2-10.1-0.2-14.5v-62.3H565v154h-36.2l-40.2-66
				c-2.3-3.9-4.8-8.2-7.2-13c-2.5-4.8-4.8-9.3-6.8-13.5c-2.5-4.8-4.9-9.7-7.2-14.7h-0.4c0.3,5.4,0.5,10.8,0.8,16.1
				c0.3,4.6,0.5,9.5,0.7,14.7c0.2,5.2,0.3,10.1,0.3,14.5v61.9H435V433.5z"/>
		</g>
		<line class="st0" x1="491.8" y1="391.8" x2="500.2" y2="377.3"/>
	</g>
	<line class="st0" x1="362.8" y1="544.2" x2="418.8" y2="544.2"/>
	<line class="st0" x1="579.9" y1="544.2" x2="635.9" y2="544.2"/>
</g>
<polygon class="st0" points="345.8,344.2 356,347 345.8,349.8 343,360 340.2,349.8 330,347 340.2,344.2 343,334 "/>
<polygon points="714.6,428.4 720.5,430 714.6,431.6 713,437.5 711.4,431.6 705.5,430 711.4,428.4 713,422.5 "/>
<polygon class="st0" points="712.8,559.8 704.9,566.9 715.3,564.7 722.4,572.6 720.2,562.2 728.1,555.1 717.7,557.3 710.6,549.4 "/>
<polygon points="374.9,672.4 369,674 374.9,675.6 376.5,681.5 378.1,675.6 384,674 378.1,672.4 376.5,666.5 "/>
<polygon class="st0" points="290.4,599.6 278.8,599.5 288.7,605.4 288.6,617 294.5,607 306.1,607.1 296.2,601.2 296.3,589.6 "/>
<polygon points="424.9,310.4 419,312 424.9,313.6 426.5,319.5 428.1,313.6 434,312 428.1,310.4 426.5,304.5 "/>
<polygon points="633.9,655.4 628,657 633.9,658.6 635.5,664.5 637.1,658.6 643,657 637.1,655.4 635.5,649.5 "/>
<polygon class="st0" points="619.7,308.1 608.1,308 618.1,313.9 618,325.5 623.9,315.5 635.5,315.6 625.5,309.7 625.6,298.1 "/>
<g>
	<g>
		<g>
			<line class="st0" x1="305" y1="511" x2="255" y2="511"/>
		</g>
		<g>
			<line class="st0" x1="295" y1="500" x2="242" y2="500"/>
			<line class="st0" x1="305" y1="489" x2="255" y2="489"/>
		</g>
	</g>
	<g>
		<g>
			<path class="st0" d="M214.3,503.8c3.1-3.1,7.8-3.3,7.8-3.3s-0.3,4.7-3.3,7.7c-3.1,3.1-7.8,3.3-7.8,3.3S211.2,506.9,214.3,503.8z"
				/>
			<path class="st0" d="M214.3,497.2c3.1,3.1,7.8,3.3,7.8,3.3s-0.3-4.7-3.3-7.7c-3.1-3.1-7.8-3.3-7.8-3.3S211.2,494.1,214.3,497.2z"
				/>
			<path class="st0" d="M207.9,497.4c3.5,0,6.3,3.1,6.3,3.1s-2.8,3.1-6.3,3.1s-6.3-3.1-6.3-3.1S204.4,497.4,207.9,497.4z"/>
		</g>
		<path class="st0" d="M223.8,503.8c3.1-3.1,7.8-3.3,7.8-3.3s-0.3,4.7-3.3,7.7s-7.8,3.3-7.8,3.3S220.7,506.9,223.8,503.8z"/>
		<path class="st0" d="M223.8,497.2c3.1,3.1,7.8,3.3,7.8,3.3s-0.3-4.7-3.3-7.7s-7.8-3.3-7.8-3.3S220.7,494.1,223.8,497.2z"/>
		<g>
			<path class="st0" d="M233.8,503.8c3.1-3.1,7.8-3.3,7.8-3.3s-0.3,4.7-3.3,7.7s-7.8,3.3-7.8,3.3S230.7,506.9,233.8,503.8z"/>
			<path class="st0" d="M233.8,497.2c3.1,3.1,7.8,3.3,7.8,3.3s-0.3-4.7-3.3-7.7s-7.8-3.3-7.8-3.3S230.7,494.1,233.8,497.2z"/>
		</g>
	</g>
</g>
<g>
	<g>
		<g>
			<line class="st0" x1="695" y1="489" x2="745" y2="489"/>
		</g>
		<g>
			<line class="st0" x1="705" y1="500" x2="758" y2="500"/>
			<line class="st0" x1="695" y1="511" x2="745" y2="511"/>
		</g>
	</g>
	<g>
		<g>
			<path class="st0" d="M785.7,496.2c-3.1,3.1-7.8,3.3-7.8,3.3s0.3-4.7,3.3-7.7s7.8-3.3,7.8-3.3S788.8,493.1,785.7,496.2z"/>
			<path class="st0" d="M785.7,502.8c-3.1-3.1-7.8-3.3-7.8-3.3s0.3,4.7,3.3,7.7s7.8,3.3,7.8,3.3S788.8,505.9,785.7,502.8z"/>
			<path class="st0" d="M792.1,502.6c-3.5,0-6.3-3.1-6.3-3.1s2.8-3.1,6.3-3.1c3.5,0,6.3,3.1,6.3,3.1S795.6,502.6,792.1,502.6z"/>
		</g>
		<path class="st0" d="M776.2,496.2c-3.1,3.1-7.8,3.3-7.8,3.3s0.3-4.7,3.3-7.7s7.8-3.3,7.8-3.3S779.3,493.1,776.2,496.2z"/>
		<path class="st0" d="M776.2,502.8c-3.1-3.1-7.8-3.3-7.8-3.3s0.3,4.7,3.3,7.7s7.8,3.3,7.8,3.3S779.3,505.9,776.2,502.8z"/>
		<g>
			<path class="st0" d="M766.2,496.2c-3.1,3.1-7.8,3.3-7.8,3.3s0.3-4.7,3.3-7.7s7.8-3.3,7.8-3.3S769.3,493.1,766.2,496.2z"/>
			<path class="st0" d="M766.2,502.8c-3.1-3.1-7.8-3.3-7.8-3.3s0.3,4.7,3.3,7.7s7.8,3.3,7.8,3.3S769.3,505.9,766.2,502.8z"/>
		</g>
	</g>
</g>
<polygon points="293.6,452.4 299.5,454 293.6,455.6 292,461.5 290.4,455.6 284.5,454 290.4,452.4 292,446.5 "/>
</svg>
