<?xml version="1.0" encoding="utf-8"?>
<!-- Generator: Adobe Illustrator 22.1.0, SVG Export Plug-In . SVG Version: 6.00 Build 0)  -->
<svg version="1.1" id="north" xmlns="http://www.w3.org/2000/svg" xmlns:xlink="http://www.w3.org/1999/xlink" x="0px" y="0px"
	 viewBox="0 0 1000 1000" style="enable-background:new 0 0 1000 1000;" xml:space="preserve">
<style type="text/css">
	.st0{fill:none;stroke:#000000;stroke-width:2;stroke-linecap:round;stroke-linejoin:round;stroke-miterlimit:10;}
	.st1{fill:none;stroke:#000000;stroke-width:2;stroke-linecap:round;stroke-miterlimit:10;}
</style>
<g>
	<g id="design_1_">
		<g>
			<path class="st0" d="M325,547.2v42.4c0,3.6,1.9,6.9,5,8.7l165,95.2c3.1,1.8,6.9,1.8,10,0l165-95.2c3.1-1.8,5-5.1,5-8.7v-42.4"/>
			<g>
				<line class="st1" x1="342.8" y1="456.3" x2="342.8" y2="474.9"/>
			</g>
			<g>
				<line class="st1" x1="342.8" y1="490.9" x2="342.8" y2="567"/>
			</g>
			<line class="st1" x1="500" y1="673.8" x2="647.3" y2="588.8"/>
			<g>
				<line class="st1" x1="655.9" y1="541.2" x2="655.9" y2="522.5"/>
			</g>
			<g>
				<line class="st1" x1="542.8" y1="367.3" x2="524.6" y2="357.2"/>
				<polyline class="st1" points="655.9,506.5 655.9,430.4 609.8,404.7 577.7,386.8 				"/>
			</g>
			<line class="st1" x1="400.6" y1="616.4" x2="352.7" y2="588.8"/>
			<line class="st1" x1="435" y1="636.3" x2="418.8" y2="626.9"/>
			<path class="st0" d="M675,466.9v-42.4c0-3.6-1.9-6.9-5-8.7l-165-95.2c-3.1-1.8-6.9-1.8-10,0l-165,95.2c-3.1,1.8-5,5.1-5,8.7v42.4
				"/>
			<g>
				<polyline class="st1" points="342.8,430.4 388.9,404.7 421,386.8 				"/>
			</g>
		</g>
		<g>
			<polyline class="st0" points="445,469.1 445,517.6 445,564.6 			"/>
			<line class="st0" x1="445" y1="452.9" x2="445" y2="461"/>
			<polyline class="st0" points="445,573.9 445,584.6 454,584.6 			"/>
			<polyline class="st0" points="551.2,448.4 540.5,448.4 540.5,457.4 			"/>
			<line class="st0" x1="540.5" y1="466.9" x2="540.5" y2="527.9"/>
			<line class="st0" x1="540.5" y1="540.8" x2="540.5" y2="547.2"/>
			<polyline class="st0" points="510.3,547.2 533.7,584.6 540.5,584.6 			"/>
			<line class="st0" x1="555.8" y1="549" x2="555.8" y2="584.6"/>
		</g>
		<g>
			<circle class="st0" cx="325" cy="507.6" r="7"/>
			<circle class="st0" cx="675" cy="507.6" r="7"/>
		</g>
		<g>
			<g>
				<g>
					<g>
						<polyline class="st0" points="392.2,495.2 401.7,485.7 411.2,495.2 						"/>
						<line class="st0" x1="402" y1="518.3" x2="402" y2="529.4"/>
						<polyline class="st0" points="392.2,507.4 401.7,497.9 411.2,507.4 						"/>
						<polyline class="st0" points="392.2,519.7 401.7,510.2 411.2,519.7 						"/>
					</g>
					<g>
						<line class="st0" x1="376.1" y1="518.3" x2="376.1" y2="529.4"/>
						<polyline class="st0" points="366.3,507.4 375.8,497.9 385.2,507.4 						"/>
						<polyline class="st0" points="366.3,519.7 375.8,510.2 385.2,519.7 						"/>
					</g>
				</g>
			</g>
			<g>
				<g>
					<g>
						<polyline class="st0" points="607.8,495.2 598.3,485.7 588.8,495.2 						"/>
						<line class="st0" x1="598" y1="518.3" x2="598" y2="529.4"/>
						<polyline class="st0" points="607.8,507.4 598.3,497.9 588.8,507.4 						"/>
						<polyline class="st0" points="607.8,519.7 598.3,510.2 588.8,519.7 						"/>
					</g>
					<g>
						<line class="st0" x1="623.9" y1="518.3" x2="623.9" y2="529.4"/>
						<polyline class="st0" points="633.7,507.4 624.2,497.9 614.8,507.4 						"/>
						<polyline class="st0" points="633.7,519.7 624.2,510.2 614.8,519.7 						"/>
					</g>
				</g>
			</g>
		</g>
		<line class="st0" x1="362.8" y1="541.2" x2="418.8" y2="541.2"/>
		<line class="st0" x1="579.9" y1="541.2" x2="635.9" y2="541.2"/>
		<g>
			<g>
				<polygon class="st0" points="500,371.4 470,424.3 500,406.9 530,424.4 				"/>
				<path class="st0" d="M435,440.6h36l40.6,66.9c2.3,4,4.7,8.3,7.1,12.9c2.4,4.6,4.7,9,6.7,13.1l7.2,14.5h0.4
					c-0.4-5.2-0.8-10.6-1-15.9c-0.3-4.6-0.5-9.5-0.6-14.7s-0.2-10.1-0.2-14.5v-62.3H565v154h-36.2l-40.2-66c-2.3-3.9-4.8-8.2-7.2-13
					c-2.5-4.8-4.8-9.3-6.8-13.5c-2.5-4.8-4.9-9.7-7.2-14.7H467c0.3,5.4,0.5,10.8,0.8,16.1c0.3,4.6,0.5,9.5,0.7,14.7
					c0.2,5.2,0.3,10.1,0.3,14.5v61.9H435V440.6z"/>
			</g>
			<line class="st0" x1="491.8" y1="398.8" x2="500.2" y2="384.4"/>
		</g>
		<line class="st0" x1="362.8" y1="551.2" x2="418.8" y2="551.2"/>
		<line class="st0" x1="579.9" y1="551.2" x2="635.9" y2="551.2"/>
	</g>
	<g>
		<g>
			<g>
				<line class="st0" x1="305" y1="518.1" x2="255" y2="518.1"/>
			</g>
			<g>
				<line class="st0" x1="295" y1="507.1" x2="242" y2="507.1"/>
				<line class="st0" x1="305" y1="496.1" x2="255" y2="496.1"/>
			</g>
		</g>
		<g>
			<g>
				<path class="st0" d="M214.3,510.9c3.1-3.1,7.8-3.3,7.8-3.3s-0.3,4.7-3.3,7.7c-3.1,3.1-7.8,3.3-7.8,3.3S211.2,513.9,214.3,510.9z
					"/>
				<path class="st0" d="M214.3,504.2c3.1,3.1,7.8,3.3,7.8,3.3s-0.3-4.7-3.3-7.7c-3.1-3.1-7.8-3.3-7.8-3.3S211.2,501.2,214.3,504.2z
					"/>
				<path class="st0" d="M207.9,504.4c3.5,0,6.3,3.1,6.3,3.1s-2.8,3.1-6.3,3.1s-6.3-3.1-6.3-3.1S204.4,504.4,207.9,504.4z"/>
			</g>
			<path class="st0" d="M223.8,510.9c3.1-3.1,7.8-3.3,7.8-3.3s-0.3,4.7-3.3,7.7c-3.1,3.1-7.8,3.3-7.8,3.3S220.7,513.9,223.8,510.9z"
				/>
			<path class="st0" d="M223.8,504.2c3.1,3.1,7.8,3.3,7.8,3.3s-0.3-4.7-3.3-7.7s-7.8-3.3-7.8-3.3S220.7,501.2,223.8,504.2z"/>
			<g>
				<path class="st0" d="M233.8,510.9c3.1-3.1,7.8-3.3,7.8-3.3s-0.3,4.7-3.3,7.7c-3.1,3.1-7.8,3.3-7.8,3.3S230.7,513.9,233.8,510.9z
					"/>
				<path class="st0" d="M233.8,504.2c3.1,3.1,7.8,3.3,7.8,3.3s-0.3-4.7-3.3-7.7s-7.8-3.3-7.8-3.3S230.7,501.2,233.8,504.2z"/>
			</g>
		</g>
	</g>
	<g>
		<g>
			<g>
				<line class="st0" x1="695" y1="496.1" x2="745" y2="496.1"/>
			</g>
			<g>
				<line class="st0" x1="705" y1="507.1" x2="758" y2="507.1"/>
				<line class="st0" x1="695" y1="518.1" x2="745" y2="518.1"/>
			</g>
		</g>
		<g>
			<g>
				<path class="st0" d="M785.7,503.2c-3.1,3.1-7.8,3.3-7.8,3.3s0.3-4.7,3.3-7.7s7.8-3.3,7.8-3.3S788.8,500.2,785.7,503.2z"/>
				<path class="st0" d="M785.7,509.9c-3.1-3.1-7.8-3.3-7.8-3.3s0.3,4.7,3.3,7.7c3.1,3.1,7.8,3.3,7.8,3.3S788.8,512.9,785.7,509.9z"
					/>
				<path class="st0" d="M792.1,509.7c-3.5,0-6.3-3.1-6.3-3.1s2.8-3.1,6.3-3.1s6.3,3.1,6.3,3.1S795.6,509.7,792.1,509.7z"/>
			</g>
			<path class="st0" d="M776.2,503.2c-3.1,3.1-7.8,3.3-7.8,3.3s0.3-4.7,3.3-7.7s7.8-3.3,7.8-3.3S779.3,500.2,776.2,503.2z"/>
			<path class="st0" d="M776.2,509.9c-3.1-3.1-7.8-3.3-7.8-3.3s0.3,4.7,3.3,7.7c3.1,3.1,7.8,3.3,7.8,3.3S779.3,512.9,776.2,509.9z"
				/>
			<g>
				<path class="st0" d="M766.2,503.2c-3.1,3.1-7.8,3.3-7.8,3.3s0.3-4.7,3.3-7.7s7.8-3.3,7.8-3.3S769.3,500.2,766.2,503.2z"/>
				<path class="st0" d="M766.2,509.9c-3.1-3.1-7.8-3.3-7.8-3.3s0.3,4.7,3.3,7.7c3.1,3.1,7.8,3.3,7.8,3.3S769.3,512.9,766.2,509.9z"
					/>
			</g>
		</g>
	</g>
</g>
</svg>
