<?xml version="1.0" encoding="utf-8"?>
<!-- Generator: Adobe Illustrator 19.0.0, SVG Export Plug-In . SVG Version: 6.00 Build 0)  -->
<svg version="1.1" id="north" xmlns="http://www.w3.org/2000/svg" xmlns:xlink="http://www.w3.org/1999/xlink" x="0px" y="0px"
	 viewBox="194 132 1000 515" style="enable-background:new 194 132 1000 515;" xml:space="preserve">
<style type="text/css">
	.st0{fill:none;stroke:#FFFFFF;stroke-width:2;stroke-linecap:round;stroke-linejoin:round;stroke-miterlimit:10;}
	.st1{fill:none;stroke:#FFFFFF;stroke-width:2;stroke-linecap:round;stroke-miterlimit:10;}
	.st2{fill:#FFFFFF;}
</style>
<g id="design_1_">
	<g>
		<path class="st0" d="M519,436.1v42.4c0,3.6,1.9,6.9,5,8.7l165,95.2c3.1,1.8,6.9,1.8,10,0l165-95.2c3.1-1.8,5-5.1,5-8.7v-42.4"/>
		<g>
			<line class="st1" x1="536.8" y1="345.3" x2="536.8" y2="363.9"/>
		</g>
		<g>
			<line class="st1" x1="536.8" y1="379.9" x2="536.8" y2="456"/>
		</g>
		<line class="st1" x1="694" y1="562.8" x2="841.3" y2="477.8"/>
		<g>
			<line class="st1" x1="849.9" y1="430.2" x2="849.9" y2="411.5"/>
		</g>
		<g>
			<line class="st1" x1="736.8" y1="256.3" x2="718.6" y2="246.1"/>
			<polyline class="st1" points="849.9,395.5 849.9,319.4 803.8,293.7 771.7,275.7 			"/>
		</g>
		<line class="st1" x1="594.6" y1="505.4" x2="546.7" y2="477.8"/>
		<line class="st1" x1="629" y1="525.3" x2="612.8" y2="515.9"/>
		<path class="st0" d="M869,355.9v-42.4c0-3.6-1.9-6.9-5-8.7l-165-95.2c-3.1-1.8-6.9-1.8-10,0l-165,95.2c-3.1,1.8-5,5.1-5,8.7v42.4"
			/>
		<g>
			<polyline class="st1" points="536.8,319.4 582.9,293.7 615,275.7 			"/>
		</g>
	</g>
	<g>
		<polyline class="st0" points="639,358.1 639,406.5 639,453.5 		"/>
		<line class="st0" x1="639" y1="341.8" x2="639" y2="350"/>
		<polyline class="st0" points="639,462.8 639,473.5 648,473.5 		"/>
		<polyline class="st0" points="745.2,337.3 734.5,337.3 734.5,346.3 		"/>
		<line class="st0" x1="734.5" y1="355.9" x2="734.5" y2="416.9"/>
		<line class="st0" x1="734.5" y1="429.7" x2="734.5" y2="436.1"/>
		<polyline class="st0" points="704.3,436.1 727.7,473.5 734.5,473.5 		"/>
		<line class="st0" x1="749.8" y1="437.9" x2="749.8" y2="473.5"/>
	</g>
	<g>
		<circle class="st0" cx="519" cy="396.5" r="7"/>
		<circle class="st0" cx="869" cy="396.5" r="7"/>
	</g>
	<g>
		<g>
			<g>
				<g>
					<polyline class="st0" points="586.2,384.1 595.7,374.6 605.2,384.1 					"/>
					<line class="st0" x1="596" y1="407.3" x2="596" y2="418.4"/>
					<polyline class="st0" points="586.2,396.4 595.7,386.9 605.2,396.4 					"/>
					<polyline class="st0" points="586.2,408.6 595.7,399.1 605.2,408.6 					"/>
				</g>
				<g>
					<line class="st0" x1="570.1" y1="407.3" x2="570.1" y2="418.4"/>
					<polyline class="st0" points="560.3,396.4 569.8,386.9 579.2,396.4 					"/>
					<polyline class="st0" points="560.3,408.6 569.8,399.1 579.2,408.6 					"/>
				</g>
			</g>
		</g>
		<g>
			<g>
				<g>
					<polyline class="st0" points="801.8,384.1 792.3,374.6 782.8,384.1 					"/>
					<line class="st0" x1="792" y1="407.3" x2="792" y2="418.4"/>
					<polyline class="st0" points="801.8,396.4 792.3,386.9 782.8,396.4 					"/>
					<polyline class="st0" points="801.8,408.6 792.3,399.1 782.8,408.6 					"/>
				</g>
				<g>
					<line class="st0" x1="817.9" y1="407.3" x2="817.9" y2="418.4"/>
					<polyline class="st0" points="827.7,396.4 818.2,386.9 808.8,396.4 					"/>
					<polyline class="st0" points="827.7,408.6 818.2,399.1 808.8,408.6 					"/>
				</g>
			</g>
		</g>
	</g>
	<line class="st0" x1="556.8" y1="430.2" x2="612.8" y2="430.2"/>
	<line class="st0" x1="773.9" y1="430.2" x2="829.9" y2="430.2"/>
	<g>
		<g>
			<polygon class="st0" points="694,260.4 664,313.3 694,295.8 724,313.4 			"/>
			<path class="st0" d="M629,329.5h36l40.6,66.9c2.3,4,4.7,8.3,7.1,12.9c2.4,4.6,4.7,9,6.7,13.1l7.2,14.5h0.4
				c-0.4-5.2-0.8-10.6-1-15.9c-0.3-4.6-0.5-9.5-0.6-14.7s-0.2-10.1-0.2-14.5v-62.3H759v154h-36.2l-40.2-66c-2.3-3.9-4.8-8.2-7.2-13
				c-2.5-4.8-4.8-9.3-6.8-13.5c-2.5-4.8-4.9-9.7-7.2-14.7H661c0.3,5.4,0.5,10.8,0.8,16.1c0.3,4.6,0.5,9.5,0.7,14.7
				c0.2,5.2,0.3,10.1,0.3,14.5v61.9H629V329.5z"/>
		</g>
		<line class="st0" x1="685.8" y1="287.8" x2="694.2" y2="273.3"/>
	</g>
	<line class="st0" x1="556.8" y1="440.2" x2="612.8" y2="440.2"/>
	<line class="st0" x1="773.9" y1="440.2" x2="829.9" y2="440.2"/>
</g>
<polygon class="st0" points="539.8,240.2 550,243 539.8,245.8 537,256 534.2,245.8 524,243 534.2,240.2 537,230 "/>
<polygon class="st2" points="908.6,324.4 914.5,326 908.6,327.6 907,333.5 905.4,327.6 899.5,326 905.4,324.4 907,318.5 "/>
<polygon class="st0" points="906.8,455.8 898.9,462.9 909.3,460.7 916.4,468.6 914.2,458.2 922.1,451.1 911.7,453.3 904.6,445.4 "/>
<polygon class="st2" points="568.9,568.4 563,570 568.9,571.6 570.5,577.5 572.1,571.6 578,570 572.1,568.4 570.5,562.5 "/>
<polygon class="st0" points="484.4,495.6 472.8,495.5 482.7,501.4 482.6,513 488.5,503 500.1,503.1 490.2,497.2 490.3,485.6 "/>
<polygon class="st2" points="618.9,206.4 613,208 618.9,209.6 620.5,215.5 622.1,209.6 628,208 622.1,206.4 620.5,200.5 "/>
<polygon class="st2" points="827.9,551.4 822,553 827.9,554.6 829.5,560.5 831.1,554.6 837,553 831.1,551.4 829.5,545.5 "/>
<polygon class="st0" points="813.7,204.1 802.1,204 812.1,209.9 812,221.5 817.9,211.5 829.5,211.6 819.5,205.7 819.6,194.1 "/>
<g>
	<g>
		<g>
			<line class="st0" x1="499" y1="407" x2="449" y2="407"/>
		</g>
		<g>
			<line class="st0" x1="489" y1="396" x2="436" y2="396"/>
			<line class="st0" x1="499" y1="385" x2="449" y2="385"/>
		</g>
	</g>
	<g>
		<g>
			<path class="st0" d="M408.3,399.8c3.1-3.1,7.8-3.3,7.8-3.3s-0.3,4.7-3.3,7.7c-3.1,3.1-7.8,3.3-7.8,3.3S405.2,402.9,408.3,399.8z"
				/>
			<path class="st0" d="M408.3,393.2c3.1,3.1,7.8,3.3,7.8,3.3s-0.3-4.7-3.3-7.7c-3.1-3.1-7.8-3.3-7.8-3.3S405.2,390.1,408.3,393.2z"
				/>
			<path class="st0" d="M401.9,393.4c3.5,0,6.3,3.1,6.3,3.1s-2.8,3.1-6.3,3.1s-6.3-3.1-6.3-3.1S398.4,393.4,401.9,393.4z"/>
		</g>
		<path class="st0" d="M417.8,399.8c3.1-3.1,7.8-3.3,7.8-3.3s-0.3,4.7-3.3,7.7s-7.8,3.3-7.8,3.3S414.7,402.9,417.8,399.8z"/>
		<path class="st0" d="M417.8,393.2c3.1,3.1,7.8,3.3,7.8,3.3s-0.3-4.7-3.3-7.7s-7.8-3.3-7.8-3.3S414.7,390.1,417.8,393.2z"/>
		<g>
			<path class="st0" d="M427.8,399.8c3.1-3.1,7.8-3.3,7.8-3.3s-0.3,4.7-3.3,7.7s-7.8,3.3-7.8,3.3S424.7,402.9,427.8,399.8z"/>
			<path class="st0" d="M427.8,393.2c3.1,3.1,7.8,3.3,7.8,3.3s-0.3-4.7-3.3-7.7s-7.8-3.3-7.8-3.3S424.7,390.1,427.8,393.2z"/>
		</g>
	</g>
</g>
<g>
	<g>
		<g>
			<line class="st0" x1="889" y1="385" x2="939" y2="385"/>
		</g>
		<g>
			<line class="st0" x1="899" y1="396" x2="952" y2="396"/>
			<line class="st0" x1="889" y1="407" x2="939" y2="407"/>
		</g>
	</g>
	<g>
		<g>
			<path class="st0" d="M979.7,392.2c-3.1,3.1-7.8,3.3-7.8,3.3s0.3-4.7,3.3-7.7s7.8-3.3,7.8-3.3S982.8,389.1,979.7,392.2z"/>
			<path class="st0" d="M979.7,398.8c-3.1-3.1-7.8-3.3-7.8-3.3s0.3,4.7,3.3,7.7s7.8,3.3,7.8,3.3S982.8,401.9,979.7,398.8z"/>
			<path class="st0" d="M986.1,398.6c-3.5,0-6.3-3.1-6.3-3.1s2.8-3.1,6.3-3.1s6.3,3.1,6.3,3.1S989.6,398.6,986.1,398.6z"/>
		</g>
		<path class="st0" d="M970.2,392.2c-3.1,3.1-7.8,3.3-7.8,3.3s0.3-4.7,3.3-7.7s7.8-3.3,7.8-3.3S973.3,389.1,970.2,392.2z"/>
		<path class="st0" d="M970.2,398.8c-3.1-3.1-7.8-3.3-7.8-3.3s0.3,4.7,3.3,7.7s7.8,3.3,7.8,3.3S973.3,401.9,970.2,398.8z"/>
		<g>
			<path class="st0" d="M960.2,392.2c-3.1,3.1-7.8,3.3-7.8,3.3s0.3-4.7,3.3-7.7s7.8-3.3,7.8-3.3S963.3,389.1,960.2,392.2z"/>
			<path class="st0" d="M960.2,398.8c-3.1-3.1-7.8-3.3-7.8-3.3s0.3,4.7,3.3,7.7s7.8,3.3,7.8,3.3S963.3,401.9,960.2,398.8z"/>
		</g>
	</g>
</g>
<polygon class="st2" points="487.6,348.4 493.5,350 487.6,351.6 486,357.5 484.4,351.6 478.5,350 484.4,348.4 486,342.5 "/>
</svg>
