<svg xmlns="http://www.w3.org/2000/svg" viewBox="0 0 180 85.183">
  <defs>
    <style>
      .cls-1 {
        fill: #35353a;
      }

      .cls-2 {
        fill: #cc0d1f;
      }
    </style>
  </defs>
  <g id="Group_108" data-name="Group 108" transform="translate(0 -0.05)">
    <g id="wordmark_EN_1_" transform="translate(94.178 24.285)">
      <g id="Renewable_1_">
        <path id="Path_23" data-name="Path 23" class="cls-1" d="M387.827,110.531h-1.641l-2.959-5.794h-3.133v5.794H378.7V97.5h5a3.958,3.958,0,0,1,2.785.97,3.377,3.377,0,0,1,1.069,2.636,3.465,3.465,0,0,1-.771,2.313,3.607,3.607,0,0,1-2.064,1.194Zm-1.641-9.4a2.2,2.2,0,0,0-.721-1.766,2.709,2.709,0,0,0-1.89-.622h-3.482v4.775h3.482a2.709,2.709,0,0,0,1.89-.622A2.2,2.2,0,0,0,386.186,101.131Z" transform="translate(-378.7 -97.5)"/>
        <path id="Path_24" data-name="Path 24" class="cls-1" d="M430.986,118.324h-6.068a3.428,3.428,0,0,0,.7,2.313,2.413,2.413,0,0,0,1.965.821,3.233,3.233,0,0,0,2.363-1.044l.9.8a4.9,4.9,0,0,1-1.418,1.044,4.749,4.749,0,0,1-1.89.348,3.637,3.637,0,0,1-2.86-1.119A4.948,4.948,0,0,1,423.6,118a5.127,5.127,0,0,1,.995-3.382,3.3,3.3,0,0,1,2.711-1.219,3.341,3.341,0,0,1,2.711,1.169,4.819,4.819,0,0,1,.97,3.183Zm-1.318-.995a4.568,4.568,0,0,0-.274-1.492,2.082,2.082,0,0,0-2.114-1.343,2.124,2.124,0,0,0-2.114,1.343,4.438,4.438,0,0,0-.274,1.492Z" transform="translate(-412.434 -109.446)"/>
        <path id="Path_25" data-name="Path 25" class="cls-1" d="M471.188,122.477H469.87v-5.546c0-1.592-.746-2.387-2.213-2.387a2.138,2.138,0,0,0-1.641.622,2.448,2.448,0,0,0-.6,1.766v5.546H464.1v-9h1.318v.995a3.236,3.236,0,0,1,2.537-1.069,3.118,3.118,0,0,1,2.313.846,3.376,3.376,0,0,1,.945,2.512v5.72Z" transform="translate(-442.862 -109.446)"/>
        <path id="Path_26" data-name="Path 26" class="cls-1" d="M510.386,118.324h-6.068a3.427,3.427,0,0,0,.7,2.313,2.413,2.413,0,0,0,1.965.821,3.233,3.233,0,0,0,2.362-1.044l.9.8a4.9,4.9,0,0,1-1.417,1.044,4.75,4.75,0,0,1-1.89.348,3.638,3.638,0,0,1-2.86-1.119A4.948,4.948,0,0,1,503,118a5.128,5.128,0,0,1,.995-3.382,3.268,3.268,0,0,1,2.711-1.219,3.341,3.341,0,0,1,2.711,1.169,4.819,4.819,0,0,1,.97,3.183Zm-1.318-.995a4.561,4.561,0,0,0-.274-1.492,2.082,2.082,0,0,0-2.114-1.343,2.124,2.124,0,0,0-2.114,1.343,4.438,4.438,0,0,0-.274,1.492Z" transform="translate(-472.088 -109.446)"/>
        <path id="Path_27" data-name="Path 27" class="cls-1" d="M550.532,113.7l-2.835,9h-1.219l-2.363-6.988-2.338,6.988H540.56l-2.86-9h1.418l2.064,7.237,2.362-7.237h1.144l2.387,7.237,2.039-7.237Z" transform="translate(-498.158 -109.671)"/>
        <path id="Path_28" data-name="Path 28" class="cls-1" d="M601.237,122.327h-1.318v-.87a3.529,3.529,0,0,1-2.611.97,3.38,3.38,0,0,1-2.537-.821,2.539,2.539,0,0,1-.671-1.84,2.412,2.412,0,0,1,.821-1.915,3.4,3.4,0,0,1,2.288-.7h2.711v-.846c0-1.318-.771-1.965-2.313-1.965a2.586,2.586,0,0,0-2.263.995l-.9-.821a3.3,3.3,0,0,1,1.343-1.045,5.32,5.32,0,0,1,1.84-.274c2.412,0,3.606.995,3.606,2.984v6.143Zm-1.318-3.183v-.97h-2.537c-1.343,0-2.014.522-2.014,1.592,0,1.02.7,1.542,2.064,1.542a2.868,2.868,0,0,0,2.014-.6A2.179,2.179,0,0,0,599.919,119.144Z" transform="translate(-540.533 -109.296)"/>
        <path id="Path_29" data-name="Path 29" class="cls-1" d="M642.162,106.03a5.42,5.42,0,0,1-1.094,3.83,3.342,3.342,0,0,1-4.725-.4v1.069H635V97.5h1.318v5.073a3.08,3.08,0,0,1,2.537-1.144,2.951,2.951,0,0,1,2.188.8C641.814,102.946,642.162,104.215,642.162,106.03Zm-1.318,0a5.68,5.68,0,0,0-.373-2.363,1.919,1.919,0,0,0-1.865-1.069,1.882,1.882,0,0,0-1.865,1.069,5.32,5.32,0,0,0-.4,2.363,5.249,5.249,0,0,0,.4,2.363,1.92,1.92,0,0,0,1.865,1.069,1.882,1.882,0,0,0,1.865-1.069A5.6,5.6,0,0,0,640.844,106.03Z" transform="translate(-571.261 -97.5)"/>
        <path id="Path_30" data-name="Path 30" class="cls-1" d="M677.733,110.531h-.945a2.175,2.175,0,0,1-1.716-.671,2.619,2.619,0,0,1-.572-1.741V97.5h1.318v10.569c0,.87.4,1.318,1.218,1.318h.721v1.144Z" transform="translate(-600.938 -97.5)"/>
        <path id="Path_31" data-name="Path 31" class="cls-1" d="M701.486,118.324h-6.068a3.427,3.427,0,0,0,.7,2.313,2.413,2.413,0,0,0,1.965.821,3.233,3.233,0,0,0,2.363-1.044l.9.8a4.9,4.9,0,0,1-1.418,1.044,4.749,4.749,0,0,1-1.89.348,3.638,3.638,0,0,1-2.86-1.119A4.948,4.948,0,0,1,694.1,118a5.127,5.127,0,0,1,.995-3.382,3.3,3.3,0,0,1,2.711-1.219,3.342,3.342,0,0,1,2.711,1.169,4.82,4.82,0,0,1,.97,3.183Zm-1.318-.995a4.565,4.565,0,0,0-.274-1.492,2.082,2.082,0,0,0-2.114-1.343,2.124,2.124,0,0,0-2.114,1.343,4.433,4.433,0,0,0-.273,1.492Z" transform="translate(-615.664 -109.446)"/>
      </g>
      <g id="Industries_1_" transform="translate(0 18.652)">
        <path id="Path_32" data-name="Path 32" class="cls-1" d="M380.093,185.631H378.7V172.6h1.393Z" transform="translate(-378.7 -172.575)"/>
        <path id="Path_33" data-name="Path 33" class="cls-1" d="M405.088,197.577H403.77v-5.546c0-1.592-.746-2.387-2.213-2.387a2.138,2.138,0,0,0-1.641.622,2.448,2.448,0,0,0-.6,1.766v5.546H398v-9h1.318v.995a3.236,3.236,0,0,1,2.537-1.069,3.118,3.118,0,0,1,2.313.846,3.337,3.337,0,0,1,.945,2.512v5.72Z" transform="translate(-393.2 -184.521)"/>
        <path id="Path_34" data-name="Path 34" class="cls-1" d="M444.162,185.556h-1.318v-1.069a3.03,3.03,0,0,1-2.561,1.194,2.952,2.952,0,0,1-2.188-.8,7.249,7.249,0,0,1,0-7.66,3.395,3.395,0,0,1,4.725.348V172.5h1.318v13.056Zm-1.318-4.5a5.683,5.683,0,0,0-.373-2.363,1.92,1.92,0,0,0-1.865-1.069,1.882,1.882,0,0,0-1.865,1.069,5.321,5.321,0,0,0-.4,2.363,5.25,5.25,0,0,0,.4,2.363,1.92,1.92,0,0,0,1.865,1.069,1.882,1.882,0,0,0,1.865-1.069A5.605,5.605,0,0,0,442.844,181.055Z" transform="translate(-422.501 -172.5)"/>
        <path id="Path_35" data-name="Path 35" class="cls-1" d="M485.288,197.8H483.97v-.995a3.2,3.2,0,0,1-2.537,1.119,3.118,3.118,0,0,1-2.313-.846,3.442,3.442,0,0,1-.92-2.537V188.8h1.318v5.546c0,1.592.721,2.387,2.189,2.387a2.138,2.138,0,0,0,1.641-.622,2.448,2.448,0,0,0,.6-1.766V188.8h1.318v9Z" transform="translate(-453.456 -184.746)"/>
        <path id="Path_36" data-name="Path 36" class="cls-1" d="M523.361,194.791a2.366,2.366,0,0,1-.995,2.014,4.327,4.327,0,0,1-2.661.721A5.138,5.138,0,0,1,516,196.233l.87-.87a3.659,3.659,0,0,0,2.81,1.045c1.592,0,2.387-.522,2.387-1.592,0-.8-.5-1.219-1.492-1.318l-1.492-.149c-1.791-.149-2.686-.97-2.686-2.412a2.279,2.279,0,0,1,.92-1.915,3.841,3.841,0,0,1,2.387-.721,4.964,4.964,0,0,1,3.233.97l-.871.846a3.987,3.987,0,0,0-2.387-.671c-1.343,0-2.014.5-2.014,1.467,0,.771.522,1.194,1.567,1.293l1.442.149C522.466,192.528,523.361,193.348,523.361,194.791Z" transform="translate(-481.855 -184.371)"/>
        <path id="Path_37" data-name="Path 37" class="cls-1" d="M556.1,185.556h-.945a2.126,2.126,0,0,1-1.716-.721,2.381,2.381,0,0,1-.6-1.691V177.6H551.7V176.6h1.144v-4.1h1.318v4.1h1.915v.995h-1.915v5.5c0,.87.4,1.318,1.219,1.318h.7v1.144Z" transform="translate(-508.677 -172.5)"/>
        <path id="Path_38" data-name="Path 38" class="cls-1" d="M585.318,189.246l-.97.97a2.223,2.223,0,0,0-1.567-.647,1.938,1.938,0,0,0-1.567.7,2.53,2.53,0,0,0-.6,1.716V197.5H579.3v-9h1.318v1.094a2.809,2.809,0,0,1,2.537-1.194A2.923,2.923,0,0,1,585.318,189.246Z" transform="translate(-529.413 -184.446)"/>
        <path id="Path_39" data-name="Path 39" class="cls-1" d="M610.992,173.992H609.5V172.5h1.492Zm-.1,11.564h-1.318v-9h1.318Z" transform="translate(-552.103 -172.5)"/>
        <path id="Path_40" data-name="Path 40" class="cls-1" d="M633.386,193.424h-6.068a3.427,3.427,0,0,0,.7,2.313,2.412,2.412,0,0,0,1.965.821,3.233,3.233,0,0,0,2.363-1.044l.9.8a4.9,4.9,0,0,1-1.418,1.044,4.747,4.747,0,0,1-1.89.348,3.637,3.637,0,0,1-2.86-1.119A4.947,4.947,0,0,1,626,193.1a5.128,5.128,0,0,1,.995-3.382,3.267,3.267,0,0,1,2.711-1.219,3.341,3.341,0,0,1,2.711,1.169,4.819,4.819,0,0,1,.97,3.183Zm-1.318-.995a4.575,4.575,0,0,0-.274-1.492,2.082,2.082,0,0,0-2.114-1.343,2.124,2.124,0,0,0-2.114,1.343,4.443,4.443,0,0,0-.274,1.492Z" transform="translate(-564.5 -184.521)"/>
        <path id="Path_41" data-name="Path 41" class="cls-1" d="M670.361,194.791a2.366,2.366,0,0,1-.995,2.014,4.328,4.328,0,0,1-2.661.721A5.138,5.138,0,0,1,663,196.233l.87-.87a3.7,3.7,0,0,0,2.81,1.045c1.592,0,2.387-.522,2.387-1.592,0-.8-.5-1.219-1.492-1.318l-1.492-.149c-1.791-.149-2.686-.97-2.686-2.412a2.28,2.28,0,0,1,.92-1.915,3.841,3.841,0,0,1,2.388-.721,4.963,4.963,0,0,1,3.233.97l-.87.846a3.986,3.986,0,0,0-2.387-.671c-1.343,0-2.014.5-2.014,1.467,0,.771.522,1.194,1.567,1.293l1.442.149C669.491,192.528,670.361,193.348,670.361,194.791Z" transform="translate(-592.298 -184.371)"/>
      </g>
      <g id="Canada_1_" transform="translate(0.025 37.229)">
        <path id="Path_42" data-name="Path 42" class="cls-1" d="M387.877,256.551a4.44,4.44,0,0,1-4.526,3.88,4.538,4.538,0,0,1-3.332-1.343,3.785,3.785,0,0,1-1.069-2.039,22.092,22.092,0,0,1-.149-3.233,22.568,22.568,0,0,1,.149-3.233,3.865,3.865,0,0,1,1.069-2.039,4.538,4.538,0,0,1,3.332-1.343,4.476,4.476,0,0,1,2.984,1.02,4.744,4.744,0,0,1,1.542,2.86H386.46a3.4,3.4,0,0,0-1.069-1.915,2.983,2.983,0,0,0-2.014-.721,3.019,3.019,0,0,0-2.263.92,2.951,2.951,0,0,0-.771,1.517,19.274,19.274,0,0,0-.149,2.959,19.5,19.5,0,0,0,.149,2.959,2.858,2.858,0,0,0,.771,1.517,2.981,2.981,0,0,0,2.263.92,3.049,3.049,0,0,0,2.039-.721,3.436,3.436,0,0,0,1.094-1.915h1.368Z" transform="translate(-378.8 -247.2)"/>
        <path id="Path_43" data-name="Path 43" class="cls-1" d="M430.537,272.427h-1.318v-.87a3.529,3.529,0,0,1-2.611.97,3.38,3.38,0,0,1-2.537-.821,2.539,2.539,0,0,1-.671-1.84,2.412,2.412,0,0,1,.821-1.915,3.4,3.4,0,0,1,2.288-.7h2.711v-.846c0-1.318-.771-1.965-2.313-1.965a2.586,2.586,0,0,0-2.263.995l-.9-.821a3.3,3.3,0,0,1,1.343-1.045,5.318,5.318,0,0,1,1.84-.274c2.412,0,3.606.995,3.606,2.984Zm-1.318-3.183v-.97h-2.537c-1.343,0-2.014.522-2.014,1.592,0,1.02.7,1.542,2.064,1.542a2.868,2.868,0,0,0,2.014-.6A2.073,2.073,0,0,0,429.219,269.244Z" transform="translate(-412.309 -259.296)"/>
        <path id="Path_44" data-name="Path 44" class="cls-1" d="M471.388,272.577H470.07v-5.546c0-1.592-.746-2.387-2.213-2.387a2.137,2.137,0,0,0-1.641.622,2.447,2.447,0,0,0-.6,1.766v5.546H464.3v-9h1.318v.995a3.236,3.236,0,0,1,2.537-1.069,3.118,3.118,0,0,1,2.313.846,3.375,3.375,0,0,1,.945,2.512v5.72Z" transform="translate(-443.037 -259.446)"/>
        <path id="Path_45" data-name="Path 45" class="cls-1" d="M509.537,272.427h-1.318v-.87a3.529,3.529,0,0,1-2.611.97,3.38,3.38,0,0,1-2.537-.821,2.539,2.539,0,0,1-.671-1.84,2.412,2.412,0,0,1,.821-1.915,3.4,3.4,0,0,1,2.288-.7h2.711v-.846c0-1.318-.771-1.965-2.313-1.965a2.586,2.586,0,0,0-2.263.995l-.9-.821a3.3,3.3,0,0,1,1.343-1.045,5.318,5.318,0,0,1,1.84-.274c2.412,0,3.606.995,3.606,2.984Zm-1.318-3.183v-.97h-2.537c-1.343,0-2.014.522-2.014,1.592,0,1.02.7,1.542,2.064,1.542a2.868,2.868,0,0,0,2.014-.6A2.072,2.072,0,0,0,508.219,269.244Z" transform="translate(-471.662 -259.296)"/>
        <path id="Path_46" data-name="Path 46" class="cls-1" d="M548.762,260.556h-1.318v-1.069a3.031,3.031,0,0,1-2.562,1.194,2.952,2.952,0,0,1-2.188-.8,7.249,7.249,0,0,1,0-7.66,3.394,3.394,0,0,1,4.725.348V247.5h1.318v13.056Zm-1.318-4.5a5.685,5.685,0,0,0-.373-2.363,1.92,1.92,0,0,0-1.865-1.069,1.882,1.882,0,0,0-1.865,1.069,5.323,5.323,0,0,0-.4,2.363,5.252,5.252,0,0,0,.4,2.363,1.92,1.92,0,0,0,1.865,1.069,1.882,1.882,0,0,0,1.865-1.069A6.036,6.036,0,0,0,547.444,256.055Z" transform="translate(-501.114 -247.425)"/>
        <path id="Path_47" data-name="Path 47" class="cls-1" d="M587.337,272.427h-1.318v-.87a3.529,3.529,0,0,1-2.611.97,3.38,3.38,0,0,1-2.537-.821,2.539,2.539,0,0,1-.672-1.84,2.412,2.412,0,0,1,.821-1.915,3.4,3.4,0,0,1,2.288-.7h2.711v-.846c0-1.318-.771-1.965-2.313-1.965a2.585,2.585,0,0,0-2.263.995l-.9-.821a3.3,3.3,0,0,1,1.343-1.045,5.318,5.318,0,0,1,1.84-.274c2.412,0,3.606.995,3.606,2.984Zm-1.318-3.183v-.97h-2.537c-1.343,0-2.014.522-2.014,1.592,0,1.02.7,1.542,2.064,1.542a2.868,2.868,0,0,0,2.014-.6A2.072,2.072,0,0,0,586.019,269.244Z" transform="translate(-530.114 -259.296)"/>
      </g>
    </g>
    <g id="icon_outline_1_" transform="translate(0 0.05)">
      <path id="outline_1_" class="cls-2" d="M73.661,24.011H55.955a.945.945,0,0,1-.945-.945V10.88a1.8,1.8,0,0,0-.8-1.393L38.1.237a1.844,1.844,0,0,0-1.616,0L20.392,9.562a1.771,1.771,0,0,0-.8,1.393V23.091a.945.945,0,0,1-.945.945H.945A.945.945,0,0,0,0,24.981V49.228a1.8,1.8,0,0,0,.8,1.393L24.3,64.149a.932.932,0,0,1,.348,1.268L13.5,84.765c-.249.448-.1.6.348.348L36.482,72.082a1.844,1.844,0,0,1,1.616,0L60.73,85.114c.448.249.6.1.348-.348L49.937,65.418a.932.932,0,0,1,.348-1.268l23.5-13.529a1.771,1.771,0,0,0,.8-1.393V24.981A.915.915,0,0,0,73.661,24.011ZM24.073,25.876a1.8,1.8,0,0,1,1.393.8L36.234,45.3,31.26,53.928,3.183,25.876ZM2.686,49.477a1.771,1.771,0,0,1-.8-1.393V27.219L30.315,55.644l-4.228,7.361Zm24.048,16.04h0l4.924-8.53,4.327,4.327L19.92,77.379Zm9.624,4.476L21.213,78.7,36.358,63.552Zm0-10.942L32.6,55.3l3.755-6.516Zm0-17.234-9.823-17.01a1.771,1.771,0,0,0-1.393-.8H21.437V12.024a1.8,1.8,0,0,1,.8-1.393L36.358,2.475ZM71.423,25.876,43.346,53.953l-4.974-8.629L49.141,26.7a1.771,1.771,0,0,1,1.393-.8h20.89ZM38.248,2.45l14.125,8.157a1.771,1.771,0,0,1,.8,1.393V23.986H49.464a1.8,1.8,0,0,0-1.393.8L38.248,41.817Zm0,46.355L42,55.321l-3.755,3.755Zm0,21.188V63.577L53.393,78.722Zm16.413,7.361-16.04-16.04,4.327-4.327Zm18.08-29.3a1.8,1.8,0,0,1-.8,1.393l-23.377,13.5-4.228-7.361L72.766,27.169v20.89Z" transform="translate(0 -0.05)"/>
    </g>
  </g>
</svg>
