<svg xmlns="http://www.w3.org/2000/svg" viewBox="0 0 50 57.036">
  <defs>
    <style>
      .cls-1 {
        fill: #cc0d1f;
      }
    </style>
  </defs>
  <g id="RIC_icon" data-name="RIC icon" transform="translate(-140 -20)">
    <g id="Group_585" data-name="Group 585">
      <path id="outline_1_" class="cls-1" d="M49.349,16.065H37.467a.618.618,0,0,1-.618-.618V7.276a1.123,1.123,0,0,0-.553-.944L25.521.147a1.243,1.243,0,0,0-1.074,0L13.672,6.4a1.2,1.2,0,0,0-.553.944v8.138a.618.618,0,0,1-.618.618H.618A.618.618,0,0,0,0,16.716V32.96a1.167,1.167,0,0,0,.553.944l15.723,9.049a.629.629,0,0,1,.228.846L9.049,56.755c-.163.293-.065.391.228.228l15.169-8.724a1.243,1.243,0,0,1,1.074,0L40.69,56.983c.293.163.391.065.228-.228L33.464,43.8a.629.629,0,0,1,.228-.846l15.755-9.082A1.2,1.2,0,0,0,50,32.927V16.684A.67.67,0,0,0,49.349,16.065Zm-33.236,1.27a1.167,1.167,0,0,1,.944.553l7.227,12.467-3.32,5.794L2.148,17.335ZM1.79,33.122a1.2,1.2,0,0,1-.553-.944v-14L20.28,37.224l-2.832,4.915ZM17.9,43.865h0l3.288-5.729,2.9,2.9L13.346,51.807Zm6.445,2.995L14.225,52.686,24.349,42.562Zm0-7.292-2.507-2.507L24.349,32.7Zm0-11.556L17.773,16.618a1.2,1.2,0,0,0-.944-.553H14.355V8.057a1.123,1.123,0,0,1,.553-.944l9.44-5.469Zm23.5-10.677L29.036,36.15l-3.32-5.794,7.227-12.467a1.2,1.2,0,0,1,.944-.553ZM25.618,1.644l9.44,5.469a1.2,1.2,0,0,1,.553.944V16.1H33.138a1.167,1.167,0,0,0-.944.553L25.618,28.012Zm0,31.055,2.507,4.362-2.507,2.507Zm0,14.16v-4.3L35.742,52.686Zm11,4.948L25.879,41.065l2.9-2.9ZM48.73,32.178a1.167,1.167,0,0,1-.553.944L32.52,42.172l-2.832-4.915L48.73,18.213Z" transform="translate(140 19.975)"/>
    </g>
  </g>
</svg>
