<?xml version="1.0" encoding="utf-8"?>
<!-- Generator: Adobe Illustrator 19.0.0, SVG Export Plug-In . SVG Version: 6.00 Build 0)  -->
<svg version="1.1" id="Capa_1" xmlns="http://www.w3.org/2000/svg" xmlns:xlink="http://www.w3.org/1999/xlink" x="0px" y="0px"
	 viewBox="-279 370 53 53" style="enable-background:new -279 370 53 53;" xml:space="preserve">
<style type="text/css">
	.st0{fill:#FFFFFF;}
</style>
<path class="st0" d="M-227.3,421.3l-14.9-15.5c3.8-3.8,6.1-9,6.1-14.8c0-11.6-9.4-21-21-21c-11.6,0-21,9.4-21,21
	c0,11.6,9.4,21,21,21c5.1,0,9.7-1.8,13.4-4.8l14.9,15.5c0.2,0.2,0.5,0.3,0.7,0.3c0.3,0,0.5-0.1,0.7-0.3
	C-226.9,422.3-226.9,421.7-227.3,421.3z M-257,410c-10.5,0-19-8.5-19-19s8.5-19,19-19s19,8.5,19,19S-246.5,410-257,410z"/>
</svg>
