<?xml version="1.0" encoding="utf-8"?>
<!-- Generator: Adobe Illustrator 19.0.0, SVG Export Plug-In . SVG Version: 6.00 Build 0)  -->
<svg version="1.1" id="shield" xmlns="http://www.w3.org/2000/svg" xmlns:xlink="http://www.w3.org/1999/xlink" x="0px" y="0px"
	 viewBox="0 0 1000 456" style="enable-background:new 0 0 1000 456;" xml:space="preserve">
<style type="text/css">
	.st0{fill:none;stroke:#000000;stroke-width:2;stroke-linecap:round;stroke-linejoin:round;stroke-miterlimit:10;}
	.st1{fill:none;stroke:#000000;stroke-width:2;stroke-linecap:round;stroke-miterlimit:10;}
	.st2{fill:none;stroke:#CC0D1F;stroke-width:2;stroke-linecap:round;stroke-linejoin:round;stroke-miterlimit:10;}
</style>
<g>
	<g>
		<path class="st0" d="M675,311.6v-270c0-5.5-4.5-10-10-10H335c-5.5,0-10,4.5-10,10v270c0,3.6,1.9,6.9,5,8.7l165,95.2
			c3.1,1.8,6.9,1.8,10,0l165-95.2C673.1,318.5,675,315.2,675,311.6z"/>
		<polyline class="st0" points="655.9,48.9 342.3,48.9 342.3,118.4 		"/>
		<g>
			<line class="st1" x1="342.8" y1="138.4" x2="342.8" y2="157"/>
		</g>
		<g>
			<line class="st1" x1="342.8" y1="173" x2="342.8" y2="289.1"/>
		</g>
		<line class="st1" x1="500" y1="395.9" x2="647.3" y2="310.9"/>
		<g>
			<line class="st1" x1="655.9" y1="223.3" x2="655.9" y2="204.6"/>
		</g>
		<g>
			<line class="st1" x1="655.9" y1="188.6" x2="655.9" y2="72.5"/>
		</g>
		<line class="st1" x1="400.6" y1="338.5" x2="352.7" y2="310.9"/>
		<line class="st1" x1="435" y1="358.4" x2="418.8" y2="349"/>
	</g>
	<g>
		<line class="st2" x1="500" y1="154.4" x2="500" y2="301.5"/>
		<path class="st2" d="M547.8,246.7c13.7-11.5,27.3-23.1,40.9-34.6c0.4-0.3,0.8-0.7,1.4-1.2c-3-1.5-5.9-2.9-8.8-4.3
			c-2.8-1.3-3.3-2.2-2.6-5.2c2.4-9.4,4.9-18.8,7.3-28.2c0.1-0.2,0.1-0.5,0.2-1.1c-2.5,0.5-4.9,1-7.3,1.6c-5.8,1.3-11.5,2.5-17.3,3.8
			c-2.7,0.6-4.4-0.4-5.1-3.1c-1-3.7-2-7.3-3.1-11.3c-2.8,3.2-5.3,6.2-7.8,9.1c-4,4.7-8,9.4-12,14.1c-1.8,2.1-3.7,2.9-5.2,2.2
			c-2.2-1.1-2.2-3.2-1.9-5.1c0.8-5.5,1.9-11,2.9-16.5c1.9-10.3,3.7-20.7,5.6-31c0.1-0.4,0.1-0.8,0.1-1.5c-2.7,1.5-5.3,2.8-7.8,4.2
			c-1.5,0.8-2.9,1.7-4.5,2.4c-3.5,1.7-5.8,1-7.5-2.5c-4.7-9.2-9.5-18.5-14.2-27.7c-0.3-0.6-0.7-1.2-1.1-2.1
			c-0.5,0.8-0.8,1.5-1.1,2.1c-4.7,9.2-9.5,18.5-14.2,27.7c-1.8,3.4-4,4.2-7.5,2.5c-1.5-0.7-3-1.6-4.5-2.4c-2.5-1.4-5.1-2.7-7.8-4.2
			c0,0.7,0,1.1,0.1,1.5c1.9,10.3,3.8,20.7,5.6,31c1,5.5,2,11,2.9,16.5c0.3,1.9,0.3,4-1.9,5.1c-1.5,0.7-3.4-0.1-5.2-2.2
			c-4-4.7-8-9.4-12-14.1c-2.5-2.9-5-5.9-7.8-9.1c-1.1,4-2.1,7.7-3.1,11.3c-0.7,2.7-2.4,3.7-5.1,3.1c-5.8-1.2-11.5-2.5-17.3-3.8
			c-2.4-0.5-4.7-1-7.3-1.6c0.1,0.6,0.2,0.8,0.2,1.1c2.4,9.4,4.9,18.8,7.3,28.2c0.8,3,0.2,3.8-2.6,5.2c-2.9,1.4-5.7,2.8-8.8,4.3
			c0.6,0.5,1,0.9,1.4,1.2c13.6,11.6,27.2,23.2,40.9,34.6c2.9,2.4,3.7,5.1,2.5,8.6c-0.6,1.6-1,3.2-1.5,4.8c-0.6,2.1-1.2,4.2-1.8,6.4
			c0.1,0,96.8,0,97,0c-0.6-2.2-1.2-4.3-1.8-6.4c-0.5-1.6-0.9-3.2-1.5-4.8C544,251.8,544.9,249.1,547.8,246.7z"/>
		<polyline class="st2" points="512.9,171.4 500,187.6 487.1,171.4 		"/>
		<polyline class="st2" points="564.3,192.9 500,257.2 435.7,192.9 		"/>
		<polyline class="st2" points="561.1,214.4 540.5,216.8 542.9,196.2 		"/>
		<polyline class="st2" points="438.9,214.4 459.5,216.8 457.1,196.2 		"/>
	</g>
	<g>
		<polyline class="st0" points="305,175 255,115 215,165 195,145 125,225 175,225 		"/>
		<polyline class="st0" points="295,145 225,225 305,225 		"/>
		<line class="st0" x1="185" y1="225" x2="206" y2="225"/>
		<line class="st0" x1="212" y1="225" x2="216" y2="225"/>
		<polyline class="st0" points="156.5,200.4 163.2,192.9 187.4,165.6 193.2,171.4 202.8,160.8 		"/>
		<line class="st0" x1="142" y1="216.8" x2="146.7" y2="211.5"/>
		<line class="st0" x1="270.9" y1="146.2" x2="272.9" y2="148.6"/>
		<line class="st0" x1="234.6" y1="154.4" x2="227.8" y2="162.8"/>
		<polyline class="st0" points="265.2,139.6 255.8,128.4 246.5,139.8 		"/>
		<g>
			<polyline class="st0" points="277.9,196.2 285.6,188.5 293.4,196.2 			"/>
			<line class="st0" x1="285.9" y1="215.2" x2="285.9" y2="224.2"/>
			<polyline class="st0" points="277.9,206.2 285.6,198.5 293.4,206.2 			"/>
			<polyline class="st0" points="277.9,216.2 285.6,208.5 293.4,216.2 			"/>
		</g>
		<g>
			<line class="st0" x1="264.7" y1="215.2" x2="264.7" y2="224.2"/>
			<polyline class="st0" points="256.7,206.2 264.4,198.5 272.2,206.2 			"/>
			<polyline class="st0" points="256.7,216.2 264.4,208.5 272.2,216.2 			"/>
		</g>
	</g>
	<g>
		<polyline class="st0" points="695,175 745,115 785,165 805,145 875,225 825,225 		"/>
		<polyline class="st0" points="705,145 775,225 695,225 		"/>
		<line class="st0" x1="815" y1="225" x2="794" y2="225"/>
		<line class="st0" x1="788" y1="225" x2="784" y2="225"/>
		<polyline class="st0" points="843.5,200.4 836.8,192.9 812.6,165.6 806.8,171.4 797.2,160.8 		"/>
		<line class="st0" x1="858" y1="216.8" x2="853.3" y2="211.5"/>
		<line class="st0" x1="729.1" y1="146.2" x2="727.1" y2="148.6"/>
		<line class="st0" x1="765.4" y1="154.4" x2="772.2" y2="162.8"/>
		<polyline class="st0" points="734.8,139.6 744.2,128.4 753.5,139.8 		"/>
		<g>
			<polyline class="st0" points="722.1,196.2 714.4,188.5 706.6,196.2 			"/>
			<line class="st0" x1="714.1" y1="215.2" x2="714.1" y2="224.2"/>
			<polyline class="st0" points="722.1,206.2 714.4,198.5 706.6,206.2 			"/>
			<polyline class="st0" points="722.1,216.2 714.4,208.5 706.6,216.2 			"/>
		</g>
		<g>
			<line class="st0" x1="735.3" y1="215.2" x2="735.3" y2="224.2"/>
			<polyline class="st0" points="743.3,206.2 735.6,198.5 727.8,206.2 			"/>
			<polyline class="st0" points="743.3,216.2 735.6,208.5 727.8,216.2 			"/>
		</g>
	</g>
	<g>
		<g>
			<path class="st0" d="M125,244c5.6,0,5.6,6,11.2,6c5.6,0,5.6-6,11.2-6c5.6,0,5.6,6,11.2,6c5.6,0,5.6-6,11.2-6c5.6,0,5.6,6,11.2,6
				c5.6,0,5.6-6,11.2-6c5.6,0,5.6,6,11.3,6c5.6,0,5.6-6,11.2-6c5.6,0,5.6,6,11.3,6c5.6,0,5.6-6,11.3-6c5.6,0,5.6,6,11.2,6
				c5.6,0,5.6-6,11.2-6c5.6,0,5.6,6,11.3,6c5.6,0,5.6-6,11.2-6c5.6,0,5.6,6,11.3,6c5.6,0,5.6-6,11.3-6"/>
		</g>
		<g>
			<path class="st0" d="M125,254c5.6,0,5.6,6,11.2,6c5.6,0,5.6-6,11.2-6c5.6,0,5.6,6,11.2,6c5.6,0,5.6-6,11.2-6c5.6,0,5.6,6,11.2,6
				c5.6,0,5.6-6,11.2-6c5.6,0,5.6,6,11.3,6c5.6,0,5.6-6,11.2-6c5.6,0,5.6,6,11.3,6c5.6,0,5.6-6,11.3-6c5.6,0,5.6,6,11.2,6
				c5.6,0,5.6-6,11.2-6c5.6,0,5.6,6,11.3,6c5.6,0,5.6-6,11.2-6c5.6,0,5.6,6,11.3,6c5.6,0,5.6-6,11.3-6"/>
		</g>
		<g>
			<path class="st0" d="M125,264c5.6,0,5.6,6,11.2,6c5.6,0,5.6-6,11.2-6c5.6,0,5.6,6,11.2,6c5.6,0,5.6-6,11.2-6c5.6,0,5.6,6,11.2,6
				c5.6,0,5.6-6,11.2-6c5.6,0,5.6,6,11.3,6c5.6,0,5.6-6,11.2-6c5.6,0,5.6,6,11.3,6c5.6,0,5.6-6,11.3-6c5.6,0,5.6,6,11.2,6
				c5.6,0,5.6-6,11.2-6c5.6,0,5.6,6,11.3,6c5.6,0,5.6-6,11.2-6c5.6,0,5.6,6,11.3,6c5.6,0,5.6-6,11.3-6"/>
		</g>
		<g>
			<path class="st0" d="M125,274c5.6,0,5.6,6,11.2,6c5.6,0,5.6-6,11.2-6c5.6,0,5.6,6,11.2,6c5.6,0,5.6-6,11.2-6c5.6,0,5.6,6,11.2,6
				c5.6,0,5.6-6,11.2-6c5.6,0,5.6,6,11.3,6c5.6,0,5.6-6,11.2-6c5.6,0,5.6,6,11.3,6c5.6,0,5.6-6,11.3-6c5.6,0,5.6,6,11.2,6
				c5.6,0,5.6-6,11.2-6c5.6,0,5.6,6,11.3,6c5.6,0,5.6-6,11.2-6c5.6,0,5.6,6,11.3,6c5.6,0,5.6-6,11.3-6"/>
		</g>
	</g>
	<g>
		<g>
			<path class="st0" d="M695,244c5.6,0,5.6,6,11.2,6c5.6,0,5.6-6,11.2-6c5.6,0,5.6,6,11.2,6c5.6,0,5.6-6,11.2-6c5.6,0,5.6,6,11.2,6
				c5.6,0,5.6-6,11.2-6c5.6,0,5.6,6,11.3,6c5.6,0,5.6-6,11.2-6c5.6,0,5.6,6,11.3,6c5.6,0,5.6-6,11.3-6c5.6,0,5.6,6,11.2,6
				c5.6,0,5.6-6,11.2-6c5.6,0,5.6,6,11.3,6c5.6,0,5.6-6,11.2-6c5.6,0,5.6,6,11.3,6c5.6,0,5.6-6,11.3-6"/>
		</g>
		<g>
			<path class="st0" d="M695,254c5.6,0,5.6,6,11.2,6c5.6,0,5.6-6,11.2-6c5.6,0,5.6,6,11.2,6c5.6,0,5.6-6,11.2-6c5.6,0,5.6,6,11.2,6
				c5.6,0,5.6-6,11.2-6c5.6,0,5.6,6,11.3,6c5.6,0,5.6-6,11.2-6c5.6,0,5.6,6,11.3,6c5.6,0,5.6-6,11.3-6c5.6,0,5.6,6,11.2,6
				c5.6,0,5.6-6,11.2-6c5.6,0,5.6,6,11.3,6c5.6,0,5.6-6,11.2-6c5.6,0,5.6,6,11.3,6c5.6,0,5.6-6,11.3-6"/>
		</g>
		<g>
			<path class="st0" d="M695,264c5.6,0,5.6,6,11.2,6c5.6,0,5.6-6,11.2-6c5.6,0,5.6,6,11.2,6c5.6,0,5.6-6,11.2-6c5.6,0,5.6,6,11.2,6
				c5.6,0,5.6-6,11.2-6c5.6,0,5.6,6,11.3,6c5.6,0,5.6-6,11.2-6c5.6,0,5.6,6,11.3,6c5.6,0,5.6-6,11.3-6c5.6,0,5.6,6,11.2,6
				c5.6,0,5.6-6,11.2-6c5.6,0,5.6,6,11.3,6c5.6,0,5.6-6,11.2-6c5.6,0,5.6,6,11.3,6c5.6,0,5.6-6,11.3-6"/>
		</g>
		<g>
			<path class="st0" d="M695,274c5.6,0,5.6,6,11.2,6c5.6,0,5.6-6,11.2-6c5.6,0,5.6,6,11.2,6c5.6,0,5.6-6,11.2-6c5.6,0,5.6,6,11.2,6
				c5.6,0,5.6-6,11.2-6c5.6,0,5.6,6,11.3,6c5.6,0,5.6-6,11.2-6c5.6,0,5.6,6,11.3,6c5.6,0,5.6-6,11.3-6c5.6,0,5.6,6,11.2,6
				c5.6,0,5.6-6,11.2-6c5.6,0,5.6,6,11.3,6c5.6,0,5.6-6,11.2-6c5.6,0,5.6,6,11.3,6c5.6,0,5.6-6,11.3-6"/>
		</g>
	</g>
	<path class="st0" d="M189,110.5c6-2,8.6-1.2,9.8,0c1.2,1.2,0.8,2.8,1.9,3.3c1.9,0.8,4-3.6,7.6-4c1.6-0.2,3.8,0.5,6.7,3.6"/>
	<g>
		<path class="st0" d="M688.8,116c0-35.7,28.9-64.6,64.6-64.6c35.7,0,64.7,28.9,64.7,64.6"/>
		<path class="st0" d="M753.5,61c11.4,0,22,3.5,30.8,9.4c6.9,4.7,12.7,10.9,16.9,18.1"/>
	</g>
	<path class="st0" d="M272.6,71.4c6-2,8.6-1.2,9.8,0c1.2,1.2,0.8,2.8,1.9,3.3c1.9,0.8,4-3.6,7.6-4c1.6-0.2,3.8,0.5,6.7,3.6"/>
</g>
</svg>
