<?xml version="1.0" encoding="utf-8"?>
<!-- Generator: Adobe Illustrator 19.0.0, SVG Export Plug-In . SVG Version: 6.00 Build 0)  -->
<svg version="1.1" id="north" xmlns="http://www.w3.org/2000/svg" xmlns:xlink="http://www.w3.org/1999/xlink" x="0px" y="0px"
	 viewBox="194 139 1000 515" style="enable-background:new 194 139 1000 515;" xml:space="preserve">
<style type="text/css">
	.st0{fill:none;stroke:#000000;stroke-width:2;stroke-linecap:round;stroke-linejoin:round;stroke-miterlimit:10;}
	.st1{fill:none;stroke:#000000;stroke-width:2;stroke-linecap:round;stroke-linejoin:round;}
	.st2{fill:none;stroke:#000000;stroke-width:2;stroke-linecap:round;stroke-linejoin:round;stroke-dasharray:11.8941,11.8941;}
	.st3{fill:none;stroke:#000000;stroke-width:2;stroke-linecap:round;stroke-miterlimit:10;}
	.st4{fill:none;stroke:#000000;stroke-width:2;stroke-miterlimit:10;}
</style>
<g>
	<g>
		<g>
			<line class="st0" x1="565.1" y1="406" x2="546.9" y2="406"/>
			<line class="st0" x1="594.4" y1="326.1" x2="570.7" y2="326.1"/>
			<g>
				<circle class="st0" cx="694" cy="406" r="147.1"/>
				<ellipse class="st0" cx="694" cy="406" rx="63.3" ry="147.1"/>
				<line class="st0" x1="680.7" y1="406" x2="578.6" y2="406"/>
				<line class="st0" x1="841.1" y1="406" x2="694" y2="406"/>
				<polyline class="st0" points="665.5,326.1 649.7,326.1 606.2,326.1 				"/>
				<line class="st0" x1="716.1" y1="326.1" x2="705.1" y2="326.1"/>
				<polyline class="st0" points="773.1,326.1 757.3,326.1 737.5,326.1 				"/>
				<line class="st0" x1="817.3" y1="326.1" x2="801.5" y2="326.1"/>
				<line class="st0" x1="773.1" y1="485.9" x2="570.7" y2="485.9"/>
				<polyline class="st0" points="817.3,485.9 804.7,485.9 793.6,485.9 				"/>
				<g>
					<line class="st0" x1="694" y1="521.9" x2="694" y2="576"/>
					<path class="st0" d="M694,425"/>
					<line class="st0" x1="694" y1="440.8" x2="694" y2="509.5"/>
					<polyline class="st0" points="694,295.3 694,315.1 694,353.1 694,382.8 694,402.4 694,425 					"/>
					<line class="st0" x1="694" y1="236" x2="694" y2="274"/>
					<path class="st0" d="M654.3,240.7c12.7-3.1,26-4.7,39.7-4.7c11.2,0,22.1,1.1,32.7,3.1"/>
					<path class="st0" d="M580,279.9c1.1-1,2.2-2,3.4-3c7.1-6.1,14.8-11.7,22.9-16.5c3.1-1.9,6.4-3.7,9.6-5.4
						c3.1-1.6,6.3-3.1,9.5-4.5"/>
					<path class="st0" d="M724,573.4c-9.7,1.7-19.7,2.6-30,2.6c-93.9,0-170-76.1-170-170c0-38.6,12.9-74.2,34.6-102.8
						c2.1-2.8,4.3-5.5,6.6-8.1c2.5-2.9,5-5.6,7.7-8.3c0.6-0.6,1.3-1.3,1.9-1.9"/>
					<g>
						<g>
							<path class="st1" d="M756.3-509.8c1.9,0.7,3.7,1.5,5.5,2.3"/>
							<path class="st2" d="M772.5-502.3C826.3-473.8,863-417.2,863-352c0,67.3-39.1,125.5-95.8,153"/>
							<path class="st1" d="M761.8-196.5c-1.8,0.8-3.7,1.6-5.5,2.3"/>
						</g>
					</g>
				</g>
			</g>
		</g>
		<g>
			<circle class="st0" cx="508.3" cy="258.7" r="19.7"/>
			<path class="st0" d="M524.9,248c8.2-1.7,13.9-1.7,14.6,0.2c1.1,3.1-12,10.4-29.3,16.2s-32,8-33.1,4.9c-0.6-1.9,3.9-5.3,11.4-9"/>
		</g>
		<g>
			<polygon points="900,300.5 898.4,306.4 892.5,308 898.4,309.6 900,315.5 901.6,309.6 907.5,308 901.6,306.4 900,300.5 			"/>
		</g>
		<g>
			<polygon points="569.5,578.5 567.9,584.4 562,586 567.9,587.6 569.5,593.5 571.1,587.6 577,586 571.1,584.4 569.5,578.5 			"/>
		</g>
		<g>
			<polygon points="617.5,199.5 615.9,205.4 610,207 615.9,208.6 617.5,214.5 619.1,208.6 625,207 619.1,205.4 617.5,199.5 			"/>
		</g>
		<g>
			<polygon points="834.5,574.5 832.9,580.4 827,582 832.9,583.6 834.5,589.5 836.1,583.6 842,582 836.1,580.4 834.5,574.5 			"/>
		</g>
		<g>
			<path class="st3" d="M858.1,213.3c0-6.4-5.2-11.6-11.6-11.6c-6.1,0-11.1,4.7-11.6,10.7c-1.5-1-3.3-1.7-5.2-1.7
				c-4.7,0-8.5,3.6-9,8.1c-3.8,1.1-6.5,4.6-6.5,8.7c0,5,4.1,9.1,9.1,9.1"/>
			<path class="st4" d="M838.5,221.7"/>
			<path class="st3" d="M861.8,217.8c0-2.5,2-4.6,4.6-4.6s4.6,2,4.6,4.6c0,0.2,0,0.4-0.1,0.6c4.6,0.5,8.2,4.4,8.2,9.1
				c0,5-4.1,9.1-9.1,9.1h-23.4"/>
			<path class="st3" d="M822.2,231c-2-2-2-5.1,0-7.1"/>
		</g>
		<g>
			<circle class="st0" cx="916.2" cy="522.4" r="25.8"/>
			<g>
				<path class="st0" d="M898.2,528.5c-3.4-9.9,2-20.7,11.9-24.1"/>
			</g>
		</g>
		<g>
			<path class="st3" d="M468.4,510.8c0-4.2,3.4-7.6,7.6-7.6c4,0,7.3,3.1,7.6,7c1-0.7,2.1-1.1,3.4-1.1c3.1,0,5.6,2.3,5.9,5.3
				c2.5,0.7,4.3,3,4.3,5.7c0,3.3-2.7,5.9-5.9,5.9"/>
			<path class="st4" d="M481.2,516.3"/>
			<path class="st3" d="M466,513.8c0-1.6-1.3-3-3-3c-1.6,0-3,1.3-3,3c0,0.1,0,0.2,0,0.4c-3,0.3-5.3,2.8-5.3,5.9c0,3.3,2.7,6,6,6H476
				"/>
			<path class="st3" d="M491.9,522.4c1.3-1.3,1.3-3.4,0-4.6"/>
		</g>
	</g>
	<g>
		<g>
			<g>
				<line class="st0" x1="499" y1="417" x2="419" y2="417"/>
			</g>
			<g>
				<line class="st0" x1="489" y1="406" x2="406" y2="406"/>
				<line class="st0" x1="499" y1="395" x2="419" y2="395"/>
			</g>
		</g>
	</g>
	<g>
		<g>
			<g>
				<line class="st0" x1="889" y1="395" x2="969" y2="395"/>
			</g>
			<g>
				<line class="st0" x1="899" y1="406" x2="982" y2="406"/>
				<line class="st0" x1="889" y1="417" x2="969" y2="417"/>
			</g>
		</g>
	</g>
</g>
</svg>
